<svg width="142" height="160" viewBox="0 0 142 160" fill="none" xmlns="http://www.w3.org/2000/svg">
<path d="M23.9067 5.42515L23.9066 5.42518C20.5783 7.31878 17.6178 9.00412 16.2936 9.75876C16.3842 9.91722 16.4964 10.1048 16.6322 10.323C17.2072 11.2469 18.1325 12.6056 19.4008 14.3821L19.4009 14.3821L21.3645 17.1327C22.7361 19.0541 23.4737 21.3558 23.4744 23.7165V23.7166C23.4748 25.6508 24.0981 27.5334 25.2521 29.0857L26.4059 30.6377L26.4059 30.6377C27.2725 31.8034 28.0632 32.9129 28.6401 33.7636C28.9276 34.1875 29.1681 34.5562 29.3397 34.8393C29.4245 34.9791 29.501 35.1122 29.5595 35.2276C29.5882 35.2843 29.621 35.3531 29.6489 35.4259L29.6503 35.4294C29.6672 35.4733 29.7314 35.6401 29.7314 35.8469C29.7314 35.9811 29.7043 36.1257 29.6921 36.1906L29.6915 36.1938C29.6734 36.2907 29.6484 36.4081 29.6188 36.5389C29.5594 36.8021 29.475 37.148 29.3729 37.5497C29.1684 38.3547 28.8874 39.4043 28.5789 40.506C27.8017 43.2829 26.3293 45.8157 24.3008 47.8652L23.7115 48.4606L23.7114 48.4606L21.429 50.767C20.4459 51.7604 19.0644 52.2529 17.6746 52.1055C17.6746 52.1055 17.6745 52.1055 17.6745 52.1055L17.78 51.1111C16.8335 51.0107 15.4111 50.8513 14.6194 50.7565L23.9067 5.42515ZM23.9067 5.42515C26.1001 4.1771 28.1049 3.04103 29.5677 2.21609C30.2993 1.80351 30.8943 1.46935 31.3092 1.23809C31.3353 1.2236 31.3605 1.20953 31.385 1.19588C31.5776 1.35919 31.8196 1.56726 32.1022 1.81261C32.8541 2.46531 33.88 3.36999 34.9977 4.36855L34.9978 4.3686C37.8037 6.87496 41.3598 8.38287 45.1121 8.6574L46.604 8.76655L47.0004 8.79556C51.0536 9.09209 54.9168 10.6314 58.0634 13.2035L58.0634 13.2036C59.4557 14.3415 60.7184 15.3986 61.6303 16.184C62.0523 16.5475 62.3941 16.8484 62.6373 17.0704C62.6268 17.1009 62.6159 17.1327 62.6045 17.1657C62.4632 17.5757 62.2577 18.1579 62.0029 18.8706C61.4938 20.2953 60.7912 22.2319 60.0183 24.3362C59.2433 26.446 58.5381 28.4111 58.0259 29.8783C57.7701 30.6112 57.5611 31.224 57.4152 31.6701C57.3426 31.8922 57.2834 32.0799 57.2414 32.2232C57.2207 32.2939 57.2015 32.3631 57.1865 32.4245C57.1863 32.4256 57.1859 32.427 57.1855 32.4288C57.1778 32.4593 57.1437 32.5959 57.1437 32.7412C57.1437 32.921 57.1928 33.0715 57.2057 33.1111L57.2069 33.115C57.2286 33.1819 57.2547 33.248 57.2788 33.3056C57.3279 33.4229 57.3936 33.563 57.4687 33.7155C57.6204 34.0237 57.8346 34.4311 58.0925 34.9052C58.6096 35.8559 59.3196 37.1051 60.0984 38.4257L61.0879 40.1037C62.193 41.9777 62.7758 44.1135 62.7758 46.2891C62.7758 48.8694 64.3593 51.1853 66.7638 52.1215L74.5399 55.1492L74.9027 54.2174L74.5399 55.1492L84.6929 59.1021C85.6595 59.4785 86.7577 59.235 87.4748 58.4854L86.7521 57.7942L87.4748 58.4853C87.8838 58.0577 89.8146 55.9469 91.7584 53.8026C92.73 52.7308 93.6341 51.7483 94.3072 51.0294C94.5349 50.7862 94.7348 50.5747 94.9011 50.401C95.0755 50.5242 95.2824 50.6742 95.5178 50.848C96.2922 51.4201 97.3401 52.2255 98.4726 53.1252C99.7163 54.1133 100.842 54.951 101.717 55.5459C102.152 55.842 102.541 56.0879 102.858 56.2636C103.015 56.3508 103.173 56.4304 103.321 56.4908C103.434 56.537 103.668 56.6273 103.933 56.6245L103.933 56.6244C105.263 56.6096 106.285 56.4144 107.753 55.5579C109.135 54.7522 110.955 53.3366 113.93 50.9322L114.431 50.5274C117.804 47.8019 122.009 46.3152 126.345 46.3152C130.29 46.3152 133.897 48.5443 135.662 52.073L136.806 54.3613C137.988 56.7249 139.062 58.8856 139.84 60.4625C140.176 61.1423 140.456 61.7125 140.666 62.1433C140.431 62.2445 140.154 62.362 139.842 62.4933C138.755 62.9498 137.253 63.5656 135.598 64.2302L135.97 65.1582L135.598 64.2302C131.511 65.8716 128.443 69.3515 127.327 73.6118L127.078 74.5609L128.045 74.8144L126.635 80.1974C126.346 81.2995 125.376 82.0868 124.238 82.1418L124.032 82.1518C123.028 82.2004 122.183 82.922 121.978 83.9066C121.787 84.8264 121.109 88.285 120.472 91.5926C119.947 94.317 116.708 95.4997 114.551 93.755L110.318 90.3312L102.444 83.9623C101.735 83.3889 101.322 82.5266 101.32 81.6147C101.318 80.8222 101.23 79.647 101.123 79.004C101.016 78.3557 100.407 77.9142 99.7576 78.0134L99.6404 78.0314C98.931 78.1398 98.2899 78.2815 98.2154 78.3465M23.9067 5.42515L98.2154 78.3465M0.00403204 76.7336C0.0575374 76.6833 2.2353 75.3609 4.84329 73.7949L0.00403204 76.7336ZM0.00403204 76.7336C-0.164932 76.8921 5.03072 91.4107 5.39055 91.7855L0.00403204 76.7336ZM99.3048 90.2572C99.3049 90.2579 99.305 90.2585 99.3052 90.2591C99.2765 90.312 99.1934 90.4388 98.9686 90.6772C98.4247 91.254 97.3614 92.1713 95.3153 93.8871C93.1287 95.7205 91.929 96.7277 91.164 97.5873C90.3418 98.5111 90.0073 99.2803 89.4802 100.504C88.8894 101.876 87.8137 102.982 86.4587 103.61L83.6386 104.918L80.1739 106.525C78.81 107.158 77.6787 108.202 76.9392 109.512L77.8099 110.003L76.9392 109.512C74.8157 113.271 72.7862 115.378 70.5305 116.433L70.9543 117.339L70.5305 116.433C69.3186 117 67.9037 118.073 66.6795 119.225C65.4584 120.374 64.3175 121.705 63.7211 122.849C63.2669 123.72 62.958 124.356 62.8049 125.143C62.6579 125.898 62.664 126.749 62.6948 128.03C62.7308 129.539 62.6119 131.578 62.4453 132.522C61.6508 137.018 58.1117 146.088 54.9777 151.583L55.8464 152.079L54.9777 151.583C53.1563 154.777 51.1096 156.894 48.9447 158.017C46.807 159.126 44.4734 159.311 41.9456 158.499C41.3713 158.314 40.8062 158.12 40.361 157.955C40.1556 157.88 39.9805 157.812 39.8443 157.757C39.8214 157.692 39.7952 157.615 39.7657 157.524C39.6417 157.142 39.4826 156.589 39.2984 155.899C38.9311 154.521 38.4761 152.64 38.0202 150.579C36.3521 143.038 36.3181 142.948 28.9323 123.229L28.9304 123.224L23.0698 107.578C22.0952 104.977 21.5961 102.221 21.5961 99.4428C21.5961 98.2226 21.5638 97.0857 21.5106 96.2338C21.4842 95.8108 21.4517 95.4409 21.4125 95.1604C21.3934 95.0239 21.3692 94.8811 21.3357 94.7544C21.3196 94.6933 21.2933 94.6044 21.2506 94.5106L21.249 94.5072C21.2241 94.4522 21.1112 94.203 20.837 94.0338C20.4636 93.8032 20.0865 93.886 20.0057 93.9037L20.0026 93.9044C19.8612 93.9353 19.7342 93.9867 19.6411 94.0288C19.4473 94.1165 19.2321 94.2422 19.0193 94.3791C18.5852 94.6584 18.0512 95.0559 17.5128 95.5053L17.5127 95.5054C17.0059 95.9286 16.5293 96.3099 16.1718 96.5823C16.1164 96.6245 16.0648 96.6635 16.017 96.699C15.7238 96.5489 15.3159 96.3316 14.8268 96.066C13.8433 95.5318 12.5532 94.8137 11.259 94.0824C9.9648 93.3512 8.67104 92.6095 7.68005 92.028C7.18384 91.7369 6.7681 91.4887 6.46765 91.3032C6.34251 91.2259 6.24179 91.1623 6.16569 91.1126L99.3121 90.2559L100.286 90.0636M99.3048 90.2572L99.3063 90.2569C99.3116 90.2471 99.3149 90.24 99.3168 90.2354C99.3169 90.2349 99.3169 90.2351 99.3167 90.2357C99.3161 90.2378 99.3139 90.245 99.3121 90.2558L100.286 90.0636M99.3048 90.2572C99.3048 90.2573 99.3048 90.2573 99.3048 90.2574L99.3063 90.2571L98.2154 78.3465M99.3048 90.2572C98.7142 87.2676 98.1684 84.3551 97.7833 82.1759C97.5909 81.0874 97.4377 80.1762 97.339 79.528C97.2899 79.2059 97.2526 78.9377 97.231 78.7415C97.2206 78.6466 97.2115 78.5487 97.2085 78.4629C97.2072 78.4239 97.2058 78.3564 97.2126 78.2809C97.2159 78.2453 97.2237 78.1739 97.2473 78.0886L97.248 78.0859C97.2619 78.0355 97.3288 77.7921 97.5596 77.5916L98.2154 78.3465M100.286 90.0636C99.1069 84.0948 98.1075 78.4403 98.2154 78.3465M100.286 90.0636C100.433 90.807 100.009 91.2559 95.9579 94.6533L98.2154 78.3465M6.11196 91.093L6.11213 91.0932L6.11196 91.093ZM6.11196 91.093C6.1696 91.1531 6.20822 91.211 6.22517 91.2389M6.11196 91.093L6.22517 91.2389M6.22517 91.2389C6.22569 91.2399 6.22618 91.2409 6.22663 91.2417C6.23836 91.2639 6.23753 91.2594 6.22517 91.2389ZM15.5667 10.1735L15.5667 10.1735L15.5667 10.1735Z" stroke="#E72434" stroke-width="2"/>
</svg>
