<svg width="186" height="165" viewBox="0 0 186 165" fill="none" xmlns="http://www.w3.org/2000/svg">
<path d="M138.509 6.14547L138.509 6.14558C137.574 8.60047 137.096 9.91872 136.819 11.0777C136.547 12.2141 136.463 13.2197 136.367 15.0688C136.205 18.1806 135.76 21.3616 135.151 24.0814C134.549 26.7646 133.763 29.1185 132.86 30.4903L132.025 29.9408L132.86 30.4904C131.706 32.2456 129.589 33.2014 127.3 33.2031C126.829 33.2034 126.362 33.1897 125.791 33.034C125.238 32.8834 124.636 32.6141 123.838 32.1752C122.257 31.3049 119.686 29.6397 114.855 26.4922C111.317 24.1874 108.788 22.4907 107.139 21.3084C106.318 20.7195 105.694 20.2436 105.269 19.8755C105.059 19.6939 104.871 19.5163 104.728 19.3482C104.657 19.2647 104.576 19.1602 104.509 19.0395C104.45 18.9346 104.347 18.7223 104.347 18.4456C104.347 18.2274 104.415 18.0498 104.439 17.9861C104.475 17.8944 104.519 17.8056 104.56 17.7278C104.643 17.5704 104.755 17.3879 104.882 17.1926C105.138 16.7983 105.5 16.2881 105.934 15.7024C106.805 14.5277 107.999 13.0077 109.31 11.4226C110.877 9.52544 112.035 8.05351 112.789 7.00429C113.071 6.61069 113.289 6.288 113.447 6.03213C113.235 6.00978 112.955 5.98727 112.585 5.96716C110.696 5.86445 106.993 5.83692 99.6588 5.79049L85.1117 5.69857L80.5487 9.97187L80.5487 9.97192C79.2221 11.214 78.0058 12.4031 77.1163 13.3159C76.6703 13.7736 76.3142 14.154 76.0694 14.4332C76.0393 14.4675 76.0116 14.4995 75.9861 14.5294C76.0036 14.5592 76.0232 14.5913 76.045 14.6257C76.229 14.9153 76.5127 15.2748 76.8479 15.6169C77.2578 16.0348 77.6155 16.4675 77.8593 16.8415C77.9767 17.0216 78.0971 17.2324 78.1721 17.4477C78.2087 17.5526 78.2546 17.714 78.2559 17.9038C78.2573 18.0944 78.2112 18.4269 77.9345 18.7031L77.9328 18.7048C77.7918 18.8449 77.6418 18.914 77.5799 18.9408C77.5007 18.9752 77.4255 18.9988 77.3671 19.015C77.2494 19.0475 77.1203 19.0719 76.9973 19.0912C76.7467 19.1305 76.4279 19.1629 76.0722 19.189C75.3556 19.2415 74.4212 19.2733 73.4369 19.2733C71.9053 19.2733 70.8815 19.2455 70.0092 19.0908C69.1009 18.9296 68.396 18.6388 67.4873 18.1943L67.4872 18.1942C66.2659 17.5967 64.3795 16.1817 63.2225 15.0221C62.6928 14.4912 62.1658 14.0142 61.7496 13.676C61.6674 13.6092 61.5919 13.5498 61.5234 13.4976C61.4058 13.5956 61.2673 13.7137 61.1081 13.8517C60.5328 14.3504 59.7244 15.0778 58.7391 15.9825C56.7706 17.7903 54.1164 20.288 51.2528 23.0382C46.6993 27.4118 44.0959 29.9492 42.5681 31.5752C41.0311 33.211 40.6906 33.8174 40.5184 34.3311C40.5184 34.3312 40.5184 34.3312 40.5184 34.3312L39.5702 34.0134L138.509 6.14547ZM138.509 6.14547C139.058 4.7049 139.575 3.36587 139.966 2.36947C140.161 1.87087 140.324 1.46042 140.443 1.16678C140.466 1.11183 140.486 1.06149 140.505 1.01583C140.569 1.00675 140.642 1.00065 140.719 1.00005C140.726 1.00611 140.736 1.0146 140.748 1.02621C140.781 1.05799 140.828 1.10907 140.89 1.18941C141.159 1.54134 141.524 2.20048 142.134 3.44282L143.032 3.00226L142.134 3.44285C144.101 7.44995 145.376 11.6554 145.862 15.7083L146.283 19.2093L146.487 20.9127L147.869 19.8952L148.839 19.1803C149.023 19.0448 149.254 18.9247 149.465 18.8488C149.53 18.8255 149.587 18.8087 149.634 18.7971C149.648 18.8082 149.663 18.8205 149.679 18.8341C149.836 18.965 150.048 19.1639 150.301 19.4246C150.804 19.9427 151.424 20.6529 152.03 21.4256L152.817 20.8081L152.031 21.4256L154.09 24.0489L154.107 27.3245C154.129 31.9338 155.133 36.3722 157.045 40.2459L157.941 39.8033L157.045 40.2459C157.913 42.0051 159.344 43.9065 160.928 45.56C162.51 47.2107 164.31 48.683 165.955 49.5352L167.699 50.4382L176.33 67.6355L185 84.9112V92.7439C185 96.7266 184.994 98.6911 184.883 99.8893C184.829 100.468 184.754 100.826 184.656 101.123C184.556 101.429 184.42 101.707 184.195 102.148C183.659 103.195 182.216 104.817 179.313 107.452C174.247 112.052 167.867 118.962 164.221 123.805C162.625 125.924 161.095 128.371 159.881 130.669C158.676 132.949 157.742 135.154 157.391 136.779L157.391 136.779C157.269 137.341 157.122 137.898 156.985 138.337C156.932 138.507 156.882 138.652 156.838 138.77C156.759 138.782 156.662 138.794 156.543 138.806C156.015 138.861 155.189 138.906 153.968 138.941C151.532 139.01 147.618 139.035 141.576 139.035H126.37L125.216 137.827C124.485 137.061 122.735 134.723 121.347 132.628L120.513 133.18L121.347 132.628C117.197 126.362 114.836 121.247 113.27 115.18C112.945 113.919 112.669 112.871 112.362 112.144C112.209 111.778 112.013 111.408 111.739 111.116C111.437 110.798 111.026 110.563 110.513 110.554C110.049 110.545 109.637 110.726 109.306 110.927C108.967 111.132 108.618 111.419 108.257 111.751C107.537 112.415 106.632 113.396 105.49 114.646C103.305 117.035 102.269 118.158 101.598 118.71C101.287 118.966 101.124 119.039 101.02 119.07C100.896 119.107 100.757 119.118 100.386 119.122C100.055 119.125 99.8995 119.097 99.8142 119.067C99.7623 119.048 99.7071 119.02 99.6212 118.906C99.5163 118.766 99.3839 118.519 99.2174 118.068C99.0533 117.623 98.8764 117.038 98.6591 116.257M138.509 6.14547L1.96039 65.6892L2.93158 65.9275C2.39672 68.1073 1.9098 70.1849 1.55638 71.7748C1.37952 72.5704 1.2371 73.2394 1.13901 73.7362C1.08985 73.9852 1.05301 74.1849 1.0287 74.3329C1.0203 74.384 1.01433 74.4237 1.01008 74.4535C1.01953 74.4833 1.03201 74.5207 1.04816 74.5667C1.10868 74.7389 1.20338 74.9819 1.33289 75.2944C1.59075 75.9166 1.96848 76.7709 2.44014 77.7991C3.38236 79.8532 4.68621 82.5732 6.12353 85.4608L5.2283 85.9064L6.12354 85.4609C9.00085 91.2419 11.989 97.5652 12.7536 99.5032C15.9333 107.562 17.2377 114.203 16.8656 120.743C16.7947 121.992 16.7491 122.828 16.7941 123.432C16.8387 124.03 16.9595 124.16 17.0092 124.204C17.0985 124.283 17.3492 124.417 18.1263 124.49C18.8775 124.561 19.9059 124.561 21.3738 124.561H25.0532L25.8825 123.565L25.8825 123.565C27.2765 121.89 29.495 119.649 31.7077 117.6C33.9135 115.558 36.1779 113.647 37.6681 112.66C43.4747 108.812 47.7257 107.21 59.8738 104.181C70.4669 101.541 78.3107 100.569 83.2858 101.406C90.8866 102.683 96.3841 108.079 98.6591 116.257M98.6591 116.257L97.6957 116.525M98.6591 116.257L97.6957 116.525M97.6957 116.525C98.5694 119.664 98.924 120.137 100.396 120.122C101.828 120.108 101.921 120.031 106.228 115.32L26.6512 124.204C29.3592 120.951 35.3824 115.374 38.2205 113.493C43.8833 109.741 48.0017 108.171 60.1157 105.152C70.7023 102.513 78.3676 101.593 83.12 102.392C90.2821 103.596 95.5086 108.663 97.6957 116.525ZM153.605 162.937C153.826 162.381 154.76 159.022 155.68 155.472C157.274 149.321 157.323 148.984 156.725 148.326C156.132 147.673 155.458 147.634 144.717 147.634H133.338M153.605 162.937L152.676 162.567C152.676 162.567 152.676 162.567 152.676 162.567M153.605 162.937C153.049 164.332 151.949 165.003 150.225 165C148.993 164.997 148.249 164.619 145.514 162.601M153.605 162.937L152.676 162.567M152.676 162.567C152.761 162.352 153.033 161.441 153.417 160.06C153.792 158.713 154.254 156.992 154.712 155.221C155.517 152.114 155.908 150.562 156.035 149.695C156.097 149.274 156.076 149.13 156.068 149.098M152.676 162.567C152.465 163.096 152.179 163.427 151.832 163.639C151.473 163.858 150.963 164.001 150.227 164C149.761 163.999 149.423 163.938 148.887 163.665C148.29 163.361 147.484 162.812 146.108 161.796L145.514 162.601M156.068 149.098C156.069 149.099 156.069 149.1 156.07 149.101L156.071 149.102C156.071 149.102 156.07 149.1 156.069 149.098C156.068 149.095 156.067 149.094 156.067 149.094C156.067 149.094 156.067 149.095 156.068 149.096C156.068 149.097 156.068 149.097 156.068 149.098ZM156.068 149.098C156.061 149.087 156.041 149.06 155.985 148.998L155.984 148.998C155.981 148.994 155.977 148.99 155.974 148.986C155.937 148.945 155.925 148.931 155.818 148.899C155.626 148.841 155.253 148.779 154.469 148.733C152.92 148.644 150.104 148.634 144.717 148.634H133.877M133.877 148.634L134.173 148.184L133.338 147.634M133.877 148.634L133.577 149.09L132.742 148.541M133.877 148.634H133.338V147.634M133.338 147.634L132.742 148.541M145.514 162.601L146.108 161.796C142.457 159.102 136.59 153.551 134.439 150.775C134.069 150.298 133.811 149.961 133.63 149.7C133.509 149.525 133.445 149.416 133.413 149.352M145.514 162.601L133.413 149.352M133.413 149.352C133.415 149.348 133.418 149.343 133.421 149.338C133.456 149.276 133.505 149.2 133.577 149.09L132.742 148.541M133.413 149.352L132.742 148.541M133.413 149.352C133.409 149.358 133.406 149.363 133.404 149.368C133.396 149.382 133.39 149.394 133.385 149.403C133.378 149.418 133.376 149.424 133.377 149.423C133.379 149.417 133.388 149.388 133.388 149.345C133.389 149.306 133.382 149.283 133.382 149.283L133.382 149.283C133.386 149.295 133.394 149.317 133.413 149.352ZM76.8333 17.0875C76.8332 17.0875 76.8331 17.0876 76.833 17.0876L76.8333 17.0875ZM113.729 5.50726C113.731 5.49609 113.734 5.49008 113.734 5.48993C113.734 5.48978 113.733 5.49531 113.729 5.50726ZM149.507 18.7059C149.508 18.7059 149.512 18.7079 149.519 18.7128C149.511 18.7086 149.507 18.706 149.507 18.7059ZM0.986138 74.3686C0.986321 74.3688 0.987472 74.3734 0.989039 74.3816C0.986739 74.3725 0.985955 74.3684 0.986138 74.3686Z" stroke="#E72434" stroke-width="2"/>
</svg>
