<svg width="205" height="107" viewBox="0 0 205 107" fill="none" xmlns="http://www.w3.org/2000/svg">
<path d="M82.1181 9.35815L82.118 9.35818C78.9964 10.5209 75.1627 12.7113 70.1829 16.2206L69.6104 15.4082L70.1829 16.2206C65.5545 19.4819 62.7314 21.3451 60.2229 22.1161C57.6078 22.9198 55.4012 22.5227 52.1492 21.6555C48.6384 20.7195 47.3663 20.5674 42.7891 20.5662M82.1181 9.35815L98.1636 104.979C97.0666 105.524 96.4675 105.774 95.879 105.897C95.2924 106.018 94.6554 106.025 93.4563 105.956C92.4019 105.896 91.6604 105.789 90.9077 105.563C90.144 105.334 89.327 104.971 88.1322 104.349L88.1322 104.349C83.3211 101.848 76.3583 97.4103 71.2392 93.5781L70.6399 94.3787L71.2392 93.5781C61.5405 86.318 57.5185 84.1124 51.6494 83.0864C50.1002 82.8156 48.2049 82.8074 46.3868 82.9964C44.5714 83.1852 42.7523 83.5792 41.3659 84.1606L41.7527 85.0828L41.3659 84.1606C41.0531 84.2918 40.7596 84.4193 40.524 84.5519C40.3008 84.6775 39.9923 84.8804 39.7941 85.2255C39.5671 85.6211 39.5835 86.0194 39.6508 86.3186C39.7103 86.5837 39.8292 86.8548 39.9321 87.0814L39.9321 87.0815C40.0796 87.4064 40.3429 87.6879 40.5641 87.8974C40.8087 88.129 41.1092 88.3706 41.4363 88.6105C42.0925 89.0917 42.9166 89.6104 43.7591 90.0864C44.6022 90.5628 45.4854 91.0087 46.2641 91.3389C46.6529 91.5038 47.0286 91.6454 47.3683 91.7474C47.6905 91.8441 48.0494 91.9268 48.3803 91.9268C49.1704 91.9268 50.0867 92.332 50.8251 93.0089C51.5718 93.6936 51.9679 94.4972 51.9679 95.1329C51.9679 95.9413 51.8164 96.2584 51.5764 96.4901C51.2568 96.7988 50.6237 97.1094 49.2612 97.4896L49.2611 97.4896C48.3028 97.7572 47.5548 98.0182 46.9489 98.3993C46.3058 98.8038 45.8848 99.3026 45.4999 99.9277L45.4998 99.9279C45.0803 100.61 44.2792 101.338 43.2169 101.956C42.1662 102.568 40.9336 103.028 39.7301 103.226L39.73 103.226C38.5617 103.417 37.0882 103.699 36.4466 103.857C35.4809 104.094 35.0847 104.01 34.7947 103.819C34.412 103.567 33.9701 102.977 33.3141 101.583L33.3141 101.583C32.8194 100.532 32.3547 99.7146 31.7629 98.9837C31.1695 98.251 30.4806 97.6449 29.582 96.9786C27.9614 95.7768 27.3087 95.0913 27.0846 94.527C26.9052 94.0754 26.9405 93.5241 27.5321 92.2726C27.6901 91.9384 27.8353 91.6301 27.9313 91.3674C28.0254 91.1097 28.1247 90.7638 28.0715 90.3798C28.0131 89.958 27.7971 89.6554 27.5912 89.4399C27.4082 89.2484 27.1681 89.0612 26.9495 88.8907L26.9424 88.8852L26.9424 88.8852C26.1469 88.265 24.8735 87.7309 23.6024 87.3542C22.3122 86.9718 20.8781 86.7087 19.6962 86.7087C19.1112 86.7087 17.9754 86.89 16.7021 87.1412C15.389 87.4004 13.8212 87.7568 12.3113 88.1487C8.42208 89.1581 5.99886 89.581 4.37821 89.4863C3.59381 89.4404 3.05046 89.2747 2.63693 89.0319C2.22556 88.7904 1.87326 88.4318 1.53255 87.8903L1.53249 87.8902C1.10039 87.2035 0.875259 86.1106 1.07149 84.2848C1.26656 82.4698 1.86216 80.069 2.90907 76.8892C4.47242 72.141 6.77509 67.3099 17.8228 45.7031C18.9745 43.4508 20.8886 39.2774 22.0853 36.4117L22.0853 36.4117C24.0297 31.7549 25.7241 28.6732 27.7222 26.4291C29.6988 24.2091 32.0252 22.7512 35.342 21.4434L35.342 21.4434C36.3457 21.0476 37.0289 20.8403 38.0156 20.7207C39.0439 20.5961 40.4107 20.5658 42.7891 20.5662M82.1181 9.35815C83.5321 8.83134 85.4341 8.60988 87.3813 8.71529C89.3273 8.82065 91.2159 9.24696 92.6049 9.92926L92.6051 9.92934C95.3263 11.2655 99.5562 14.6227 105.011 19.8652L105.704 19.1442L105.011 19.8652C107.529 22.2857 109.241 23.829 110.951 25.0377C112.673 26.2554 114.363 27.1128 116.814 28.2004L117.22 27.2864L116.814 28.2005C119.191 29.2552 123.787 30.7316 127.825 31.8639C129.851 32.4324 131.764 32.9216 133.215 33.2328C133.937 33.3875 134.568 33.5031 135.049 33.5601C135.286 33.5881 135.52 33.6061 135.724 33.5999C135.826 33.5968 135.953 33.5872 136.085 33.5564C136.192 33.5315 136.443 33.4626 136.659 33.246L136.661 33.244C136.829 33.0738 136.895 32.8893 136.919 32.8096C136.948 32.7148 136.96 32.6313 136.966 32.5775C136.977 32.4691 136.974 32.3658 136.97 32.2894C136.961 32.1297 136.937 31.9442 136.905 31.7569C136.842 31.3751 136.735 30.8901 136.601 30.387L136.601 30.3867M82.1181 9.35815L136.601 30.3867M42.7891 20.5662L42.7894 19.5662M42.7891 20.5662L42.7894 19.5662M42.7894 19.5662C38.052 19.5654 37.0806 19.6828 34.9752 20.5131L81.769 8.42107C78.5279 9.62826 74.612 11.8761 69.6069 15.4032C60.2683 21.9834 58.8714 22.413 52.4068 20.6893C48.7947 19.7263 47.4334 19.5674 42.7894 19.5662ZM176.92 78.5384L177.063 77.5487C178.726 77.7901 179.421 77.8738 179.818 77.8383C179.962 77.8255 180.008 77.7999 180.04 77.7805C180.104 77.7413 180.191 77.6687 180.401 77.4583C180.685 77.1731 180.971 76.4288 181.023 75.488C181.047 75.0484 181.015 74.6332 180.937 74.298C180.855 73.9456 180.744 73.7721 180.685 73.713C180.686 73.7142 180.507 73.5833 179.968 73.4364C179.484 73.3046 178.844 73.1944 178.101 73.1298C176.606 72.9998 175.453 72.8001 174.445 72.3664C173.417 71.9237 172.615 71.2712 171.76 70.3681C171.232 69.8109 170.755 69.1828 170.596 68.4669C170.414 67.6519 170.679 66.922 171.21 66.3045C171.702 65.7319 172.457 65.2092 173.401 64.6817C174.362 64.145 175.604 63.5573 177.145 62.8806C179.177 61.9881 180.409 61.254 181.133 60.5415C181.798 59.8867 182.044 59.2442 182.044 58.3886C182.044 57.7407 181.826 57.1441 181.501 56.7185C181.173 56.2879 180.794 56.0985 180.479 56.0842L180.524 55.0852L180.479 56.0842C180.032 56.0639 178.223 56.0767 176.444 56.1159C175.486 56.1371 174.671 56.143 173.993 56.0577C173.293 55.9696 172.656 55.7757 172.099 55.3389C171.555 54.9128 171.183 54.3292 170.865 53.6498C170.548 52.9747 170.244 52.1119 169.887 51.0576C168.679 47.4918 167.825 46.168 166.113 44.8188L166.113 44.8187C164.981 43.9267 164.177 43.4383 163.258 43.1371C162.32 42.8295 161.191 42.6932 159.366 42.6297C158.543 42.6009 157.897 42.5768 157.404 42.5421C156.933 42.5089 156.505 42.4613 156.168 42.3521C155.785 42.2284 155.34 41.9625 155.167 41.4026C155.053 41.0332 155.114 40.6426 155.142 40.4585C155.144 40.4468 155.146 40.4359 155.147 40.426L155.147 40.4257C155.298 39.4235 155.575 38.5531 156.395 37.8594C157.124 37.2421 158.199 36.8494 159.625 36.4224C160.713 36.0963 161.526 35.8007 162.115 35.5099C162.714 35.214 162.99 34.9675 163.111 34.7892C163.202 34.6568 163.248 34.5078 163.194 34.2251C163.131 33.8973 162.938 33.441 162.543 32.7921L162.543 32.792C162.046 31.9738 161.537 31.5306 160.598 31.2495C159.556 30.9374 157.986 30.8272 155.345 30.8576L155.333 29.8577L155.345 30.8576C153.317 30.8807 151.999 30.8608 150.703 30.6787C149.405 30.4963 148.164 30.1559 146.286 29.5833C143.993 28.8843 141.084 28.2217 139.849 28.0998L176.92 78.5384ZM176.92 78.5384L177.063 77.5487C174.693 77.2047 169.814 77.055 164.664 77.0752C159.494 77.0955 153.954 77.2879 150.229 77.6476C131.769 79.4305 119.095 84.7752 109.151 95.1347C102.346 102.225 100.547 103.794 98.1637 104.979L176.92 78.5384ZM136.601 30.3867C136.486 29.9553 136.418 29.6812 136.384 29.4762C136.36 29.3315 136.363 29.2691 136.365 29.2512C136.372 29.2382 136.392 29.2084 136.438 29.1565C136.543 29.0397 136.707 28.8916 137 28.6381M136.601 30.3867L137 28.6381M137 28.6381C137.515 28.194 137.704 28.0943 137.934 28.0446M137 28.6381L137.934 28.0446M137.934 28.0446C138.245 27.9776 138.714 27.9881 139.848 28.0997L137.934 28.0446ZM180.587 5.01181C184.279 3.44232 188.208 1.92734 189.332 1.62406C192.679 0.720984 195.295 0.818584 197.366 1.78332C199.433 2.74574 201.13 4.65206 202.474 7.72848C204.747 12.9308 204.308 16.4949 202.302 18.4905C200.224 20.558 196.042 21.4129 189.739 20.1286C186.913 19.5528 185.477 19.1279 183.935 17.9119C182.316 16.6345 180.558 14.4682 177.284 10.2069L175.088 7.34896L180.587 5.01183L180.196 4.09275L180.587 5.01181ZM136.361 29.2589C136.361 29.2589 136.361 29.2574 136.363 29.2541C136.362 29.2573 136.361 29.259 136.361 29.2589Z" stroke="#E72434" stroke-width="2"/>
</svg>
