<svg width="224" height="126" viewBox="0 0 224 126" fill="none" xmlns="http://www.w3.org/2000/svg">
<path d="M182.898 1.56144L182.897 1.56157C180.655 2.79522 177.94 5.80656 175.864 9.54721C172.273 16.0188 169.367 20.3434 164.399 25.0815C159.466 29.7859 152.516 34.883 140.889 42.9505C131.428 49.5148 125.054 54.7956 121.488 58.9671C119.781 60.9636 118.246 62.3156 116.143 63.2571C114.078 64.182 111.534 64.678 107.884 65.1141C103.97 65.5818 101.383 66.3304 99.5999 67.5229C97.8656 68.6828 96.789 70.3338 96.0585 72.8708L96.0584 72.8709C95.325 75.4163 94.4081 77.6954 93.3816 79.5517C92.3638 81.3922 91.2001 82.8869 89.9401 83.7835C87.7286 85.3574 84.8302 85.8832 81.2988 85.5162C77.7717 85.1496 73.5181 83.8843 68.4797 81.7607C67.6424 81.4079 66.8561 81.0898 66.1736 80.8252C66.8083 81.7616 67.6265 82.9105 68.5173 84.1201C70.5475 86.8771 72.9063 89.8843 74.2809 91.3718C76.4007 93.6652 77.9043 94.898 79.9465 95.6494C82.0433 96.4208 84.7883 96.7165 89.4785 96.8989C93.8731 97.0696 96.1279 97.0746 98.1906 96.5022C100.253 95.9298 102.186 94.7627 105.869 92.3503C108.772 90.4485 110.721 89.31 112.746 88.9485C114.797 88.5823 116.809 89.032 119.762 89.8946C123.387 90.9533 125.851 91.2572 131.247 91.274C134.617 91.284 136.302 91.2641 137.628 91.0282C138.906 90.8008 139.871 90.3687 141.801 89.4196L141.801 89.4195C149.553 85.6078 154.06 78.933 161.214 59.6093C164.885 49.694 167.205 45.6252 171.022 43.4744C172.675 42.5425 174.277 42.0521 176.181 42.0425C178.049 42.0331 180.152 42.4872 182.808 43.3375L182.808 43.3376C185.485 44.1947 188.968 44.6612 192.329 44.7026C195.707 44.7443 198.835 44.3551 200.833 43.5871C206.941 41.2401 213.923 36.2952 220.36 29.6905L222.525 27.4685L221.175 26.3558L221.81 25.5839L221.174 26.3557C220.041 25.422 217.016 23.4732 214.462 22.0501L214.462 22.05C208.181 18.5487 204.609 16.49 202.067 14.5745C199.482 12.6255 197.971 10.8312 195.775 7.92805L196.572 7.32472L195.775 7.92798C191.986 2.91911 188.968 0.979173 186.118 1.00017L182.898 1.56144ZM182.898 1.56144C183.084 1.45886 183.534 1.31256 184.183 1.19236M182.898 1.56144L184.183 1.19236M184.183 1.19236C184.801 1.07767 185.5 1.00484 186.118 1.00017L184.183 1.19236Z" stroke="#E72434" stroke-width="2"/>
<path d="M2.08247 45.6899C2.59757 48.1173 3.25118 51.3159 3.91928 54.7006C7.70214 73.8618 8.15403 75.6974 10.3966 81.445C15.7551 95.1774 25.2481 106.439 39.6723 116.079C46.8076 120.847 52.6028 123.665 57.0447 124.627C61.4578 125.582 64.2997 124.677 65.9734 122.322C66.5215 121.55 66.8201 120.995 66.9393 120.437C67.0539 119.901 67.0236 119.256 66.6966 118.283C66.0144 116.254 64.1907 113.193 60.5907 107.511C58.7888 104.667 56.5723 100.121 55.6463 97.3533C54.8703 95.0342 54.4345 93.5662 54.2049 91.2811C53.9803 89.0468 53.9523 86.0263 53.942 80.5922C53.9313 74.8711 53.9171 72.0364 53.7093 70.2009C53.513 68.4674 53.1545 67.6872 52.3469 66.0392C51.2425 63.7859 49.2873 61.1491 47.0564 58.7807C44.8221 56.4088 42.3862 54.3856 40.3635 53.3059C36.8601 51.4364 30.5972 50.0035 22.3145 49.2805C22.3145 49.2805 22.3145 49.2805 22.3144 49.2805L22.4014 48.2843C12.1206 47.3871 6.72132 45.7504 1.77848 42.0331C1.54699 41.8591 1.34093 41.7077 1.1587 41.5784L2.08247 45.6899ZM2.08247 45.6899C1.86674 44.6733 1.67485 43.7897 1.51607 43.0833L2.08247 45.6899Z" stroke="#E72434" stroke-width="2"/>
</svg>
