<svg width="110" height="165" viewBox="0 0 110 165" fill="none" xmlns="http://www.w3.org/2000/svg">
<path d="M91.584 10.9071L91.5844 10.907C91.9807 10.8751 92.2411 10.9113 92.4415 10.9878C92.6347 11.0617 92.8485 11.2023 93.1029 11.5051C93.6558 12.1634 94.2525 13.3967 95.1157 15.677C95.6379 17.0564 96.191 18.1266 96.9643 18.9549C97.7537 19.8005 98.7035 20.3214 99.8885 20.7262C102.122 21.4897 102.971 22.3781 103.169 23.3112C103.388 24.3485 102.934 25.9217 101.309 28.3431C100.454 29.6166 99.9134 30.4228 99.6534 31.1034C99.3461 31.9077 99.4237 32.5382 99.5206 33.2864C99.6785 34.5057 100.504 36.1075 101.641 37.794C102.808 39.526 104.404 41.4909 106.272 43.4684L106.272 43.4685C106.86 44.0913 107.394 44.6795 107.815 45.1642C107.249 45.2439 106.565 45.3277 105.834 45.404L105.834 45.4041C100.69 45.9425 94.6155 47.221 89.1918 48.7786C83.7973 50.3279 78.9272 52.1867 76.2599 53.9276L76.8065 54.765L76.2599 53.9276C73.706 55.5946 71.9276 57.4831 70.9185 59.9016C69.9164 62.3031 69.721 65.1138 70.1135 68.5387C70.7621 74.1969 72.6386 82.8918 76.1613 96.6321C79.3606 109.112 80.0014 113.446 79.6248 119.348C79.1352 127.023 77.7224 131.908 73.8438 139.271C71.913 142.937 69.3727 146.868 66.9034 150.154C64.4065 153.477 62.0699 156.022 60.5578 157.027L61.1113 157.86L60.5577 157.027C58.3467 158.497 55.3487 159.06 50.3876 158.681C41.2159 157.98 34.172 158.539 21.9326 160.911L22.1229 161.893L21.9326 160.911C16.8693 161.893 12.8108 162.608 9.69047 163.068C6.55042 163.531 4.4194 163.726 3.17995 163.691C2.46649 163.67 1.80199 163.64 1.30802 163.609C1.28413 163.608 1.26072 163.606 1.23778 163.605C1.23489 163.379 1.23957 163.113 1.25382 162.829C1.28965 162.119 1.61229 161.091 2.26616 159.834C2.90961 158.596 3.83408 157.213 4.98316 155.809C6.64278 153.782 7.75051 151.999 8.27078 150.25C8.80284 148.462 8.69992 146.782 8.07508 145.018L8.075 145.018L7.64808 143.814L8.00341 143.582L8.00365 143.582C8.40647 143.319 9.14055 143.144 10.4645 143.258C14.1938 143.579 17.571 143.071 24.8719 141.191C29.8284 139.915 32.6208 139.264 34.8385 139.052C37.0044 138.844 38.6413 139.054 41.3009 139.588C45.5305 140.437 49.2992 139.598 51.881 136.985C52.5172 136.341 52.9453 135.812 53.4544 134.751C53.9333 133.752 54.5003 132.247 55.4476 129.662C56.0763 127.946 56.424 127.054 57.0457 125.951C57.6827 124.822 58.6105 123.465 60.4263 120.85C64.2433 115.354 66.5126 111.731 67.6581 108.599C68.8324 105.388 68.8127 102.735 68.225 99.2406L68.225 99.2405C67.9604 97.6683 67.1422 91.9399 66.4066 86.5051L65.4157 86.6392L66.4066 86.505C65.6714 81.0752 64.755 74.8844 64.3688 72.7489L63.3847 72.9269L64.3688 72.7489C63.2525 66.5782 60.8788 59.0068 58.1963 53.0542C56.9593 50.309 56.2164 48.4513 55.8552 47.1615C55.4806 45.8235 55.5974 45.3593 55.6962 45.1862C55.7464 45.0982 55.9416 44.8564 56.8552 44.7945C57.7496 44.7339 59.0757 44.8687 60.9618 45.2427C62.8018 45.6076 64.2904 45.7878 65.414 45.7456C66.4491 45.7068 67.5798 45.4653 68.1141 44.529C68.2592 44.2748 68.2969 43.9914 68.3127 43.8373C68.3325 43.6435 68.3355 43.4298 68.3282 43.2159C68.3136 42.786 68.2544 42.2804 68.1561 41.7895C68.0078 41.0487 67.9772 39.1234 68.1264 37.5467C68.3147 35.5587 68.3418 34.0698 68.0332 32.9268C67.6945 31.6728 66.974 30.8994 65.9305 30.3039C65.0953 29.8273 63.4421 29.1991 62.2152 28.8708L62.2148 28.8707C61.0607 28.5624 59.9507 28.0565 59.0355 27.4536C58.1086 26.8431 57.444 26.1747 57.1048 25.5752L57.1047 25.575C57.0029 25.3952 56.8826 25.0207 56.8108 24.361C56.7412 23.7213 56.7251 22.8938 56.7716 21.8709C56.8535 20.0684 56.736 16.3455 56.5152 13.5749L56.5152 13.5749C56.2012 9.63556 56.0352 7.0399 56.0052 5.33126C55.9901 4.4759 56.0099 3.87232 56.0559 3.44784C56.104 3.00401 56.1723 2.85068 56.187 2.82499L56.187 2.82493C56.3632 2.51719 56.8065 2.11543 57.444 1.78836C58.0711 1.46664 58.7225 1.30189 59.195 1.31965C59.7827 1.34184 60.1943 1.40575 61.1595 1.90153C62.1922 2.4319 63.7604 3.40815 66.6426 5.24568L66.6427 5.2457C75.2011 10.7017 81.5215 12.5186 88.6214 11.3163L88.6215 11.3163C89.6934 11.1347 91.0319 10.9513 91.584 10.9071Z" stroke="#E72434" stroke-width="2"/>
</svg>
