<svg width="241" height="118" viewBox="0 0 241 118" fill="none" xmlns="http://www.w3.org/2000/svg">
<mask id="path-1-inside-1_264_266" fill="white">
<path fill-rule="evenodd" clip-rule="evenodd" d="M0.48113 0.0719062C0.325573 1.08349 7.32089 20.7106 10.4941 28.1645C16.8565 43.1104 24.4465 54.5705 35.6048 66.0788C37.1398 67.6624 39.9816 71.0211 41.9197 73.5429C45.7689 78.5519 49.0512 81.2874 54.0473 83.6488C56.845 84.9712 82.2008 93.2638 95.2586 97.1269C100.394 98.6465 116.237 101.178 119.002 100.92L120.969 100.737L116.227 97.9357C107.397 92.7194 96.5358 88.0253 79.6542 82.1295C67.3116 77.8188 48.148 70.774 47.9225 70.4643C47.8345 70.344 48.4376 67.5807 49.2622 64.3245C51.8427 54.1339 51.0652 50.2956 44.6227 41.4061C37.4998 31.5774 30.2019 24.3033 13.315 10.1987C2.78703 1.4054 0.547808 -0.361698 0.48113 0.0719062ZM111.94 23.5059C109.916 23.8018 107.825 25.6929 105.526 29.3042C101.996 34.8506 99.0977 37.1968 94.5912 38.1549C91.3175 38.8508 84.2373 37.6539 78.448 35.426C72.926 33.3009 71.6094 33.0534 70.0265 33.841C69.1345 34.2844 68.7535 34.9272 68.5331 36.3606C68.1878 38.606 69.4239 47.1357 70.6463 50.9406C73.5894 60.1046 76.7981 62.8398 88.8533 66.461C92.6072 67.5889 97.0178 69.0536 98.6548 69.7157C103.482 71.6698 104.983 70.8371 107.46 64.8346C108.372 62.6228 109.996 59.7781 111.123 58.4174C112.236 57.0732 113.72 54.8216 114.421 53.4139C117.363 47.5025 119.545 45.6854 123.054 46.225C124.221 46.4044 125.196 46.42 125.22 46.259C125.245 46.0985 124.518 44.8034 123.604 43.3804C121.375 39.9091 120.699 37.1485 120.891 32.3052C121.068 27.8622 120.51 26.013 118.677 24.9676C116.815 23.9063 113.75 23.2411 111.94 23.5059ZM174.097 45.6479C170.649 48.0904 168.58 51.4558 168.014 55.5413C167.477 59.4179 168.579 67.1311 169.565 66.3879C170.424 65.7391 175.451 59.1559 176.486 57.3236C178.198 54.2905 178.611 49.1856 177.39 46.1468L176.505 43.9426L174.097 45.6479ZM155.869 47.539C154.398 47.729 150.298 47.3446 144.344 46.4585C134.901 45.054 131.174 45.0084 128.44 46.2647C127.732 46.5897 126.76 46.813 126.28 46.7606C125.767 46.7048 125.642 46.8063 125.976 47.006C126.889 47.5511 126.096 51.0241 123.306 58.7068C120.389 66.7401 119.957 68.7312 120.671 70.8714C121.352 72.9144 123.376 74.4595 128.206 76.623C131.485 78.0921 132.388 78.7183 132.75 79.7779C133.442 81.8046 134.973 83.4774 136.937 84.3515C138.95 85.2476 139.893 85.1767 141.681 83.9954C144.049 82.4312 143.687 77.5132 140.778 71.7241C138.152 66.4964 139.285 63.8608 144.205 63.7551C145.833 63.7205 147.325 63.3898 147.67 62.988C148.51 62.0099 148.212 59.7599 147.029 58.1346C146.19 56.9832 145.564 56.7001 142.976 56.302C141.292 56.0431 138.353 56.032 136.444 56.2771L132.974 56.7229L131.984 55.3638C129.592 52.0783 131.732 51.491 141.9 52.6429C148.645 53.407 150.015 53.4239 151.832 52.764C154.545 51.7794 155.286 51.3199 157.216 49.4274C159.599 47.091 159.577 47.0611 155.869 47.539ZM183.346 59.7442C183.274 60.2125 190.935 75.05 192.615 77.6944C194.653 80.9045 198.189 84.5447 200.95 86.2758C202.087 86.9893 205.812 88.5906 209.227 89.835C216.149 92.3573 220.476 94.9109 221.784 97.2462C222.6 98.7027 222.587 99.1264 221.57 103.926C219.93 111.673 220.68 112.889 228.546 115.225C231.294 116.041 233.974 116.929 234.502 117.198C235.45 117.682 235.497 117.517 238.187 104.169C242.803 81.2622 242.979 81.5788 221.878 74.7867L218.37 73.657L218.06 71.2523C217.544 67.2474 215.922 66.3913 209.624 66.799C206.503 67.0013 205.896 66.8624 195.927 63.6662C190.19 61.8266 185.021 60.1346 184.44 59.906C183.86 59.6779 183.367 59.6052 183.346 59.7442Z"/>
</mask>
<path d="M10.4941 28.1645L12.3343 27.3811L12.3343 27.3811L10.4941 28.1645ZM35.6048 66.0788L37.0408 64.6868L37.0406 64.6866L35.6048 66.0788ZM41.9197 73.5429L43.5055 72.3243L43.5055 72.3242L41.9197 73.5429ZM54.0473 83.6488L54.902 81.8406L54.9019 81.8406L54.0473 83.6488ZM95.2586 97.1269L95.826 95.2091L95.8259 95.2091L95.2586 97.1269ZM119.002 100.92L118.817 98.9285L118.817 98.9285L119.002 100.92ZM120.969 100.737L121.154 102.728L127.303 102.156L121.986 99.0149L120.969 100.737ZM116.227 97.9357L117.245 96.2138L117.245 96.2137L116.227 97.9357ZM79.6542 82.1295L78.9948 84.0176L79.6542 82.1295ZM47.9225 70.4643L49.5393 69.287L49.5365 69.2832L47.9225 70.4643ZM49.2622 64.3245L51.201 64.8155L51.201 64.8155L49.2622 64.3245ZM44.6227 41.4061L43.0033 42.5798L43.0033 42.5798L44.6227 41.4061ZM13.315 10.1987L14.5971 8.66372L14.5971 8.66371L13.315 10.1987ZM111.94 23.5059L112.23 25.4848L112.23 25.4848L111.94 23.5059ZM105.526 29.3042L107.214 30.378L107.214 30.3779L105.526 29.3042ZM94.5912 38.1549L95.007 40.1112L95.0071 40.1112L94.5912 38.1549ZM78.448 35.426L77.7297 37.2926L77.7297 37.2926L78.448 35.426ZM70.0265 33.841L70.9168 35.6319L70.9175 35.6315L70.0265 33.841ZM70.6463 50.9406L72.5505 50.3291L72.5504 50.3289L70.6463 50.9406ZM88.8533 66.461L89.4287 64.5456L89.4286 64.5456L88.8533 66.461ZM98.6548 69.7157L99.4053 67.8618L99.4047 67.8615L98.6548 69.7157ZM107.46 64.8346L109.309 65.5973L109.309 65.5972L107.46 64.8346ZM111.123 58.4174L112.663 59.6933L112.664 59.693L111.123 58.4174ZM114.421 53.4139L112.63 52.5228L112.63 52.5228L114.421 53.4139ZM123.604 43.3804L125.287 42.3L125.287 42.2997L123.604 43.3804ZM120.891 32.3052L118.893 32.2257L118.893 32.2257L120.891 32.3052ZM118.677 24.9676L119.668 23.2302L119.667 23.2301L118.677 24.9676ZM174.097 45.6479L172.941 44.0159L172.941 44.0159L174.097 45.6479ZM168.014 55.5413L166.032 55.2669L166.032 55.267L168.014 55.5413ZM169.565 66.3879L170.769 67.9846L170.769 67.9845L169.565 66.3879ZM176.486 57.3236L178.227 58.3069L178.227 58.3068L176.486 57.3236ZM177.39 46.1468L175.534 46.8923L175.534 46.8926L177.39 46.1468ZM176.505 43.9426L178.36 43.1971L177.416 40.8461L175.349 42.3106L176.505 43.9426ZM155.869 47.539L155.614 45.5554L155.613 45.5555L155.869 47.539ZM144.344 46.4585L144.638 44.4803L144.638 44.4803L144.344 46.4585ZM128.44 46.2647L129.275 48.0822L129.275 48.0821L128.44 46.2647ZM126.28 46.7606L126.497 44.7724L126.496 44.7724L126.28 46.7606ZM125.976 47.006L127.002 45.2889L127.001 45.2888L125.976 47.006ZM123.306 58.7068L125.186 59.3895L125.186 59.3895L123.306 58.7068ZM120.671 70.8714L118.774 71.5041L118.774 71.5041L120.671 70.8714ZM128.206 76.623L129.024 74.7978L129.024 74.7978L128.206 76.623ZM132.75 79.7779L130.857 80.4244L130.857 80.4245L132.75 79.7779ZM136.937 84.3515L137.751 82.5244L137.751 82.5243L136.937 84.3515ZM141.681 83.9954L142.783 85.6643L142.784 85.6641L141.681 83.9954ZM140.778 71.7241L138.991 72.622L138.991 72.622L140.778 71.7241ZM144.205 63.7551L144.162 61.7556L144.162 61.7556L144.205 63.7551ZM147.67 62.988L149.187 64.2917L149.188 64.2906L147.67 62.988ZM147.029 58.1346L145.412 59.3119L147.029 58.1346ZM136.444 56.2771L136.19 54.2934L136.19 54.2934L136.444 56.2771ZM132.974 56.7229L131.358 57.9005L132.055 58.8574L133.229 58.7066L132.974 56.7229ZM131.984 55.3638L130.368 56.541L130.368 56.5414L131.984 55.3638ZM141.9 52.6429L142.126 50.6556L142.125 50.6556L141.9 52.6429ZM151.832 52.764L151.15 50.884L151.149 50.8841L151.832 52.764ZM157.216 49.4274L158.617 50.8554L158.617 50.8552L157.216 49.4274ZM192.615 77.6944L194.303 76.6222L194.303 76.6222L192.615 77.6944ZM200.95 86.2758L202.012 84.5815L202.012 84.5813L200.95 86.2758ZM209.227 89.835L208.542 91.7141L208.542 91.7142L209.227 89.835ZM221.784 97.2462L223.529 96.2688L223.529 96.2688L221.784 97.2462ZM221.57 103.926L219.613 103.511L219.613 103.511L221.57 103.926ZM228.546 115.225L229.116 113.308L229.115 113.307L228.546 115.225ZM234.502 117.198L235.412 115.417L235.41 115.416L234.502 117.198ZM238.187 104.169L240.148 104.564L240.148 104.564L238.187 104.169ZM221.878 74.7867L221.265 76.6904L221.265 76.6905L221.878 74.7867ZM218.37 73.657L216.386 73.9126L216.549 75.1717L217.757 75.5608L218.37 73.657ZM218.06 71.2523L216.076 71.5079L218.06 71.2523ZM209.624 66.799L209.495 64.8032L209.495 64.8032L209.624 66.799ZM195.927 63.6662L195.316 65.5707L195.316 65.5707L195.927 63.6662ZM184.44 59.906L185.173 58.0449L185.172 58.0444L184.44 59.906ZM-1.49563 -0.232073C-1.54667 0.099787 -1.50755 0.391066 -1.49594 0.479815C-1.47722 0.622835 -1.44953 0.766316 -1.4218 0.894645C-1.36565 1.15447 -1.28431 1.46601 -1.18849 1.8061C-0.99513 2.49237 -0.712657 3.40065 -0.367892 4.45926C0.323499 6.5822 1.28918 9.38228 2.35541 12.3738C4.48389 18.3456 7.04257 25.1629 8.65389 28.9479L12.3343 27.3811C10.7724 23.7122 8.24683 16.989 6.12324 11.0309C5.06344 8.05741 4.11113 5.29518 3.43549 3.22059C3.09674 2.18044 2.83343 1.33116 2.66161 0.721331C2.57484 0.413373 2.51875 0.192236 2.48796 0.0497775C2.47223 -0.0230343 2.46909 -0.0480933 2.47026 -0.0391349C2.47092 -0.0341118 2.47521 -0.00129964 2.47734 0.0506445C2.479 0.0909446 2.4829 0.213258 2.45789 0.375885L-1.49563 -0.232073ZM8.65388 28.9479C15.1112 44.1167 22.8373 55.7839 34.1689 67.471L37.0406 64.6866C26.0558 53.357 18.6018 42.1041 12.3343 27.3811L8.65388 28.9479ZM34.1687 67.4708C35.6331 68.9816 38.424 72.2765 40.3339 74.7616L43.5055 72.3242C41.5392 69.7656 38.6466 66.3433 37.0408 64.6868L34.1687 67.4708ZM40.3338 74.7616C44.3486 79.9859 47.8707 82.9416 53.1927 85.457L54.9019 81.8406C50.2317 79.6332 47.1892 77.1178 43.5055 72.3243L40.3338 74.7616ZM53.1926 85.457C54.0168 85.8465 56.2558 86.6542 59.1797 87.6605C62.1674 88.6888 66.0177 89.9735 70.1837 91.336C78.513 94.0601 88.1365 97.1056 94.6912 99.0447L95.8259 95.2091C89.3228 93.2852 79.7395 90.2528 71.4271 87.5342C67.2722 86.1754 63.4429 84.8975 60.4815 83.8783C57.4563 82.8371 55.4767 82.1123 54.902 81.8406L53.1926 85.457ZM94.6911 99.0447C97.3963 99.8452 102.757 100.875 107.704 101.665C110.197 102.063 112.628 102.407 114.619 102.637C116.521 102.855 118.249 102.999 119.188 102.911L118.817 98.9285C118.373 98.9699 117.084 98.8936 115.077 98.6627C113.16 98.4422 110.79 98.1071 108.335 97.7149C103.385 96.9243 98.2563 95.9282 95.826 95.2091L94.6911 99.0447ZM119.188 102.911L121.154 102.728L120.783 98.7455L118.817 98.9285L119.188 102.911ZM121.986 99.0149L117.245 96.2138L115.21 99.6577L119.951 102.459L121.986 99.0149ZM117.245 96.2137C108.247 90.8987 97.2425 86.1537 80.3137 80.2413L78.9948 84.0176C95.829 89.897 106.547 94.54 115.21 99.6577L117.245 96.2137ZM80.3137 80.2413C74.1551 78.0904 66.2891 75.2554 59.9345 72.9193C56.7569 71.7512 53.9633 70.71 51.9531 69.9429C50.9463 69.5586 50.1459 69.2469 49.5951 69.0238C49.3169 68.9112 49.1197 68.8281 48.997 68.7732C48.9321 68.7442 48.9134 68.7343 48.9228 68.7392C48.9249 68.7403 48.9655 68.7612 49.0232 68.798C49.0518 68.8163 49.1089 68.8539 49.1779 68.9088C49.2265 68.9476 49.3854 69.0757 49.5393 69.287L46.3057 71.6415C46.4631 71.8577 46.6278 71.9914 46.6846 72.0367C46.7617 72.0981 46.8292 72.143 46.8705 72.1693C46.9535 72.2223 47.0286 72.2626 47.0739 72.2863C47.1697 72.3362 47.273 72.384 47.3639 72.4247C47.5526 72.5091 47.8023 72.6134 48.0938 72.7314C48.6824 72.9697 49.5126 73.2929 50.5269 73.68C52.5591 74.4555 55.37 75.5031 58.5544 76.6737C64.9236 79.0151 72.8107 81.8578 78.9948 84.0176L80.3137 80.2413ZM49.5365 69.2832C49.8262 69.6791 49.8815 70.0689 49.8912 70.1299C49.9118 70.259 49.9136 70.358 49.9139 70.3957C49.9146 70.4766 49.9085 70.5237 49.9103 70.5056C49.9128 70.4814 49.923 70.4044 49.949 70.256C49.9989 69.97 50.0849 69.5431 50.2041 68.9968C50.4411 67.911 50.7925 66.4284 51.201 64.8155L47.3234 63.8335C46.9072 65.4768 46.5448 67.004 46.2961 68.144C46.1725 68.7105 46.0727 69.2006 46.0085 69.5682C45.9774 69.7466 45.9485 69.9307 45.9316 70.0934C45.9238 70.1687 45.913 70.2906 45.914 70.4268C45.9146 70.4922 45.9178 70.6139 45.9413 70.7607C45.9538 70.8394 46.0133 71.2419 46.3084 71.6453L49.5365 69.2832ZM51.201 64.8155C52.5075 59.6559 53.0564 55.7841 52.2863 51.9805C51.5191 48.1911 49.492 44.7167 46.2422 40.2325L43.0033 42.5798C46.196 46.9851 47.7788 49.8745 48.3659 52.7742C48.95 55.6598 48.5974 58.8024 47.3234 63.8335L51.201 64.8155ZM46.2422 40.2325C38.9736 30.2029 31.526 22.8034 14.5971 8.66372L12.0329 11.7337C28.8778 25.8032 36.0259 32.9519 43.0033 42.5798L46.2422 40.2325ZM14.5971 8.66371C9.33946 4.27236 6.12447 1.61268 4.21399 0.10515C3.27455 -0.636144 2.58445 -1.15197 2.10104 -1.45688C1.90217 -1.58231 1.54776 -1.79834 1.14512 -1.90792C0.972835 -1.95481 0.427501 -2.09012 -0.199096 -1.84845C-1.04517 -1.52215 -1.41036 -0.786589 -1.49563 -0.232073L2.45789 0.375885C2.38096 0.876201 2.04107 1.57475 1.24027 1.8836C0.658936 2.10781 0.178828 1.97459 0.0947206 1.9517C-0.131579 1.89011 -0.217864 1.80969 -0.0329305 1.92634C0.251273 2.1056 0.791474 2.49984 1.73617 3.24528C3.59396 4.71123 6.76257 7.33176 12.0329 11.7337L14.5971 8.66371ZM111.651 21.5269C110.122 21.7505 108.741 22.5514 107.495 23.6781C106.249 24.8041 105.041 26.3414 103.839 28.2304L107.214 30.3779C108.31 28.6556 109.296 27.4418 110.177 26.6454C111.057 25.8498 111.735 25.5572 112.23 25.4848L111.651 21.5269ZM103.839 28.2303C102.129 30.9179 100.657 32.689 99.1667 33.8956C97.7122 35.0728 96.1594 35.7768 94.1752 36.1987L95.0071 40.1112C97.5294 39.5749 99.6793 38.6267 101.683 37.0047C103.651 35.412 105.394 33.2369 107.214 30.378L103.839 28.2303ZM94.1753 36.1987C92.9218 36.4651 90.6416 36.3959 87.7963 35.9149C85.0179 35.4452 81.93 34.623 79.1663 33.5595L77.7297 37.2926C80.7553 38.4569 84.1021 39.3471 87.1296 39.8589C90.0901 40.3594 92.9868 40.5407 95.007 40.1112L94.1753 36.1987ZM79.1663 33.5595C76.4384 32.5097 74.5572 31.8443 73.13 31.5757C72.3819 31.4349 71.6792 31.3858 70.9842 31.4731C70.2759 31.5622 69.6789 31.78 69.1356 32.0504L70.9175 35.6315C71.1656 35.5081 71.3267 35.4616 71.4831 35.4419C71.6526 35.4206 71.921 35.4184 72.3902 35.5067C73.3975 35.6963 74.9356 36.2173 77.7297 37.2926L79.1663 33.5595ZM69.1363 32.05C68.4134 32.4094 67.774 32.9226 67.3074 33.7098C66.8801 34.4307 66.6809 35.2464 66.5563 36.0566L70.5099 36.6646C70.6057 36.0414 70.7071 35.819 70.7484 35.7493C70.7613 35.7276 70.7661 35.7242 70.7699 35.7208C70.7782 35.7136 70.8158 35.6821 70.9168 35.6319L69.1363 32.05ZM66.5563 36.0566C66.432 36.865 66.4646 38.0222 66.5511 39.1977C66.6419 40.4312 66.8084 41.8752 67.0225 43.3526C67.4466 46.2786 68.08 49.4913 68.7421 51.5524L72.5504 50.3289C71.9902 48.585 71.3944 45.6304 70.9811 42.7789C70.7766 41.3676 70.6224 40.0204 70.5403 38.9042C70.4539 37.7299 70.4615 36.9788 70.5099 36.6646L66.5563 36.0566ZM68.7421 51.5522C70.256 56.2661 71.939 59.662 75.0353 62.3014C78.0574 64.8776 82.2337 66.5609 88.2779 68.3765L89.4286 64.5456C83.4177 62.74 79.962 61.245 77.6302 59.2573C75.3725 57.3328 73.9796 54.779 72.5505 50.3291L68.7421 51.5522ZM88.2778 68.3765C92.0258 69.5025 96.3602 70.945 97.905 71.5698L99.4047 67.8615C97.6754 67.1622 93.1886 65.6752 89.4287 64.5456L88.2778 68.3765ZM97.9044 71.5695C100.294 72.5369 102.717 73.2233 104.909 72.0081C105.958 71.4261 106.749 70.5158 107.408 69.4741C108.066 68.4338 108.677 67.1285 109.309 65.5973L105.611 64.0719C105.004 65.5419 104.499 66.5917 104.028 67.3347C103.559 68.0763 103.208 68.3775 102.969 68.5097C102.585 68.7229 101.843 68.8486 99.4053 67.8618L97.9044 71.5695ZM109.309 65.5972C110.169 63.51 111.701 60.8556 112.663 59.6933L109.583 57.1416C108.292 58.7006 106.574 61.7356 105.611 64.072L109.309 65.5972ZM112.664 59.693C113.864 58.2434 115.436 55.8642 116.211 54.305L112.63 52.5228C112.005 53.7791 110.609 55.9029 109.583 57.1418L112.664 59.693ZM116.211 54.305C117.664 51.3872 118.793 49.7798 119.805 48.9372C120.662 48.2235 121.488 48.0077 122.75 48.2017L123.358 44.2482C121.111 43.9027 119.092 44.3257 117.245 45.8634C115.553 47.2723 114.12 49.5291 112.63 52.5228L116.211 54.305ZM122.75 48.2017C123.395 48.3009 124.025 48.3614 124.534 48.3694C124.773 48.3732 125.071 48.3674 125.356 48.321C125.485 48.3001 125.739 48.252 126.015 48.123C126.191 48.0406 127.034 47.6221 127.197 46.563L123.244 45.9551C123.322 45.4472 123.577 45.084 123.798 44.8651C124.006 44.6599 124.211 44.5509 124.321 44.4993C124.534 44.3996 124.699 44.3752 124.715 44.3728C124.774 44.3631 124.75 44.3723 124.597 44.3699C124.32 44.3655 123.88 44.3284 123.358 44.2482L122.75 48.2017ZM127.197 46.563C127.257 46.171 127.185 45.8562 127.168 45.7772C127.138 45.6471 127.102 45.5386 127.077 45.4693C127.026 45.3276 126.965 45.1918 126.913 45.0833C126.806 44.8581 126.664 44.5919 126.508 44.314C126.192 43.7504 125.76 43.0365 125.287 42.3L121.921 44.4609C122.362 45.1474 122.751 45.7924 123.02 46.2723C123.157 46.5161 123.249 46.6928 123.3 46.8C123.328 46.8577 123.326 46.8605 123.314 46.8259C123.308 46.8102 123.286 46.7474 123.265 46.6546C123.256 46.6129 123.186 46.327 123.244 45.9551L127.197 46.563ZM125.287 42.2997C124.259 40.6991 123.641 39.3446 123.282 37.8815C122.92 36.4012 122.798 34.7049 122.89 32.3846L118.893 32.2257C118.793 34.7487 118.912 36.8544 119.397 38.8331C119.886 40.8289 120.72 42.5904 121.921 44.4612L125.287 42.2997ZM122.89 32.3847C122.98 30.1243 122.901 28.2697 122.453 26.7845C121.962 25.1597 121.042 24.014 119.668 23.2302L117.686 26.705C118.145 26.9666 118.42 27.2682 118.623 27.9401C118.868 28.7515 118.98 30.0431 118.893 32.2257L122.89 32.3847ZM119.667 23.2301C118.514 22.5726 117.078 22.0811 115.713 21.785C114.367 21.4928 112.886 21.3463 111.651 21.5269L112.23 25.4848C112.805 25.4007 113.761 25.4544 114.865 25.694C115.951 25.9295 116.978 26.3013 117.686 26.7051L119.667 23.2301ZM172.941 44.0159C169.055 46.7687 166.676 50.6194 166.032 55.2669L169.995 55.8158C170.483 52.2922 172.243 49.4121 175.253 47.28L172.941 44.0159ZM166.032 55.267C165.728 57.4663 165.894 60.571 166.238 62.9801C166.411 64.1857 166.645 65.3462 166.94 66.2021C167.071 66.5849 167.288 67.1351 167.66 67.5783C167.847 67.8015 168.235 68.1954 168.862 68.3631C169.609 68.563 170.295 68.3418 170.769 67.9846L168.36 64.7911C168.711 64.5268 169.273 64.3324 169.896 64.4991C170.399 64.6336 170.663 64.9342 170.726 65.01C170.851 65.1586 170.824 65.1978 170.722 64.9014C170.549 64.399 170.357 63.5283 170.198 62.414C169.879 60.1832 169.762 57.493 169.995 55.8157L166.032 55.267ZM170.769 67.9845C171.05 67.7724 171.341 67.4598 171.551 67.2274C171.8 66.9512 172.092 66.6087 172.406 66.2287C173.035 65.4662 173.793 64.5042 174.549 63.5133C176.026 61.5796 177.63 59.3649 178.227 58.3069L174.744 56.3403C174.307 57.1145 172.881 59.1076 171.37 61.0858C170.633 62.0509 169.908 62.9708 169.321 63.6824C169.026 64.0394 168.776 64.332 168.582 64.5471C168.348 64.8061 168.294 64.8411 168.36 64.7912L170.769 67.9845ZM178.227 58.3068C179.264 56.4704 179.851 54.1343 180.031 51.8987C180.212 49.672 180.009 47.3004 179.246 45.401L175.534 46.8926C175.992 48.032 176.194 49.7322 176.045 51.576C175.896 53.4109 175.42 55.1437 174.744 56.3404L178.227 58.3068ZM179.246 45.4013L178.36 43.1971L174.649 44.6881L175.534 46.8923L179.246 45.4013ZM175.349 42.3106L172.941 44.0159L175.253 47.28L177.661 45.5747L175.349 42.3106ZM155.613 45.5555C155.129 45.618 153.949 45.5961 151.974 45.411C150.07 45.2325 147.595 44.9203 144.638 44.4803L144.05 48.4367C147.047 48.8827 149.599 49.2058 151.601 49.3936C153.533 49.5747 155.138 49.6501 156.126 49.5225L155.613 45.5555ZM144.638 44.4803C139.908 43.7767 136.5 43.3957 133.901 43.364C131.27 43.3319 129.332 43.6537 127.605 44.4473L129.275 48.0821C130.282 47.6194 131.575 47.3359 133.852 47.3637C136.16 47.3918 139.337 47.7358 144.05 48.4367L144.638 44.4803ZM127.605 44.4472C127.393 44.5447 127.105 44.641 126.827 44.7049C126.692 44.736 126.581 44.7543 126.502 44.7629C126.409 44.7731 126.417 44.7638 126.497 44.7724L126.063 48.7489C126.642 48.8119 127.267 48.7079 127.722 48.6034C128.227 48.4875 128.779 48.3097 129.275 48.0822L127.605 44.4472ZM126.496 44.7724C126.309 44.752 126.082 44.7368 125.848 44.751C125.731 44.7581 125.565 44.7752 125.378 44.8225C125.216 44.8636 124.884 44.9649 124.554 45.2314C124.165 45.5455 123.792 46.0929 123.79 46.8205C123.788 47.4409 124.062 47.8758 124.204 48.0674C124.479 48.4372 124.823 48.6468 124.951 48.7231L127.001 45.2888C127.011 45.2944 127.053 45.3197 127.112 45.3663C127.161 45.4051 127.287 45.5091 127.416 45.6837C127.531 45.8386 127.792 46.2403 127.79 46.8312C127.788 47.5295 127.429 48.0512 127.067 48.3435C126.764 48.5884 126.471 48.672 126.362 48.6996C126.229 48.7335 126.129 48.7413 126.09 48.7437C126.013 48.7483 125.994 48.7413 126.064 48.7489L126.496 44.7724ZM124.95 48.723C124.211 48.2812 124.328 47.5939 124.337 48.0238C124.342 48.2998 124.285 48.8361 124.08 49.7349C123.676 51.5019 122.818 54.1914 121.426 58.0242L125.186 59.3895C126.584 55.5396 127.517 52.6513 127.979 50.6248C128.207 49.6268 128.351 48.7125 128.336 47.9439C128.324 47.3292 128.198 46.0033 127.002 45.2889L124.95 48.723ZM121.426 58.0241C119.976 62.0186 119.089 64.6516 118.672 66.5755C118.232 68.6076 118.278 70.0169 118.774 71.5041L122.568 70.2387C122.35 69.5856 122.255 68.9293 122.581 67.4225C122.931 65.8074 123.719 63.4283 125.186 59.3895L121.426 58.0241ZM118.774 71.5041C119.765 74.4761 122.633 76.3179 127.389 78.4483L129.024 74.7978C124.12 72.6011 122.94 71.3527 122.568 70.2386L118.774 71.5041ZM127.389 78.4482C129.039 79.1877 129.923 79.6441 130.431 79.9968C130.844 80.2833 130.843 80.384 130.857 80.4244L134.642 79.1314C134.294 78.1123 133.661 77.3701 132.713 76.7112C131.859 76.1187 130.653 75.5275 129.024 74.7978L127.389 78.4482ZM130.857 80.4245C131.73 82.9798 133.654 85.0792 136.124 86.1787L137.751 82.5243C136.293 81.8755 135.154 80.6294 134.642 79.1314L130.857 80.4245ZM136.124 86.1786C137.214 86.6642 138.326 87.0382 139.543 86.9468C140.769 86.8547 141.801 86.3132 142.783 85.6643L140.579 82.3265C139.773 82.8588 139.439 82.9434 139.243 82.9581C139.038 82.9735 138.673 82.9349 137.751 82.5244L136.124 86.1786ZM142.784 85.6641C144.887 84.2746 145.379 81.6894 145.203 79.2973C145.019 76.8045 144.093 73.8676 142.565 70.8261L138.991 72.622C140.372 75.3697 141.081 77.7863 141.214 79.5908C141.354 81.4961 140.843 82.152 140.579 82.3267L142.784 85.6641ZM142.565 70.8262C141.957 69.616 141.618 68.6544 141.479 67.9164C141.339 67.1768 141.422 66.7888 141.499 66.609C141.578 66.4243 141.976 65.8034 144.248 65.7547L144.162 61.7556C141.514 61.8124 138.885 62.5621 137.824 65.0287C137.332 66.1744 137.316 67.4321 137.549 68.6602C137.781 69.8901 138.286 71.2183 138.991 72.622L142.565 70.8262ZM144.248 65.7547C145.172 65.735 146.085 65.6317 146.851 65.4619C147.232 65.3776 147.62 65.2674 147.974 65.1219C148.267 65.0009 148.786 64.7587 149.187 64.2917L146.154 61.6842C146.288 61.5284 146.408 61.4521 146.438 61.4332C146.477 61.4092 146.487 61.4083 146.451 61.4231C146.376 61.4537 146.225 61.5036 145.986 61.5565C145.514 61.6612 144.866 61.7406 144.162 61.7556L144.248 65.7547ZM149.188 64.2906C150.146 63.174 150.24 61.6738 150.091 60.5418C149.93 59.3265 149.435 58.0424 148.645 56.9574L145.412 59.3119C145.805 59.852 146.051 60.5057 146.125 61.0662C146.21 61.7101 146.034 61.8239 146.153 61.6854L149.188 64.2906ZM148.645 56.9574C148.107 56.2185 147.493 55.5703 146.482 55.1134C145.614 54.721 144.551 54.5208 143.279 54.3252L142.672 58.2788C143.988 58.4812 144.532 58.6217 144.834 58.7582C144.994 58.8302 145.111 58.8993 145.412 59.3119L148.645 56.9574ZM143.279 54.3252C141.389 54.0345 138.26 54.0275 136.19 54.2934L136.699 58.2608C138.446 58.0365 141.195 58.0517 142.672 58.2788L143.279 54.3252ZM136.19 54.2934L132.72 54.7392L133.229 58.7066L136.699 58.2608L136.19 54.2934ZM134.591 55.5453L133.601 54.1862L130.368 56.5414L131.358 57.9005L134.591 55.5453ZM133.601 54.1865C133.344 53.8335 133.199 53.5844 133.124 53.4224C133.044 53.2461 133.101 53.2905 133.092 53.4829C133.08 53.7534 132.95 54.035 132.753 54.2183C132.614 54.3483 132.55 54.326 132.761 54.268C133.203 54.1468 134.09 54.0643 135.655 54.1189C137.17 54.1717 139.15 54.3442 141.675 54.6302L142.125 50.6556C139.566 50.3657 137.465 50.1796 135.794 50.1213C134.173 50.0647 132.768 50.1184 131.703 50.4106C131.16 50.5594 130.54 50.8132 130.026 51.2923C129.454 51.8249 129.132 52.5287 129.097 53.2983C129.065 53.9898 129.268 54.6101 129.489 55.0903C129.716 55.5848 130.027 56.0727 130.368 56.541L133.601 54.1865ZM141.675 54.6302C148.276 55.378 150.166 55.4968 152.515 54.6438L151.149 50.8841C149.864 51.351 149.013 51.436 142.126 50.6556L141.675 54.6302ZM152.514 54.644C153.887 54.1458 154.918 53.7271 155.871 53.1362C156.833 52.5401 157.63 51.8226 158.617 50.8554L155.816 47.9994C154.872 48.9247 154.334 49.3832 153.764 49.7361C153.186 50.0942 152.49 50.3976 151.15 50.884L152.514 54.644ZM158.617 50.8552C159.185 50.298 159.709 49.7839 160.057 49.374C160.22 49.1817 160.461 48.8809 160.629 48.5193C160.774 48.2068 161.139 47.2258 160.455 46.2662C159.894 45.4811 159.042 45.3592 158.828 45.3294C158.49 45.2826 158.144 45.2911 157.864 45.3072C157.291 45.3401 156.512 45.4396 155.614 45.5554L156.125 49.5226C157.08 49.3994 157.695 49.3235 158.093 49.3006C158.3 49.2887 158.335 49.2993 158.278 49.2914C158.246 49.287 158.115 49.2677 157.941 49.1933C157.764 49.1178 157.453 48.9463 157.198 48.5894C156.923 48.2036 156.84 47.7792 156.858 47.4339C156.873 47.1291 156.963 46.9161 157 46.835C157.069 46.6883 157.119 46.6533 157.008 46.7849C156.806 47.0228 156.439 47.3886 155.816 47.9995L158.617 50.8552ZM181.369 59.4402C181.315 59.791 181.369 60.0737 181.381 60.1357C181.401 60.2475 181.427 60.3406 181.444 60.3985C181.479 60.5172 181.521 60.6308 181.556 60.7194C181.628 60.9038 181.724 61.1263 181.832 61.3649C182.051 61.8493 182.362 62.4997 182.732 63.2549C183.474 64.7702 184.485 66.7649 185.546 68.8209C187.646 72.8878 190.028 77.3516 190.926 78.7666L194.303 76.6222C193.522 75.3928 191.233 71.1157 189.101 66.9857C188.046 64.9432 187.049 62.9754 186.323 61.4944C185.959 60.7513 185.67 60.1451 185.477 59.7181C185.379 59.501 185.317 59.354 185.284 59.2684C185.265 59.222 185.268 59.2253 185.279 59.2602C185.283 59.2762 185.3 59.3341 185.316 59.4174C185.322 59.4509 185.374 59.712 185.323 60.0482L181.369 59.4402ZM190.926 78.7666C193.098 82.1863 196.835 86.0565 199.887 87.9703L202.012 84.5813C199.542 83.0328 196.208 79.6227 194.303 76.6222L190.926 78.7666ZM199.887 87.9701C200.605 88.4205 201.958 89.0545 203.444 89.6936C204.979 90.3535 206.799 91.0789 208.542 91.7141L209.912 87.9559C208.24 87.3467 206.49 86.6492 205.024 86.0189C203.51 85.3679 202.432 84.8445 202.012 84.5815L199.887 87.9701ZM208.542 91.7142C211.938 92.9514 214.627 94.1719 216.594 95.3331C218.621 96.529 219.65 97.5292 220.039 98.2235L223.529 96.2688C222.61 94.6278 220.822 93.1836 218.627 91.8883C216.374 90.5583 213.438 89.2409 209.912 87.9559L208.542 91.7142ZM220.039 98.2235C220.232 98.5666 220.294 98.7104 220.325 98.8136C220.347 98.8856 220.374 99.0006 220.365 99.2683C220.344 99.936 220.138 101.034 219.613 103.511L223.527 104.34C224.018 102.018 224.328 100.505 224.363 99.3965C224.383 98.7763 224.324 98.2123 224.151 97.6453C223.987 97.1093 223.745 96.6539 223.529 96.2688L220.039 98.2235ZM219.613 103.511C219.202 105.456 218.906 107.137 218.863 108.571C218.819 110.031 219.028 111.419 219.791 112.655C220.549 113.883 221.698 114.709 223.027 115.36C224.341 116.003 226.003 116.556 227.977 117.142L229.115 113.307C227.156 112.726 225.774 112.251 224.786 111.767C223.814 111.291 223.403 110.891 223.195 110.554C222.992 110.226 222.83 109.711 222.861 108.692C222.893 107.646 223.118 106.269 223.527 104.34L219.613 103.511ZM227.976 117.142C229.333 117.545 230.67 117.965 231.727 118.315C232.257 118.491 232.708 118.646 233.052 118.771C233.225 118.834 233.362 118.886 233.465 118.927C233.581 118.973 233.612 118.989 233.595 118.98L235.41 115.416C234.979 115.196 234.004 114.856 232.985 114.518C231.884 114.153 230.507 113.721 229.116 113.308L227.976 117.142ZM233.593 118.98C233.661 119.014 234.043 119.225 234.503 119.299C235.152 119.404 235.848 119.242 236.41 118.754C236.841 118.38 237.076 117.912 237.208 117.608C237.358 117.266 237.49 116.862 237.616 116.415C238.109 114.67 238.814 111.182 240.148 104.564L236.226 103.774C234.87 110.504 234.206 113.773 233.767 115.326C233.66 115.704 233.586 115.909 233.542 116.008C233.483 116.145 233.538 115.951 233.789 115.733C234.172 115.401 234.687 115.277 235.142 115.35C235.407 115.393 235.581 115.503 235.412 115.417L233.593 118.98ZM240.148 104.564C241.292 98.8862 242.195 94.4916 242.543 91.072C242.891 87.6612 242.738 84.8299 241.425 82.4642C240.1 80.0767 237.803 78.5377 234.792 77.1951C231.789 75.8564 227.714 74.564 222.491 72.8829L221.265 76.6905C226.593 78.4054 230.408 79.6204 233.163 80.8485C235.909 82.0726 237.236 83.1597 237.928 84.4054C238.631 85.6729 238.888 87.482 238.564 90.6667C238.24 93.8425 237.39 97.9984 236.226 103.774L240.148 104.564ZM222.491 72.8829L218.983 71.7533L217.757 75.5608L221.265 76.6904L222.491 72.8829ZM220.354 73.4014L220.044 70.9967L216.076 71.5079L216.386 73.9126L220.354 73.4014ZM220.044 70.9967C219.762 68.8112 219.092 66.7361 216.944 65.6022C215.982 65.0945 214.873 64.863 213.69 64.7663C212.5 64.669 211.105 64.699 209.495 64.8032L209.754 68.7948C211.293 68.6952 212.462 68.6793 213.364 68.753C214.272 68.8272 214.781 68.9837 215.077 69.1396C215.443 69.3331 215.842 69.6885 216.076 71.5079L220.044 70.9967ZM209.495 64.8032C208.047 64.897 207.324 64.9084 205.789 64.5574C204.106 64.1724 201.563 63.373 196.538 61.7617L195.316 65.5707C200.26 67.1557 203.005 68.0238 204.898 68.4567C206.939 68.9236 208.08 68.9033 209.754 68.7948L209.495 64.8032ZM196.538 61.7617C193.672 60.8429 190.95 59.9612 188.872 59.2812C187.833 58.9411 186.958 58.6522 186.308 58.4347C185.983 58.3258 185.717 58.2359 185.517 58.1669C185.417 58.1324 185.336 58.1041 185.274 58.082C185.244 58.071 185.219 58.0622 185.201 58.0554C185.192 58.052 185.185 58.0494 185.18 58.0475C185.174 58.0455 185.172 58.0447 185.173 58.0449L183.708 61.767C184.368 62.0266 189.632 63.748 195.316 65.5707L196.538 61.7617ZM185.172 58.0444C184.79 57.8945 184.37 57.7671 183.976 57.7089C183.803 57.6833 183.487 57.6474 183.133 57.7031C182.96 57.7304 182.627 57.8016 182.282 58.0273C181.884 58.2869 181.474 58.7583 181.369 59.4402L185.323 60.0482C185.223 60.6953 184.833 61.1385 184.469 61.3764C184.157 61.5804 183.871 61.6362 183.755 61.6544C183.619 61.6759 183.517 61.6744 183.475 61.6728C183.426 61.671 183.396 61.6667 183.391 61.6659C183.382 61.6646 183.41 61.6686 183.477 61.6876C183.539 61.7055 183.619 61.7319 183.709 61.7676L185.172 58.0444Z" fill="#E72434" mask="url(#path-1-inside-1_264_266)"/>
</svg>
