<svg width="235" height="128" viewBox="0 0 235 128" fill="none" xmlns="http://www.w3.org/2000/svg">
<mask id="path-1-inside-1_74_980" fill="white">
<path fill-rule="evenodd" clip-rule="evenodd" d="M8.33222 0.689939C8.23341 1.00518 7.90618 2.657 7.60377 4.36105C7.30182 6.06556 6.91669 7.54509 6.74802 7.6491C6.57889 7.75312 5.31044 7.13683 3.92846 6.27908C-0.454156 3.55874 -1.02312 4.38762 1.49265 9.82601L3.25471 13.6341L3.4845 34.1386L3.71429 54.6432L6.97276 57.736C10.1903 60.7895 10.2349 60.8642 10.4845 63.6184C10.8273 67.4041 11.6408 68.7658 16.0147 72.8805C18.0773 74.8205 21.117 77.8497 22.7697 79.6119C24.4223 81.3742 26.8485 83.9195 28.1606 85.2684L30.5472 87.7202L34.365 87.4036L38.1833 87.087L40.711 88.8222C43.5797 90.7911 45.8202 91.7158 51.333 93.2058C54.7973 94.1424 56.2363 94.2496 65.5287 94.2629C73.5967 94.2744 76.1534 94.4224 77.1617 94.9369C78.0386 95.3841 78.9775 96.6657 80.0819 98.9242C80.9772 100.755 82.7921 103.44 84.1152 104.891L86.5207 107.531L87.3563 106.173C90.1436 101.646 90.3739 101.38 91.5003 101.38C92.8791 101.38 95.7832 103.898 96.8683 106.035C97.2957 106.877 98.3151 109.215 99.1336 111.231C100.352 114.235 101.167 115.435 103.642 117.875C105.303 119.513 107.925 121.521 109.47 122.338L112.278 123.823L112.604 117.298C112.822 112.916 113.144 110.441 113.583 109.763C114.446 108.433 117.513 106.673 121.925 104.978C127.599 102.798 128.663 102.814 136.103 105.201C144.417 107.868 145.048 107.938 145.864 106.273C146.596 104.78 152.219 100.48 153.455 100.47C154.806 100.459 156.132 101.325 158.965 104.067C161.317 106.343 161.687 106.554 162.09 105.847C162.682 104.809 166.132 104.763 168.249 105.765C170.343 106.755 171.658 110.439 171.682 115.38C171.697 118.448 173.408 121.821 176.61 125.091C179.733 128.279 180.172 127.984 180.911 122.198C181.571 117.04 180.991 112.587 179.335 110.091C177.699 107.627 176.731 104.029 176.437 99.3178C176.01 92.4759 176.117 92.2871 183.99 85.9768C191.527 79.9359 198.998 72.8516 199.653 71.1224C200.02 70.1546 199.858 69.7872 198.526 68.5564C197.52 67.6277 196.97 66.6957 196.97 65.919C196.97 63.6092 198.379 55.3877 198.878 54.7889C199.155 54.4567 200.033 54.185 200.831 54.185C203.052 54.185 204.15 53.105 205.236 49.8531C206.306 46.6466 208.208 44.5458 211.15 43.3201C213.052 42.5278 217.725 41.1024 219.835 40.6712C221.505 40.3299 221.59 40.1356 220.624 38.8622C219.617 37.5344 219.79 34.5199 220.986 32.5748C221.59 31.5915 224.333 29.1763 227.61 26.7419C230.686 24.4568 233.667 21.9358 234.236 21.1395C235.199 19.7919 235.216 19.6512 234.487 19.1197C233.344 18.2867 228.376 17.8707 224.059 18.2459C220.538 18.5525 220.213 18.6721 218.833 20.1731L217.362 21.7741L211.877 22.142C199.836 22.9503 176.511 22.4275 171.163 21.2297C170.09 20.9892 168.891 20.3779 168.499 19.8716C167.598 18.7064 165.685 17.987 163.488 17.987C162.046 17.987 161.426 18.3426 159.539 20.2524C155.119 24.7272 153.172 24.4426 153.38 19.3516C153.473 17.0725 153.305 15.9852 152.718 15.0926C151.12 12.6614 148.899 10.4877 145.788 8.30891C142.968 6.33498 142.318 6.07381 140.226 6.07381C137.35 6.07381 132.532 4.8669 124.582 2.15572L118.604 0.117188H63.558C19.9225 0.117188 8.47377 0.235862 8.33222 0.689939Z"/>
</mask>
<path d="M8.33222 0.689939L9.76355 1.13858L9.76425 1.13636L8.33222 0.689939ZM7.60377 4.36105L6.12685 4.09895L6.12677 4.0994L7.60377 4.36105ZM6.74802 7.6491L7.5338 8.92682L7.53535 8.92586L6.74802 7.6491ZM3.92846 6.27908L3.13739 7.55353L3.13743 7.55355L3.92846 6.27908ZM1.49265 9.82601L0.131261 10.4558L0.13132 10.4559L1.49265 9.82601ZM3.25471 13.6341L4.75461 13.6173L4.75101 13.2959L4.61604 13.0042L3.25471 13.6341ZM3.4845 34.1386L1.98459 34.1554L3.4845 34.1386ZM3.71429 54.6432L2.21439 54.66L2.2215 55.2943L2.68164 55.7311L3.71429 54.6432ZM6.97276 57.736L5.94011 58.824L5.94021 58.8241L6.97276 57.736ZM10.4845 63.6184L11.9783 63.4831L11.9783 63.483L10.4845 63.6184ZM16.0147 72.8805L14.9869 73.973L14.987 73.9731L16.0147 72.8805ZM28.1606 85.2684L27.0854 86.3143L27.0858 86.3147L28.1606 85.2684ZM30.5472 87.7202L29.4724 88.7665L29.966 89.2736L30.6712 89.2151L30.5472 87.7202ZM34.365 87.4036L34.2411 85.9088H34.2411L34.365 87.4036ZM38.1833 87.087L39.0322 85.8504L38.5917 85.548L38.0593 85.5921L38.1833 87.087ZM40.711 88.8222L39.8621 90.0589L39.8622 90.059L40.711 88.8222ZM51.333 93.2058L51.7244 91.7578L51.7244 91.7578L51.333 93.2058ZM65.5287 94.2629L65.5265 95.7629H65.5265L65.5287 94.2629ZM77.1617 94.9369L76.4799 96.273L76.4802 96.2732L77.1617 94.9369ZM80.0819 98.9242L78.7344 99.5831L78.7344 99.5832L80.0819 98.9242ZM84.1152 104.891L85.2239 103.881L85.2237 103.881L84.1152 104.891ZM86.5207 107.531L85.4121 108.541L86.7538 110.013L87.7981 108.317L86.5207 107.531ZM87.3563 106.173L86.0789 105.387L86.0789 105.387L87.3563 106.173ZM96.8683 106.035L98.2058 105.356L98.2057 105.356L96.8683 106.035ZM99.1336 111.231L100.524 110.667L100.523 110.667L99.1336 111.231ZM103.642 117.875L104.695 116.807L104.695 116.807L103.642 117.875ZM109.47 122.338L108.768 123.664L108.768 123.664L109.47 122.338ZM112.278 123.823L111.577 125.149L113.658 126.25L113.776 123.898L112.278 123.823ZM112.604 117.298L114.102 117.373V117.373L112.604 117.298ZM113.583 109.763L112.325 108.947L112.325 108.947L113.583 109.763ZM121.925 104.978L122.463 106.378L122.463 106.378L121.925 104.978ZM136.103 105.201L135.645 106.629L135.645 106.629L136.103 105.201ZM145.864 106.273L147.211 106.933L147.211 106.933L145.864 106.273ZM153.455 100.47L153.443 98.9702H153.443L153.455 100.47ZM158.965 104.067L157.922 105.144L157.922 105.144L158.965 104.067ZM162.09 105.847L163.393 106.59L163.393 106.59L162.09 105.847ZM168.249 105.765L168.891 104.409L168.891 104.409L168.249 105.765ZM171.682 115.38L173.182 115.372V115.372L171.682 115.38ZM176.61 125.091L175.539 126.14L175.539 126.14L176.61 125.091ZM180.911 122.198L179.424 122.008L179.424 122.008L180.911 122.198ZM179.335 110.091L180.585 109.262L180.585 109.262L179.335 110.091ZM176.437 99.3178L174.939 99.4112L174.939 99.4113L176.437 99.3178ZM183.99 85.9768L184.928 87.1473L184.928 87.1473L183.99 85.9768ZM199.653 71.1224L201.056 71.654L201.056 71.6539L199.653 71.1224ZM198.526 68.5564L197.508 69.6583L197.508 69.6584L198.526 68.5564ZM198.878 54.7889L197.725 53.8289L197.725 53.829L198.878 54.7889ZM205.236 49.8531L206.659 50.3281L206.659 50.3279L205.236 49.8531ZM211.15 43.3201L210.573 41.9354L210.573 41.9355L211.15 43.3201ZM219.835 40.6712L219.534 39.2016L219.534 39.2016L219.835 40.6712ZM220.624 38.8622L219.429 39.7689V39.7689L220.624 38.8622ZM220.986 32.5748L222.264 33.3604L222.264 33.3602L220.986 32.5748ZM227.61 26.7419L228.505 27.946L228.505 27.9459L227.61 26.7419ZM234.236 21.1395L235.457 22.0115L235.457 22.0112L234.236 21.1395ZM234.487 19.1197L233.603 20.3318L233.603 20.332L234.487 19.1197ZM224.059 18.2459L223.929 16.7516L223.929 16.7516L224.059 18.2459ZM218.833 20.1731L219.938 21.1882L219.938 21.1882L218.833 20.1731ZM217.362 21.7741L217.462 23.2707L218.06 23.2306L218.466 22.7892L217.362 21.7741ZM211.877 22.142L211.777 20.6454L211.777 20.6454L211.877 22.142ZM171.163 21.2297L170.835 22.6934L170.835 22.6935L171.163 21.2297ZM168.499 19.8716L167.313 20.7896L167.313 20.7899L168.499 19.8716ZM159.539 20.2524L160.606 21.3066L160.606 21.3066L159.539 20.2524ZM153.38 19.3516L151.881 19.2902V19.2903L153.38 19.3516ZM152.718 15.0926L151.464 15.9165L151.464 15.9167L152.718 15.0926ZM145.788 8.30891L146.648 7.08021L146.648 7.08012L145.788 8.30891ZM124.582 2.15572L125.066 0.736021L125.066 0.736005L124.582 2.15572ZM118.604 0.117188L119.089 -1.30253L118.853 -1.38281H118.604V0.117188ZM6.90088 0.241295C6.82119 0.495537 6.69752 1.08501 6.573 1.71289C6.43882 2.38947 6.27956 3.23845 6.12685 4.09895L9.0807 4.62315C9.23039 3.7796 9.38595 2.95064 9.51569 2.2965C9.58065 1.96894 9.63822 1.68985 9.68472 1.47684C9.70802 1.37012 9.72753 1.28462 9.74304 1.22038C9.76053 1.14795 9.76689 1.12792 9.76355 1.13858L6.90088 0.241295ZM6.12677 4.0994C5.98106 4.92191 5.81728 5.67803 5.67428 6.22744C5.60172 6.50621 5.5413 6.70542 5.49849 6.82478C5.4758 6.88805 5.46995 6.8952 5.48313 6.86923C5.48943 6.8568 5.51521 6.8065 5.56291 6.73995C5.59473 6.69555 5.72166 6.51975 5.96069 6.37235L7.53535 8.92586C7.79547 8.76546 7.94517 8.56591 8.00131 8.48757C8.07333 8.38709 8.12497 8.29267 8.15854 8.22651C8.22624 8.09306 8.28052 7.95424 8.32237 7.83754C8.40865 7.59697 8.495 7.30026 8.57755 6.98309C8.74478 6.3406 8.92453 5.5047 9.08078 4.6227L6.12677 4.0994ZM5.96224 6.37139C6.25277 6.19272 6.52145 6.16777 6.62525 6.16233C6.74796 6.15591 6.83773 6.16864 6.87202 6.17412C6.94105 6.18517 6.96475 6.19708 6.91866 6.18121C6.83696 6.15309 6.68107 6.08853 6.4486 5.97558C5.99465 5.75501 5.37797 5.41331 4.71949 5.00461L3.13743 7.55355C3.86092 8.0026 4.56947 8.39792 5.13752 8.67392C5.41605 8.80926 5.69536 8.93289 5.94225 9.01787C6.06045 9.05855 6.2218 9.10824 6.39797 9.13643C6.48583 9.15049 6.62154 9.16663 6.78208 9.15823C6.92373 9.15082 7.22213 9.11849 7.5338 8.92682L5.96224 6.37139ZM4.71952 5.00463C3.61157 4.31691 2.63589 3.78245 1.83919 3.50456C1.44761 3.36797 0.973275 3.24701 0.48488 3.27427C-0.0611272 3.30474 -0.694083 3.53403 -1.11288 4.14392C-1.47541 4.67187 -1.51516 5.26032 -1.49614 5.66668C-1.47589 6.09923 -1.37681 6.5583 -1.24506 7.01267C-0.980327 7.92567 -0.504666 9.08109 0.131261 10.4558L2.85404 9.19624C2.23208 7.85174 1.83545 6.86416 1.63626 6.1772C1.53605 5.8316 1.50526 5.62645 1.50058 5.52641C1.49467 5.40018 1.53493 5.58766 1.3602 5.84212C1.1292 6.17852 0.791829 6.26181 0.652042 6.26961C0.569868 6.27419 0.612387 6.2539 0.851149 6.33718C1.31512 6.49902 2.05404 6.88107 3.13739 7.55353L4.71952 5.00463ZM0.13132 10.4559L1.89337 14.264L4.61604 13.0042L2.85398 9.19611L0.13132 10.4559ZM1.7548 13.6509L1.98459 34.1554L4.9844 34.1218L4.75461 13.6173L1.7548 13.6509ZM1.98459 34.1554L2.21439 54.66L5.2142 54.6263L4.9844 34.1218L1.98459 34.1554ZM2.68164 55.7311L5.94011 58.824L8.00541 56.6481L4.74695 53.5552L2.68164 55.7311ZM5.94021 58.8241C7.62545 60.4233 8.24201 61.0362 8.55366 61.5583C8.79309 61.9594 8.85965 62.3087 8.99058 63.7538L11.9783 63.483C11.8597 62.1738 11.7792 61.1087 11.1296 60.0205C10.5521 59.0533 9.53763 58.1021 8.00531 56.648L5.94021 58.8241ZM8.99057 63.7537C9.17109 65.7469 9.49163 67.29 10.45 68.8951C11.3638 70.4254 12.8086 71.9238 14.9869 73.973L17.0424 71.7879C14.8469 69.7225 13.698 68.4827 13.0258 67.3571C12.3983 66.3062 12.1407 65.2756 11.9783 63.4831L8.99057 63.7537ZM14.987 73.9731C17.0305 75.8952 20.0476 78.9021 21.6755 80.638L23.8638 78.5858C22.1864 76.7972 19.1241 73.7458 17.0424 71.7878L14.987 73.9731ZM21.6755 80.638C23.3329 82.4053 25.7655 84.9574 27.0854 86.3143L29.2358 84.2225C27.9315 82.8816 25.5118 80.343 23.8638 78.5858L21.6755 80.638ZM27.0858 86.3147L29.4724 88.7665L31.6221 86.674L29.2355 84.2221L27.0858 86.3147ZM30.6712 89.2151L34.489 88.8985L34.2411 85.9088L30.4233 86.2254L30.6712 89.2151ZM34.489 88.8985L38.3072 88.5819L38.0593 85.5921L34.2411 85.9088L34.489 88.8985ZM37.3343 88.3237L39.8621 90.0589L41.5599 87.5856L39.0322 85.8504L37.3343 88.3237ZM39.8622 90.059C42.9311 92.1653 45.3563 93.1442 50.9416 94.6539L51.7244 91.7578C46.2842 90.2873 44.2283 89.417 41.5598 87.5855L39.8622 90.059ZM50.9415 94.6539C54.6213 95.6487 56.2464 95.7496 65.5265 95.7629L65.5308 92.7629C56.2261 92.7496 54.9733 92.6361 51.7244 91.7578L50.9415 94.6539ZM65.5265 95.7629C69.5635 95.7686 72.18 95.8088 73.9058 95.9087C75.7131 96.0134 76.2955 96.1789 76.4799 96.273L77.8435 93.6008C77.0195 93.1803 75.8195 93.0146 74.0793 92.9138C72.2577 92.8082 69.5619 92.7686 65.5308 92.7629L65.5265 95.7629ZM76.4802 96.2732C76.6174 96.3432 76.9046 96.5619 77.3264 97.1377C77.7358 97.6966 78.2022 98.4947 78.7344 99.5831L81.4294 98.2653C80.8573 97.0952 80.302 96.1232 79.7466 95.365C79.2036 94.6236 78.5829 93.9779 77.8432 93.6007L76.4802 96.2732ZM78.7344 99.5832C79.6899 101.537 81.584 104.342 83.0068 105.902L85.2237 103.881C84.0002 102.539 82.2645 99.9727 81.4294 98.2652L78.7344 99.5832ZM83.0066 105.902L85.4121 108.541L87.6293 106.52L85.2239 103.881L83.0066 105.902ZM87.7981 108.317L88.6336 106.96L86.0789 105.387L85.2434 106.744L87.7981 108.317ZM88.6336 106.96C90.0623 104.639 90.7392 103.576 91.1859 103.06C91.3842 102.83 91.4293 102.841 91.3599 102.871C91.2903 102.901 91.2594 102.88 91.5003 102.88V99.8797C91.178 99.8797 90.696 99.8919 90.1793 100.113C89.6628 100.334 89.2649 100.695 88.9164 101.098C88.2695 101.846 87.4376 103.18 86.0789 105.387L88.6336 106.96ZM91.5003 102.88C91.4564 102.88 91.6224 102.885 92.0374 103.117C92.4086 103.324 92.8506 103.639 93.3117 104.039C94.2503 104.853 95.1023 105.87 95.5309 106.714L98.2057 105.356C97.5493 104.063 96.4066 102.752 95.2772 101.773C94.7043 101.276 94.0939 100.829 93.499 100.497C92.9477 100.189 92.2337 99.8797 91.5003 99.8797V102.88ZM95.5309 106.714C95.9271 107.495 96.9261 109.781 97.7438 111.795L100.523 110.667C99.7041 108.649 98.6643 106.259 98.2058 105.356L95.5309 106.714ZM97.7437 111.795C98.3694 113.337 98.924 114.499 99.6754 115.606C100.423 116.709 101.328 117.7 102.589 118.943L104.695 116.807C103.48 115.609 102.74 114.781 102.158 113.922C101.579 113.068 101.117 112.129 100.524 110.667L97.7437 111.795ZM102.588 118.943C104.321 120.652 107.06 122.76 108.768 123.664L110.171 121.012C108.791 120.282 106.284 118.374 104.695 116.807L102.588 118.943ZM108.768 123.664L111.577 125.149L112.979 122.497L110.171 121.012L108.768 123.664ZM113.776 123.898L114.102 117.373L111.105 117.223L110.78 123.748L113.776 123.898ZM114.102 117.373C114.21 115.197 114.343 113.528 114.498 112.335C114.576 111.737 114.656 111.285 114.734 110.961C114.821 110.599 114.877 110.525 114.842 110.579L112.325 108.947C112.07 109.34 111.921 109.83 111.817 110.259C111.705 110.727 111.608 111.295 111.523 111.948C111.353 113.257 111.216 115.017 111.105 117.223L114.102 117.373ZM114.842 110.579C115.063 110.238 115.764 109.615 117.169 108.809C118.509 108.04 120.304 107.208 122.463 106.378L121.387 103.578C119.135 104.443 117.19 105.338 115.677 106.206C114.23 107.036 112.966 107.957 112.325 108.947L114.842 110.579ZM122.463 106.378C125.312 105.284 126.747 104.852 128.329 104.877C129.97 104.903 131.877 105.421 135.645 106.629L136.561 103.773C132.889 102.595 130.544 101.911 128.376 101.877C126.146 101.842 124.213 102.492 121.387 103.578L122.463 106.378ZM135.645 106.629C139.72 107.937 142.142 108.689 143.631 108.853C144.411 108.938 145.226 108.904 145.947 108.463C146.647 108.034 146.996 107.371 147.211 106.933L144.517 105.613C144.324 106.008 144.288 105.961 144.381 105.904C144.494 105.834 144.478 105.928 143.959 105.871C142.851 105.749 140.8 105.133 136.561 103.773L135.645 106.629ZM147.211 106.933C147.208 106.939 147.223 106.909 147.274 106.838C147.322 106.771 147.391 106.684 147.482 106.579C147.666 106.367 147.913 106.114 148.215 105.828C148.818 105.259 149.586 104.615 150.381 104.007C151.177 103.398 151.972 102.848 152.623 102.457C152.95 102.26 153.216 102.119 153.413 102.032C153.664 101.92 153.644 101.969 153.467 101.97L153.443 98.9702C152.957 98.9742 152.491 99.1591 152.195 99.2902C151.845 99.4458 151.463 99.6539 151.078 99.8851C150.304 100.35 149.415 100.97 148.559 101.624C147.702 102.279 146.851 102.99 146.155 103.647C145.52 104.247 144.835 104.965 144.517 105.613L147.211 106.933ZM153.467 101.97C153.762 101.968 154.145 102.042 154.835 102.492C155.561 102.966 156.513 103.781 157.922 105.144L160.008 102.989C158.584 101.61 157.457 100.622 156.474 99.9799C155.455 99.3146 154.499 98.9616 153.443 98.9702L153.467 101.97ZM157.922 105.144C158.511 105.715 158.996 106.175 159.395 106.528C159.778 106.867 160.154 107.173 160.516 107.379C160.852 107.57 161.5 107.864 162.25 107.606C162.941 107.368 163.274 106.799 163.393 106.59L160.787 105.104C160.705 105.249 160.84 104.918 161.275 104.769C161.769 104.599 162.102 104.83 162.001 104.772C161.925 104.729 161.743 104.6 161.383 104.281C161.038 103.976 160.595 103.557 160.008 102.989L157.922 105.144ZM163.393 106.59C163.252 106.837 163.116 106.79 163.443 106.69C163.707 106.609 164.11 106.548 164.617 106.541C165.646 106.527 166.801 106.739 167.608 107.121L168.891 104.409C167.58 103.789 165.951 103.523 164.577 103.541C163.884 103.551 163.181 103.633 162.565 103.821C162.013 103.99 161.224 104.338 160.787 105.104L163.393 106.59ZM167.608 107.121C168.129 107.367 168.791 108.089 169.329 109.595C169.85 111.055 170.171 113.034 170.182 115.387L173.182 115.372C173.169 112.785 172.82 110.451 172.154 108.586C171.505 106.768 170.464 105.153 168.891 104.409L167.608 107.121ZM170.182 115.387C170.199 119 172.196 122.727 175.539 126.14L177.682 124.041C174.621 120.915 173.194 117.896 173.182 115.372L170.182 115.387ZM175.539 126.14C176.309 126.926 177.022 127.614 177.659 128.043C178.226 128.423 179.365 129.012 180.491 128.254C180.951 127.945 181.227 127.509 181.402 127.144C181.581 126.769 181.715 126.34 181.823 125.896C182.04 125.012 182.215 123.83 182.399 122.388L179.424 122.008C179.238 123.459 179.081 124.484 178.909 125.182C178.824 125.53 178.749 125.737 178.696 125.849C178.637 125.971 178.654 125.875 178.817 125.765C179.036 125.618 179.281 125.6 179.431 125.629C179.523 125.647 179.502 125.666 179.332 125.552C178.986 125.32 178.473 124.849 177.682 124.041L175.539 126.14ZM182.399 122.388C183.074 117.112 182.542 112.212 180.585 109.262L178.085 110.921C179.44 112.963 180.068 116.968 179.424 122.008L182.399 122.388ZM180.585 109.262C179.156 107.11 178.22 103.814 177.934 99.2243L174.939 99.4113C175.241 104.243 176.241 108.143 178.085 110.921L180.585 109.262ZM177.934 99.2244C177.712 95.6761 177.711 94.415 178.406 93.187C178.769 92.5459 179.371 91.8429 180.439 90.8701C181.507 89.897 182.948 88.7345 184.928 87.1473L183.052 84.8063C181.096 86.3743 179.571 87.6018 178.418 88.6526C177.264 89.7038 176.39 90.6589 175.795 91.7089C174.575 93.8634 174.734 96.1176 174.939 99.4112L177.934 99.2244ZM184.928 87.1473C188.728 84.1022 192.511 80.7937 195.434 78.0211C196.895 76.6361 198.155 75.3716 199.099 74.3322C199.571 73.8134 199.977 73.3355 200.296 72.9164C200.589 72.5295 200.892 72.0851 201.056 71.654L198.25 70.5908C198.258 70.5717 198.245 70.6082 198.179 70.7138C198.118 70.8122 198.029 70.9411 197.906 71.1023C197.661 71.4252 197.318 71.8317 196.879 72.3146C196.003 73.2786 194.801 74.4869 193.37 75.8443C190.51 78.5564 186.79 81.8104 183.052 84.8063L184.928 87.1473ZM201.056 71.6539C201.285 71.0491 201.5 70.2463 201.1 69.3347C200.792 68.633 200.166 68.0293 199.543 67.4544L197.508 69.6584C197.833 69.9582 198.047 70.1702 198.192 70.334C198.338 70.4997 198.361 70.5581 198.353 70.5413C198.332 70.4931 198.319 70.4182 198.324 70.3632C198.325 70.3455 198.324 70.3962 198.25 70.5908L201.056 71.6539ZM199.543 67.4545C198.626 66.6075 198.47 66.0513 198.47 65.919H195.47C195.47 67.3401 196.414 68.6478 197.508 69.6583L199.543 67.4545ZM198.47 65.919C198.47 64.9116 198.798 62.4018 199.216 59.9658C199.42 58.7718 199.638 57.6439 199.832 56.7878C199.93 56.357 200.017 56.0156 200.089 55.7765C200.126 55.6556 200.152 55.5828 200.166 55.5473C200.198 55.4688 200.161 55.5923 200.031 55.7487L197.725 53.829C197.533 54.0602 197.427 54.3181 197.383 54.427C197.322 54.5789 197.266 54.7464 197.217 54.9121C197.116 55.2463 197.011 55.6635 196.907 56.1238C196.697 57.0498 196.469 58.2339 196.259 59.4589C195.847 61.8608 195.47 64.6167 195.47 65.919H198.47ZM200.031 55.7488C199.931 55.8688 199.856 55.8984 199.9 55.8744C199.93 55.8585 199.996 55.8282 200.102 55.7954C200.319 55.7285 200.589 55.685 200.831 55.685V52.685C200.276 52.685 199.708 52.7773 199.216 52.9293C198.799 53.0581 198.154 53.3141 197.725 53.8289L200.031 55.7488ZM200.831 55.685C202.22 55.685 203.47 55.3318 204.511 54.308C205.464 53.3707 206.101 52.0004 206.659 50.3281L203.813 49.3781C203.286 50.9577 202.83 51.7533 202.408 52.1689C202.073 52.4981 201.663 52.685 200.831 52.685V55.685ZM206.659 50.3279C207.601 47.5046 209.212 45.7526 211.727 44.7047L210.573 41.9355C207.204 43.339 205.011 45.7887 203.813 49.3783L206.659 50.3279ZM211.727 44.7047C213.535 43.9513 218.116 42.5535 220.135 42.1408L219.534 39.2016C217.334 39.6513 212.568 41.1044 210.573 41.9354L211.727 44.7047ZM220.135 42.1409C220.549 42.0562 220.976 41.9602 221.329 41.8267C221.623 41.7155 222.28 41.4342 222.593 40.7164C222.926 39.9525 222.636 39.2631 222.484 38.9608C222.313 38.6204 222.058 38.2702 221.819 37.9556L219.429 39.7689C219.543 39.9189 219.63 40.0378 219.696 40.1346C219.763 40.234 219.793 40.2873 219.803 40.3074C219.816 40.3329 219.779 40.2697 219.759 40.1429C219.735 39.9966 219.734 39.7664 219.844 39.5161C219.95 39.2734 220.106 39.1332 220.193 39.0701C220.271 39.0136 220.314 39.0032 220.268 39.0205C220.228 39.0357 220.152 39.0602 220.021 39.0933C219.892 39.1258 219.733 39.1609 219.534 39.2016L220.135 42.1409ZM221.819 37.9556C221.629 37.7041 221.418 37.0449 221.477 36.0361C221.532 35.0785 221.817 34.088 222.264 33.3604L219.708 31.7892C218.96 33.0067 218.56 34.4959 218.481 35.8638C218.406 37.1805 218.613 38.6925 219.429 39.7689L221.819 37.9556ZM222.264 33.3602C222.323 33.2643 222.509 33.0277 222.888 32.639C223.247 32.2716 223.719 31.8282 224.287 31.3283C225.421 30.3296 226.893 29.1433 228.505 27.946L226.716 25.5378C225.05 26.775 223.512 28.0134 222.305 29.0768C221.701 29.6078 221.17 30.1047 220.742 30.5429C220.335 30.9596 219.951 31.3936 219.708 31.7894L222.264 33.3602ZM228.505 27.9459C230.065 26.7863 231.605 25.5653 232.832 24.5279C233.445 24.0097 233.988 23.5298 234.422 23.1212C234.827 22.7397 235.22 22.3433 235.457 22.0115L233.016 20.2675C233.016 20.2675 233.016 20.2679 233.015 20.2687C233.014 20.2695 233.014 20.2707 233.012 20.2722C233.01 20.2754 233.007 20.2798 233.002 20.2855C232.993 20.297 232.98 20.3124 232.963 20.3319C232.93 20.3713 232.885 20.4213 232.826 20.4825C232.71 20.6056 232.556 20.7579 232.365 20.9377C231.983 21.2972 231.483 21.7397 230.895 22.237C229.72 23.2304 228.23 24.4125 226.715 25.5378L228.505 27.9459ZM235.457 22.0112C235.694 21.6793 235.911 21.3696 236.073 21.0973C236.22 20.8496 236.428 20.4663 236.485 20.0082C236.557 19.4248 236.369 18.9226 236.069 18.5416C235.838 18.2489 235.54 18.0309 235.37 17.9075L233.603 20.332C233.685 20.3916 233.729 20.4259 233.753 20.4466C233.779 20.4682 233.754 20.4505 233.713 20.3985C233.667 20.3405 233.595 20.232 233.547 20.0751C233.498 19.9125 233.492 19.7598 233.507 19.6389C233.521 19.5299 233.548 19.4664 233.549 19.4651C233.55 19.4634 233.537 19.4921 233.495 19.563C233.406 19.7126 233.26 19.9259 233.016 20.2677L235.457 22.0112ZM235.371 17.9077C234.81 17.4987 234.01 17.2668 233.3 17.113C232.523 16.9447 231.592 16.819 230.589 16.735C228.581 16.5668 226.174 16.5564 223.929 16.7516L224.189 19.7403C226.261 19.5602 228.497 19.5702 230.338 19.7245C231.26 19.8017 232.054 19.9127 232.665 20.045C232.97 20.1111 233.209 20.1782 233.384 20.2406C233.574 20.308 233.625 20.3479 233.603 20.3318L235.371 17.9077ZM223.929 16.7516C222.241 16.8986 221.049 17.0134 220.124 17.3542C219.063 17.7454 218.428 18.3976 217.729 19.1581L219.938 21.1882C220.618 20.4475 220.835 20.2895 221.162 20.1689C221.626 19.9981 222.357 19.8998 224.189 19.7403L223.929 16.7516ZM217.729 19.158L216.257 20.759L218.466 22.7892L219.938 21.1882L217.729 19.158ZM217.261 20.2774L211.777 20.6454L211.977 23.6386L217.462 23.2707L217.261 20.2774ZM211.777 20.6454C205.82 21.0452 197.028 21.1174 189.044 20.9385C185.056 20.8491 181.285 20.6975 178.185 20.4944C175.051 20.2891 172.699 20.0367 171.491 19.766L170.835 22.6935C172.3 23.0217 174.87 23.2837 177.989 23.488C181.144 23.6946 184.96 23.8477 188.977 23.9377C197.002 24.1176 205.894 24.047 211.978 23.6386L211.777 20.6454ZM171.491 19.7661C171.089 19.676 170.639 19.509 170.257 19.3141C170.068 19.2178 169.916 19.1246 169.805 19.0451C169.683 18.9574 169.661 18.9215 169.685 18.9533L167.313 20.7899C167.718 21.3125 168.36 21.7142 168.894 21.9866C169.477 22.284 170.163 22.5429 170.835 22.6934L171.491 19.7661ZM169.686 18.9536C168.382 17.2685 165.914 16.487 163.488 16.487V19.487C165.457 19.487 166.814 20.1444 167.313 20.7896L169.686 18.9536ZM163.488 16.487C162.609 16.487 161.808 16.601 160.934 17.1024C160.162 17.5452 159.404 18.2547 158.472 19.1982L160.606 21.3066C161.561 20.3403 162.056 19.9171 162.427 19.7047C162.695 19.5508 162.925 19.487 163.488 19.487V16.487ZM158.472 19.1982C157.399 20.2842 156.535 21.0205 155.862 21.4595C155.131 21.9369 154.88 21.896 154.941 21.905C155.21 21.9444 155.181 22.1746 155.057 21.7987C154.92 21.3849 154.829 20.6288 154.879 19.4129L151.881 19.2903C151.827 20.6198 151.901 21.8085 152.209 22.7401C152.529 23.7096 153.224 24.6858 154.507 24.8734C155.581 25.0305 156.632 24.5399 157.503 23.9713C158.432 23.3642 159.469 22.458 160.606 21.3066L158.472 19.1982ZM154.879 19.4129C154.973 17.1076 154.84 15.59 153.971 14.2685L151.464 15.9167C151.769 16.3803 151.973 17.0374 151.881 19.2902L154.879 19.4129ZM153.971 14.2687C152.242 11.6385 149.87 9.33619 146.648 7.08021L144.927 9.53762C147.928 11.6391 149.997 13.6842 151.464 15.9165L153.971 14.2687ZM146.648 7.08012C145.259 6.10769 144.255 5.44577 143.293 5.05933C142.252 4.64091 141.34 4.57381 140.226 4.57381V7.57381C141.204 7.57381 141.663 7.63729 142.175 7.84294C142.766 8.08058 143.497 8.53621 144.927 9.53771L146.648 7.08012ZM140.226 4.57381C137.639 4.57381 133.053 3.45999 125.066 0.736021L124.098 3.57543C132.01 6.27382 137.061 7.57381 140.226 7.57381V4.57381ZM125.066 0.736005L119.089 -1.30253L118.12 1.53691L124.098 3.57544L125.066 0.736005ZM118.604 -1.38281H63.558V1.61719H118.604V-1.38281ZM63.558 -1.38281C41.7417 -1.38281 27.9628 -1.35316 19.6193 -1.26664C15.4509 -1.22341 12.6223 -1.16585 10.8214 -1.08978C9.92664 -1.05198 9.25385 -1.00842 8.78708 -0.955488C8.5619 -0.929952 8.33071 -0.896548 8.12932 -0.845724C8.0352 -0.82197 7.87717 -0.777471 7.70966 -0.69391C7.63291 -0.655623 7.10158 -0.402517 6.90019 0.243523L9.76425 1.13636C9.5717 1.75402 9.0713 1.9794 9.04884 1.9906C8.98522 2.02234 8.93528 2.04042 8.91061 2.04879C8.88394 2.05784 8.86687 2.0622 8.8634 2.06308C8.85806 2.06443 8.87545 2.05992 8.92546 2.05188C8.97312 2.04422 9.03857 2.03522 9.12512 2.02541C9.48201 1.98493 10.0678 1.94473 10.948 1.90755C12.6972 1.83366 15.4846 1.7764 19.6504 1.7332C27.9756 1.64687 41.7387 1.61719 63.558 1.61719V-1.38281Z" fill="#E72434" mask="url(#path-1-inside-1_74_980)"/>
</svg>
