<svg width="250" height="119" viewBox="0 0 250 119" fill="none" xmlns="http://www.w3.org/2000/svg">
<path d="M22.6436 20.1562C26.6766 16.1304 31.5012 14.5676 41.0098 14.5767C45.8225 14.5814 49.3756 14.8724 53.2907 15.8171C57.2244 16.7662 61.5595 18.3836 67.9304 21.0867L68.321 20.1662L67.9305 21.0867C71.7759 22.7182 75.1147 23.0058 77.6686 21.4767L77.6687 21.4766C79.8221 20.1867 80.9329 18.1025 83.0094 12.5778L82.0733 12.226L83.0094 12.5778C85.2752 6.54909 89.4494 2.53763 94.3636 1.37754C96.2238 0.93851 97.6219 0.871714 99.1185 1.23339C100.652 1.6041 102.366 2.44239 104.824 3.96521L104.824 3.96525C109.851 7.07862 114.27 8.99293 119.32 10.2296L119.32 10.2297C124.438 11.4827 133.074 11.6444 152.905 10.9485C164.528 10.5407 176.015 10.8549 197.006 12.161C205.645 12.6986 210.561 13.1701 215.065 14.4801C219.563 15.7883 223.697 17.9466 230.741 21.9699C233.169 23.3568 235.571 24.6916 237.485 25.7257C239.362 26.7399 240.852 27.5095 241.399 27.718L241.755 26.7835L241.399 27.718C242.946 28.3073 244.48 29.0185 245.742 29.7094C247.037 30.4187 247.943 31.0518 248.327 31.4638C248.89 32.0693 249.037 32.5535 248.993 33.0044C248.943 33.5133 248.631 34.1939 247.82 35.1197C246.604 36.5067 245.006 37.6937 241.897 39.1472C238.77 40.6096 234.182 42.311 227.032 44.7531C211.647 50.008 205.139 53.9687 199.565 61.7931L200.38 62.3733L199.565 61.7931C198.981 62.6133 198.348 63.4124 197.803 64.0345C197.53 64.3461 197.287 64.6045 197.089 64.7957C196.889 64.989 196.789 65.0606 196.774 65.071C196.773 65.0721 196.772 65.0725 196.772 65.0723L196.772 65.0727C196.483 65.2274 195.886 65.4324 194.928 65.6613C193.996 65.884 192.798 66.1124 191.364 66.3398C188.498 66.7942 184.735 67.2369 180.361 67.6207C175.365 68.0588 170.506 68.7638 168.568 69.3635C165.376 70.351 162.766 71.7867 160.617 73.8465C158.472 75.9032 156.836 78.5363 155.523 81.8505C154.518 84.3852 153.964 85.0333 153.173 85.4435C148.68 87.7722 142.019 88.085 136.338 86.142C134.554 85.5316 133.338 85.1714 131.763 84.9777C130.221 84.7878 128.355 84.7606 125.274 84.7662C122.194 84.7721 120.328 84.8064 118.784 85.0029C117.208 85.2033 115.991 85.5693 114.204 86.1882C106.863 88.7322 101.318 92.5117 96.9035 98.0209L96.9034 98.021C94.8035 100.643 93.4536 103.351 91.3729 108.953C91.1533 109.545 90.9572 109.94 90.7278 110.242C90.5103 110.528 90.2341 110.768 89.7998 110.992C88.8575 111.478 87.2928 111.844 84.2949 112.364L84.2947 112.364C81.1922 112.903 75.6176 114.117 71.8878 115.066C63.0552 117.313 56.6216 118.274 51.2501 117.933C45.919 117.595 41.5786 115.971 36.9385 112.933C34.4864 111.327 32.6456 110.356 30.657 110.207C28.6699 110.059 26.6952 110.743 24.0114 111.963L24.0113 111.963C21.4397 113.133 19.6515 113.607 17.4013 113.747C16.5678 113.799 15.9877 113.834 15.5345 113.833C15.0875 113.832 14.8374 113.794 14.6558 113.735C14.2887 113.615 14.0008 113.363 13.0076 112.358C12.3057 111.648 11.8824 111.102 11.5689 110.484C11.25 109.854 11.016 109.093 10.769 107.909L10.769 107.909C9.64985 102.546 10.8457 97.6173 13.4629 94.1604C16.0726 90.7136 20.1117 88.6981 24.8218 89.1333C31.5598 89.7558 35.4319 90.0253 39.1087 89.3618C42.7894 88.6975 46.2217 87.1079 52.113 84.2059L51.6712 83.3088L52.1131 84.2059C60.2734 80.1858 66.0507 78.0072 69.9826 77.3964L72.1645 77.0579L75.2343 76.5817L72.4632 75.1777L69.5768 73.7154L69.1249 74.6074L69.5768 73.7154C67.9424 72.8875 63.5494 71.0218 59.8125 69.5621L59.8124 69.562C54.9743 67.6727 52.0605 66.4392 49.7959 65.1722C47.5579 63.9201 45.9316 62.6226 43.6941 60.565C42.5797 59.5398 41.519 58.6044 40.7058 57.9218C40.3007 57.5818 39.948 57.2968 39.6765 57.0931C39.5428 56.9927 39.4139 56.9007 39.3007 56.8296C39.2455 56.7949 39.1754 56.7534 39.0989 56.717L39.0946 56.7149C39.0525 56.6946 38.8581 56.6009 38.6094 56.6009C38.4023 56.6009 38.2391 56.6643 38.1918 56.6827L38.1909 56.683C38.1166 56.7119 38.049 56.7453 37.996 56.7733C37.8882 56.8303 37.7696 56.9029 37.6509 56.9799C37.4097 57.1363 37.103 57.3529 36.7567 57.6086C36.061 58.1224 35.1639 58.8248 34.23 59.5934L34.2299 59.5935C31.6761 61.6957 29.7015 62.9424 28.0085 63.5283C26.3659 64.0968 24.9669 64.0513 23.4934 63.4901C23.252 63.3982 22.6436 63.0409 21.7953 62.4549C20.9835 61.8942 20.0399 61.1861 19.166 60.4698L19.1659 60.4697C15.5278 57.4883 10.8028 55.1272 4.34464 53.0028C4.34461 53.0028 4.34457 53.0028 4.34454 53.0028L1.4601 52.0536L1.73237 51.5621C1.91002 51.2413 2.45081 50.5361 3.25119 49.6135C4.02738 48.7187 4.98557 47.6897 5.93441 46.7469C8.61256 44.0859 10.4026 42.8197 14.4916 40.7246L14.4917 40.7245C15.9638 39.97 17.4049 39.1719 18.5443 38.4914C19.1133 38.1516 19.6149 37.8364 20.0108 37.5673C20.3752 37.3196 20.7373 37.0538 20.9502 36.8182L20.9502 36.8181C22.7917 34.7799 22.6544 31.5411 21.3045 27.6272L21.3045 27.6271C20.547 25.4313 20.324 24.2459 20.4979 23.3092C20.6649 22.409 21.2342 21.5634 22.6436 20.1562ZM22.6436 20.1562L21.9371 19.4485M22.6436 20.1562L21.9371 19.4485M21.9371 19.4485C19.0898 22.2914 18.8505 23.5795 20.3591 27.9532C21.6963 31.8303 21.646 34.5563 20.2082 36.1478M21.9371 19.4485L20.2082 36.1478M180.448 68.6168C189.224 67.8468 195.599 66.8361 197.244 65.954L180.448 68.6168ZM180.448 68.6168C175.445 69.0557 170.686 69.7548 168.863 70.3189C162.718 72.22 159.002 75.7831 156.452 82.2188C155.442 84.7692 154.777 85.7384 153.633 86.3313C148.859 88.8058 141.909 89.1042 136.014 87.0881C132.485 85.8807 131.461 85.755 125.276 85.7662C119.092 85.778 118.066 85.9086 114.532 87.1331C107.348 89.6223 101.968 93.2999 97.6839 98.6461C95.6855 101.141 94.38 103.729 92.3103 109.302C91.3789 111.809 90.3846 112.322 84.4659 113.349C81.3935 113.883 75.8445 115.092 72.1343 116.035C54.41 120.543 45.9131 120.005 36.3907 113.769C31.4942 110.563 29.7868 110.435 24.4254 112.873C21.7661 114.083 19.8585 114.596 17.4635 114.745C14.1787 114.95 14.1572 114.943 12.2964 113.061C10.8123 111.56 10.297 110.543 9.79008 108.113L180.448 68.6168ZM20.2082 36.1478C19.7237 36.684 16.9458 38.3429 14.0356 39.8346L20.2082 36.1478Z" stroke="#E72434" stroke-width="2"/>
</svg>
