<svg width="113" height="177" viewBox="0 0 113 177" fill="none" xmlns="http://www.w3.org/2000/svg">
<path d="M1.75513 13.526L1.75513 13.526C1.65438 15.6205 1.8274 17.4965 2.42372 20.5077L2.42373 20.5078C3.38213 25.3484 4.62837 28.357 7.55607 32.8577L7.55609 32.8577C11.4202 38.7983 13.8749 41.5408 18.1421 44.7495C22.6801 48.162 25.1296 51.5595 26.0339 55.9738M1.75513 13.526L80.8357 73.9913M1.75513 13.526C1.86907 11.1554 2.0318 9.89175 2.37087 9.0584M1.75513 13.526L2.37087 9.0584M26.0339 55.9738L25.0543 56.1744L26.0339 55.9738ZM26.0339 55.9738C26.6653 59.0545 26.3526 61.936 25.0136 66.6057L25.0136 66.6057C24.6001 68.0475 24.3268 69.1518 24.2007 70.0464C24.0753 70.9359 24.1056 71.5545 24.2498 72.0461C24.5317 73.0073 25.3366 73.8007 27.4332 75.1619C30.0895 76.8864 32.8538 79.6409 34.7114 82.4015C35.752 83.948 38.0725 88.0089 40.2378 91.9553C42.3952 95.8873 44.4747 99.8437 45.002 101.164L45.002 101.164C46.8808 105.869 46.3637 111.08 43.5976 118.31C40.7826 125.667 39.4472 132.079 39.3284 138.708L38.3286 138.69L39.3284 138.708C39.2974 140.432 39.8121 144.449 40.4562 148.191C40.7754 150.045 41.1199 151.794 41.4323 153.113C41.589 153.775 41.7335 154.31 41.8582 154.69C41.902 154.824 41.9401 154.928 41.9718 155.006C42.0653 155.044 42.1881 155.09 42.3411 155.144C42.7242 155.281 43.2547 155.454 43.8986 155.652C45.1839 156.049 46.8886 156.537 48.6997 157.021C52.3107 157.985 54.7132 158.749 56.5261 159.689C58.3882 160.655 59.5975 161.79 60.8727 163.409C61.8863 164.696 62.8336 165.513 64.3511 166.193C65.9253 166.899 68.1323 167.467 71.7072 168.169C76.8895 169.188 79.9549 170.871 81.646 174.126L82.0991 174.998L82.2571 174.891L82.2573 174.89C82.9739 174.403 84.2131 173.895 85.0966 173.715C86.1951 173.493 87.2635 173.111 88.1229 172.666C89.0185 172.202 89.5533 171.739 89.7466 171.425C90.0475 170.937 90.1643 170.494 89.9313 168.799C89.7488 167.472 89.4879 166.568 89.0833 165.83C88.6826 165.099 88.1017 164.46 87.1669 163.727L87.1668 163.727C85.4895 162.41 83.3735 161.755 79.5134 161.581C76.067 161.426 73.5857 160.89 71.4271 159.055C69.3388 157.279 67.6607 154.368 65.5096 149.832L66.4132 149.404L65.5096 149.832C63.4961 145.586 61.9511 142.892 60.3837 141.085C58.8555 139.323 57.2875 138.383 55.1453 137.711L55.4446 136.757L55.1452 137.711C52.6293 136.922 50.6704 135.906 49.2938 134.532C47.8919 133.132 47.1569 131.423 46.9887 129.392C46.9319 128.706 46.9789 127.573 47.0881 126.205C47.1992 124.814 47.3807 123.112 47.6131 121.25C48.078 117.528 48.75 113.14 49.481 109.277C51.019 101.148 51.1366 98.5014 50.2795 93.255L51.2665 93.0938L50.2795 93.2549C50.0787 92.0255 49.9147 90.7904 49.8121 89.7868C49.7608 89.2857 49.724 88.8342 49.7062 88.4659C49.6898 88.1298 49.6835 87.7731 49.7258 87.5156L49.7258 87.5153C49.8943 86.4916 50.5652 85.6607 51.4244 85.0509C52.2887 84.4375 53.4177 83.9895 54.6944 83.7308C56.5239 83.36 58.14 83.2648 59.3418 84.2469C59.9295 84.7271 60.3239 85.3915 60.6164 86.1632C60.9078 86.9318 61.123 87.874 61.3112 88.9823C61.6523 90.9915 61.927 91.5527 62.2389 91.8693C62.4141 92.0472 62.4644 92.0786 62.4888 92.091C62.4926 92.0929 62.5436 92.1239 62.7569 92.1274C63.2629 92.1357 64.1589 91.9983 66.1301 91.6639L70.1516 90.9819L70.371 90.9446L70.5855 91.004L77.3793 92.8838C80.6503 93.7889 82.279 94.2277 83.1415 94.3633C83.2483 94.38 83.3324 94.39 83.3974 94.396C83.4426 94.2163 83.4713 93.9388 83.4436 93.5329C83.4067 92.9953 83.2764 92.3099 83.0344 91.4736L83.995 91.1956M83.995 91.1956L83.0345 91.4742C83.0396 91.4917 83.0333 91.467 82.9926 91.3803C82.9562 91.303 82.9044 91.2014 82.8362 91.0756C82.6999 90.8244 82.5125 90.5032 82.2851 90.1319C81.8309 89.3905 81.234 88.4771 80.6062 87.5751L81.427 87.0038L80.6062 87.575C78.7489 84.9063 77.6625 82.6993 77.5594 80.4314C77.4555 78.1446 78.3583 75.9909 79.995 73.4498L80.8357 73.9913M83.995 91.1956C84.503 92.9515 84.5908 94.2324 84.2534 94.9694L83.995 91.1956ZM80.8357 73.9913L79.9951 73.4498C81.8261 70.6071 84.518 68.2865 87.8049 66.6798C89.2782 65.9595 92.5998 64.9627 95.9624 64.1133C99.3448 63.259 102.942 62.5108 105.012 62.3239C106.892 62.1542 108.002 61.9615 108.733 61.6776C109.386 61.4242 109.736 61.1003 110.069 60.5447C110.728 59.4482 110.921 58.6676 111.116 54.5898L112.115 54.6374M80.8357 73.9913C82.5585 71.3169 85.1044 69.1129 88.2441 67.5782C90.9748 66.2432 101.129 63.6784 105.102 63.3199C108.861 62.9805 110.05 62.5193 110.927 61.0596C111.732 59.7195 111.921 58.694 112.115 54.6374M112.115 54.6374L111.116 54.5897C111.286 51.0312 110.772 48.0186 109.751 46.0044L109.751 46.0043C109.196 44.9082 108.636 44.3261 106.021 42.5952C103.342 40.8226 101.706 39.6585 100.443 38.1531C99.1799 36.6464 98.333 34.848 97.0821 31.9335C96.2576 30.0127 95.131 27.6873 94.5919 26.7758C93.4534 24.8511 91.783 22.9359 89.9542 21.3701C88.1168 19.7969 86.1875 18.6345 84.5563 18.1421M112.115 54.6374C112.29 50.9813 111.77 47.7768 110.643 45.5524L84.5563 18.1421M84.5563 18.1421C82.9055 17.6439 81.2965 17.8934 79.349 19.1189L78.8164 18.2725L79.349 19.1189C77.1072 20.5295 73.7452 21.7285 68.427 23.0912C61.8108 24.7864 58.9012 26.2875 56.5567 28.9298L56.5567 28.9299L55.6531 29.9481L55.1241 30.5442L54.425 30.1615L52.8849 29.3185L52.8848 29.3184L51.3447 28.4758L50.7513 28.1511L50.8318 27.4795L51.0996 25.2452C51.5534 21.4592 51.0407 18.4708 49.1 15.376C47.1195 12.2177 43.6193 8.89421 37.9394 4.55669C35.3735 2.59716 33.9216 1.76105 32.0085 1.63175C29.9909 1.4954 27.3675 2.13329 22.4413 3.61177C19.5571 4.47743 17.8556 4.96908 16.3781 5.27401C14.8818 5.58283 13.6307 5.69711 11.6568 5.83208C6.50562 6.18462 5.51513 6.42574 4.15715 7.24736L84.5563 18.1421ZM2.37087 9.0584C2.66831 8.32738 3.12549 7.87161 4.15711 7.24738L2.37087 9.0584ZM42.0315 155.138C42.0371 155.146 42.0398 155.151 42.0397 155.152C42.0397 155.152 42.0369 155.148 42.0315 155.138Z" stroke="#E72434" stroke-width="2"/>
</svg>
