<svg width="224" height="135" viewBox="0 0 224 135" fill="none" xmlns="http://www.w3.org/2000/svg">
<mask id="path-1-inside-1_74_1031" fill="white">
<path fill-rule="evenodd" clip-rule="evenodd" d="M187.57 0.347623C186.773 0.587625 185.589 1.41664 184.939 2.18978C183.6 3.78232 183.454 5.43577 184.292 9.49749C184.755 11.7445 184.718 12.3578 184.009 14.1052C183.559 15.214 183.031 17.5316 182.836 19.2556C182.532 21.9401 182.261 22.6202 180.946 23.9961C178.829 26.2111 175.141 28.6684 170.22 31.1417C163.34 34.5997 161.819 36.3608 160.603 42.2761C159.639 46.9686 157.08 52.0842 155.704 52.07C155.407 52.0668 154.688 51.3298 154.107 50.4321C152.737 48.3147 150.366 47.3125 147.525 47.6496C146.336 47.7907 143.11 48.9536 140.357 50.2342C135.671 52.4144 130.585 53.9579 130.003 53.3763C129.863 53.2352 130.475 52.0365 131.365 50.7129C133.53 47.4925 133.776 46.3182 132.702 44.3436C131.121 41.4357 129.922 41.3409 123.198 43.5907C117.698 45.431 117.161 45.7191 114.728 48.1287C113.3 49.5435 111.869 50.7014 111.55 50.7014C110.379 50.7014 108.433 52.0384 107.901 53.2077C107.6 53.8682 107.354 55.9086 107.354 57.7426C107.354 60.7412 107.235 61.1878 106.166 62.1867C104.693 63.5626 103.236 66.3396 103.236 67.7714C103.236 70.5456 100.383 71.4012 100.122 68.7057C100.012 67.5804 100.334 66.8572 101.548 65.5033C103.807 62.9832 105.066 60.2365 105.066 57.8282C105.066 55.3489 103.904 52.2202 102.754 51.6042C100.657 50.4802 98.041 51.5799 96.2045 54.3578C92.4827 59.9882 89.7615 61.6614 84.0678 61.8208C80.5194 61.9202 80.3698 61.8803 78.9003 60.4605C75.1332 56.8187 70.2329 56.2893 58.2101 58.2244C45.5684 60.2594 46.1929 60.323 46.7442 57.056C47.0209 55.4167 47.1724 55.2363 48.0398 55.5148C48.5801 55.6883 50.2573 55.9311 51.7671 56.0543C54.115 56.2457 54.7436 56.1216 56.1134 55.1983C56.9941 54.6042 58.0871 53.401 58.5423 52.5243C61.2891 47.2333 55.0268 38.3349 48.5563 38.3349C45.6946 38.3349 43.9817 39.692 38.4908 46.309C35.398 50.0364 31.9215 52.1831 27.0454 53.3758C24.8686 53.9085 22.1716 54.8021 21.0521 55.3618C18.4717 56.652 14.9252 60.3876 13.377 63.4463C10.4375 69.254 9.56549 78.8165 11.1274 88.1157C11.6938 91.4876 11.7912 93.2657 11.4801 94.528C11.0515 96.2657 11.0355 96.2758 8.22912 96.5858C5.12129 96.9289 3.33061 97.6929 1.81536 99.3225C-0.710525 102.038 -0.61811 104.908 2.20286 111.34C8.45421 125.595 13.6954 133.145 17.3412 133.145C20.3338 133.145 21.489 131.574 24.25 123.756C25.5846 119.977 27.0975 115.958 27.6122 114.824C30.1656 109.203 33.7593 106.536 37.4646 107.514C40.7884 108.391 43.0114 110.028 45.7628 113.624C49.0184 117.88 52.0201 120.035 54.2097 119.69C56.3188 119.357 56.9868 118.691 58.4558 115.456C59.4367 113.296 60.2602 112.27 62.0399 110.99C63.3109 110.076 64.5489 109.328 64.7913 109.328C65.0334 109.328 66.1918 109.938 67.3648 110.682C68.5378 111.427 70.6556 112.271 72.0702 112.557C75.9526 113.343 76.5794 113.706 77.6362 115.78C79.3071 119.059 80.5245 119.862 83.8185 119.862C87.1016 119.862 87.2141 119.958 90.8778 125.819C94.6037 131.781 99.3627 134.145 107.583 134.117C112.903 134.098 118.072 132.936 121.784 130.923C123.77 129.847 124.609 129.646 126.419 129.815C128.212 129.983 129.187 129.756 131.602 128.607C133.237 127.828 134.915 127.191 135.331 127.191C135.746 127.191 137.187 127.704 138.533 128.331C141.603 129.762 144.522 129.808 148.424 128.489C151.084 127.59 151.666 127.546 154.688 128.016C158.708 128.642 159.957 128.343 163.656 125.87C165.287 124.78 167.208 123.915 168.396 123.737C170.787 123.378 172.902 122.17 173.954 120.563C174.416 119.857 174.934 117.519 175.252 114.701C175.543 112.124 175.941 109.758 176.136 109.442C176.346 109.104 177.458 108.87 178.852 108.87C181.079 108.87 181.347 109.003 183.588 111.219L185.964 113.568L190.114 113.951C194.471 114.354 196.682 115.159 197.469 116.631C197.728 117.116 197.94 119.181 197.94 121.221C197.94 125.308 198.563 127.296 200.369 128.961C202.891 131.289 207.493 130.424 209.07 127.325C210.713 124.096 211.845 117.472 211.869 110.931C211.893 104.765 211.835 104.36 210.369 100.397C209.531 98.1294 208.129 94.0599 207.255 91.353C206.205 88.1019 205.369 86.2726 204.791 85.9625C204.309 85.7047 202.221 85.5489 200.151 85.6167C196.549 85.7344 196.361 85.6909 195.766 84.5949C195.316 83.7636 195.212 82.3208 195.388 79.3277C195.854 71.4076 196.058 70.3642 197.934 66.286C199.227 63.4761 199.91 61.2198 200.228 58.7085C200.478 56.7418 200.766 55.0471 200.871 54.9431C200.975 54.8387 201.932 56.2636 202.998 58.109C206.529 64.2208 208.13 66.4747 210.954 69.3066C215.837 74.2029 220.517 75.7743 222.954 73.3345C224.037 72.2503 224.117 71.9105 223.907 69.2915C223.744 67.2524 223.151 65.3058 221.84 62.5046C219.784 58.114 217.168 54.988 213.677 52.752C209.118 49.8326 207.98 44.1371 209.598 32.3357C211.08 21.5242 209.514 17.3287 202.858 14.281L200.227 13.0765V9.42329C200.227 4.65347 198.847 2.0707 195.652 0.864272C193.82 0.172662 189.145 -0.126428 187.57 0.347623Z"/>
</mask>
<path fill-rule="evenodd" clip-rule="evenodd" d="M187.57 0.347623C186.773 0.587625 185.589 1.41664 184.939 2.18978C183.6 3.78232 183.454 5.43577 184.292 9.49749C184.755 11.7445 184.718 12.3578 184.009 14.1052C183.559 15.214 183.031 17.5316 182.836 19.2556C182.532 21.9401 182.261 22.6202 180.946 23.9961C178.829 26.2111 175.141 28.6684 170.22 31.1417C163.34 34.5997 161.819 36.3608 160.603 42.2761C159.639 46.9686 157.08 52.0842 155.704 52.07C155.407 52.0668 154.688 51.3298 154.107 50.4321C152.737 48.3147 150.366 47.3125 147.525 47.6496C146.336 47.7907 143.11 48.9536 140.357 50.2342C135.671 52.4144 130.585 53.9579 130.003 53.3763C129.863 53.2352 130.475 52.0365 131.365 50.7129C133.53 47.4925 133.776 46.3182 132.702 44.3436C131.121 41.4357 129.922 41.3409 123.198 43.5907C117.698 45.431 117.161 45.7191 114.728 48.1287C113.3 49.5435 111.869 50.7014 111.55 50.7014C110.379 50.7014 108.433 52.0384 107.901 53.2077C107.6 53.8682 107.354 55.9086 107.354 57.7426C107.354 60.7412 107.235 61.1878 106.166 62.1867C104.693 63.5626 103.236 66.3396 103.236 67.7714C103.236 70.5456 100.383 71.4012 100.122 68.7057C100.012 67.5804 100.334 66.8572 101.548 65.5033C103.807 62.9832 105.066 60.2365 105.066 57.8282C105.066 55.3489 103.904 52.2202 102.754 51.6042C100.657 50.4802 98.041 51.5799 96.2045 54.3578C92.4827 59.9882 89.7615 61.6614 84.0678 61.8208C80.5194 61.9202 80.3698 61.8803 78.9003 60.4605C75.1332 56.8187 70.2329 56.2893 58.2101 58.2244C45.5684 60.2594 46.1929 60.323 46.7442 57.056C47.0209 55.4167 47.1724 55.2363 48.0398 55.5148C48.5801 55.6883 50.2573 55.9311 51.7671 56.0543C54.115 56.2457 54.7436 56.1216 56.1134 55.1983C56.9941 54.6042 58.0871 53.401 58.5423 52.5243C61.2891 47.2333 55.0268 38.3349 48.5563 38.3349C45.6946 38.3349 43.9817 39.692 38.4908 46.309C35.398 50.0364 31.9215 52.1831 27.0454 53.3758C24.8686 53.9085 22.1716 54.8021 21.0521 55.3618C18.4717 56.652 14.9252 60.3876 13.377 63.4463C10.4375 69.254 9.56549 78.8165 11.1274 88.1157C11.6938 91.4876 11.7912 93.2657 11.4801 94.528C11.0515 96.2657 11.0355 96.2758 8.22912 96.5858C5.12129 96.9289 3.33061 97.6929 1.81536 99.3225C-0.710525 102.038 -0.61811 104.908 2.20286 111.34C8.45421 125.595 13.6954 133.145 17.3412 133.145C20.3338 133.145 21.489 131.574 24.25 123.756C25.5846 119.977 27.0975 115.958 27.6122 114.824C30.1656 109.203 33.7593 106.536 37.4646 107.514C40.7884 108.391 43.0114 110.028 45.7628 113.624C49.0184 117.88 52.0201 120.035 54.2097 119.69C56.3188 119.357 56.9868 118.691 58.4558 115.456C59.4367 113.296 60.2602 112.27 62.0399 110.99C63.3109 110.076 64.5489 109.328 64.7913 109.328C65.0334 109.328 66.1918 109.938 67.3648 110.682C68.5378 111.427 70.6556 112.271 72.0702 112.557C75.9526 113.343 76.5794 113.706 77.6362 115.78C79.3071 119.059 80.5245 119.862 83.8185 119.862C87.1016 119.862 87.2141 119.958 90.8778 125.819C94.6037 131.781 99.3627 134.145 107.583 134.117C112.903 134.098 118.072 132.936 121.784 130.923C123.77 129.847 124.609 129.646 126.419 129.815C128.212 129.983 129.187 129.756 131.602 128.607C133.237 127.828 134.915 127.191 135.331 127.191C135.746 127.191 137.187 127.704 138.533 128.331C141.603 129.762 144.522 129.808 148.424 128.489C151.084 127.59 151.666 127.546 154.688 128.016C158.708 128.642 159.957 128.343 163.656 125.87C165.287 124.78 167.208 123.915 168.396 123.737C170.787 123.378 172.902 122.17 173.954 120.563C174.416 119.857 174.934 117.519 175.252 114.701C175.543 112.124 175.941 109.758 176.136 109.442C176.346 109.104 177.458 108.87 178.852 108.87C181.079 108.87 181.347 109.003 183.588 111.219L185.964 113.568L190.114 113.951C194.471 114.354 196.682 115.159 197.469 116.631C197.728 117.116 197.94 119.181 197.94 121.221C197.94 125.308 198.563 127.296 200.369 128.961C202.891 131.289 207.493 130.424 209.07 127.325C210.713 124.096 211.845 117.472 211.869 110.931C211.893 104.765 211.835 104.36 210.369 100.397C209.531 98.1294 208.129 94.0599 207.255 91.353C206.205 88.1019 205.369 86.2726 204.791 85.9625C204.309 85.7047 202.221 85.5489 200.151 85.6167C196.549 85.7344 196.361 85.6909 195.766 84.5949C195.316 83.7636 195.212 82.3208 195.388 79.3277C195.854 71.4076 196.058 70.3642 197.934 66.286C199.227 63.4761 199.91 61.2198 200.228 58.7085C200.478 56.7418 200.766 55.0471 200.871 54.9431C200.975 54.8387 201.932 56.2636 202.998 58.109C206.529 64.2208 208.13 66.4747 210.954 69.3066C215.837 74.2029 220.517 75.7743 222.954 73.3345C224.037 72.2503 224.117 71.9105 223.907 69.2915C223.744 67.2524 223.151 65.3058 221.84 62.5046C219.784 58.114 217.168 54.988 213.677 52.752C209.118 49.8326 207.98 44.1371 209.598 32.3357C211.08 21.5242 209.514 17.3287 202.858 14.281L200.227 13.0765V9.42329C200.227 4.65347 198.847 2.0707 195.652 0.864272C193.82 0.172662 189.145 -0.126428 187.57 0.347623Z" stroke="#E72434" stroke-width="4" mask="url(#path-1-inside-1_74_1031)"/>
</svg>
