<svg width="266" height="129" viewBox="0 0 266 129" fill="none" xmlns="http://www.w3.org/2000/svg">
<g filter="url(#filter0_d_74_1034)">
<path d="M144.05 1.5046L144.05 1.50449C144.492 1.38657 145.496 1.26984 146.827 1.1961C148.125 1.12416 149.648 1.09723 151.077 1.1328C154.396 1.21578 156.405 1.48286 158.27 2.32336C160.157 3.17354 161.987 4.64913 164.851 7.36329L165.539 6.63738L164.851 7.36329C169.342 11.6183 173.294 13.8853 177.59 14.4776L177.59 14.4776C178.629 14.6206 179.464 14.6338 180.547 14.3153C181.56 14.0176 182.772 13.4339 184.596 12.4905C189.439 9.9863 192.883 9.44725 196.043 10.8369C199.311 12.2735 202.527 15.8643 206.588 22.3761C211.158 29.7027 214.954 33.641 220.141 36.2194C221.93 37.1092 223.027 37.6311 224.574 37.9407C226.068 38.2399 227.973 38.3383 231.384 38.4941L231.43 37.4951L231.384 38.4941C235.751 38.6931 238.057 38.8976 240.128 39.6534C242.198 40.4092 244.096 41.7392 247.567 44.4015L248.176 43.6079L247.568 44.4015C253.113 48.6535 256.81 50.8043 259.952 51.397C260.329 51.4682 260.644 51.5737 260.865 51.6783C260.836 51.7377 260.804 51.8034 260.767 51.8755C260.562 52.2734 260.257 52.803 259.867 53.4371C259.091 54.7015 258.013 56.3275 256.823 58.042C254.433 61.4837 251.643 65.2047 249.972 67.0338C248.553 68.5865 247.605 69.5156 246.471 70.3312C245.328 71.1537 243.962 71.8857 241.673 72.9966C235.576 75.9552 231.089 79.1148 227.808 83.0856C224.521 87.0639 222.502 91.7865 221.228 97.776C220.72 100.166 220.322 101.877 219.831 103.115C219.351 104.326 218.835 104.943 218.17 105.291C217.46 105.663 216.411 105.819 214.662 105.709C212.925 105.601 210.657 105.244 207.599 104.729C194.078 102.451 183.437 101.882 174.223 103.303C164.984 104.727 157.232 108.144 149.478 113.751C144.028 117.692 141.983 118.613 139.909 118.599C138.194 118.588 136.279 117.774 134.481 116.27C132.692 114.774 131.086 112.646 129.996 110.147L129.08 110.547L129.996 110.147C127.46 104.33 126.44 102.621 123.909 100.332C122.178 98.7676 120.442 97.752 118.297 97.2542C116.183 96.7633 113.745 96.7935 110.643 97.1872L110.643 97.1872C107.48 97.589 105.427 97.5631 103.431 96.8973C101.406 96.2218 99.3392 94.8551 96.2263 92.3406C87.9001 85.615 83.7216 83.3876 78.5115 83.398C74.193 83.407 70.24 84.7278 67.3575 87.2092L67.3574 87.2092C65.8326 88.5222 64.8288 89.8057 64.3531 91.6281C63.8956 93.3804 63.954 95.5388 64.287 98.5307L64.287 98.5308C64.5923 101.271 64.6224 104.15 64.3977 105.503L64.3976 105.503C64.152 106.983 63.9497 110.875 63.9335 114.154C63.9259 115.654 63.8915 117.022 63.8417 118.057C63.4631 117.666 63.0358 117.212 62.5942 116.726C59.5366 113.36 54.893 110.771 48.3009 108.613L47.9897 109.563L48.3009 108.613C41.7127 106.456 39.493 105.212 37.2639 102.719L36.5183 103.385L37.2639 102.719C35.9468 101.245 34.3929 98.7885 33.1619 96.3838C32.55 95.1887 32.0304 94.0305 31.6664 93.0412C31.2896 92.017 31.1215 91.2827 31.1215 90.8896C31.1215 89.2946 31.4291 88.3621 32.3141 87.493C33.2969 86.528 35.0446 85.5856 38.1929 84.2656C41.2729 82.9742 43.451 81.6346 44.5331 79.9508C45.7028 78.1305 45.4622 76.1533 44.3776 74.0439C43.7011 72.7279 42.5754 71.8941 40.9598 71.4456C39.3982 71.012 37.3366 70.924 34.6703 71.0694C32.7986 71.1714 31.4909 71.302 30.2257 71.6291C28.9584 71.9568 27.78 72.4697 26.1504 73.2738C23.5379 74.5629 22.2305 74.8738 21.199 74.5472C20.6832 74.3839 20.1386 74.0292 19.4819 73.3473C18.8204 72.6603 18.0939 71.6932 17.2026 70.3746L16.3741 70.9347L17.2026 70.3746C16.3029 69.0438 13.5738 65.8857 11.148 63.3431C8.98441 61.0753 7.4161 59.2643 6.39769 57.7015C5.38263 56.144 4.97366 54.9224 5.00131 53.818C5.0288 52.7203 5.49207 51.5715 6.57067 50.1667C7.65667 48.7523 9.30304 47.1595 11.572 45.184L10.9154 44.4298L11.572 45.184C23.2191 35.0431 29.3641 31.8788 36.4225 31.8788C39.9212 31.8788 42.4958 32.5483 47.8568 34.9702L47.8569 34.9703C52.8704 37.2346 55.5204 37.5408 70.6746 37.9294C77.7072 38.1096 81.3615 38.2166 83.7632 38.4407C86.1054 38.6591 87.2184 38.9843 89.1831 39.6327C90.7813 40.1601 92.1098 40.5291 93.1674 40.6631C94.181 40.7914 95.2278 40.7433 95.9777 40.0821C96.7456 39.4049 96.8832 38.3735 96.8266 37.3787C96.7681 36.3486 96.4825 35.0465 96.0553 33.4861C94.1946 26.6904 93.9151 24.0834 94.51 20.8646C94.994 18.2474 96.1395 16.2433 97.975 14.7435C99.8311 13.2269 102.466 12.1671 106.017 11.5942L105.858 10.607L106.017 11.5942C111.934 10.6393 119.594 8.70924 131.223 5.25396C137.192 3.48053 142.958 1.79501 144.05 1.5046Z" stroke="#E72434" stroke-width="2" shape-rendering="crispEdges"/>
</g>
<defs>
<filter id="filter0_d_74_1034" x="0" y="0.117188" width="266" height="128" filterUnits="userSpaceOnUse" color-interpolation-filters="sRGB">
<feFlood flood-opacity="0" result="BackgroundImageFix"/>
<feColorMatrix in="SourceAlpha" type="matrix" values="0 0 0 0 0 0 0 0 0 0 0 0 0 0 0 0 0 0 127 0" result="hardAlpha"/>
<feOffset dy="4"/>
<feGaussianBlur stdDeviation="2"/>
<feComposite in2="hardAlpha" operator="out"/>
<feColorMatrix type="matrix" values="0 0 0 0 0 0 0 0 0 0 0 0 0 0 0 0 0 0 0.25 0"/>
<feBlend mode="normal" in2="BackgroundImageFix" result="effect1_dropShadow_74_1034"/>
<feBlend mode="normal" in="SourceGraphic" in2="effect1_dropShadow_74_1034" result="shape"/>
</filter>
</defs>
</svg>
