<svg width="216" height="165" viewBox="0 0 216 165" fill="none" xmlns="http://www.w3.org/2000/svg">
<path d="M202.224 3.03441C202.886 7.0209 204.435 11.1827 207.911 18.5621C213.625 30.6937 214.556 33.5329 214.934 39.2904C215.212 43.5235 214.612 47.2444 213.074 50.6735C211.534 54.1083 209.029 57.3052 205.419 60.4511C204.242 61.4771 203.304 62.1708 202.534 62.5727C201.764 62.9743 201.276 63.0257 200.94 62.9486C200.61 62.873 200.214 62.6248 199.737 61.948C199.256 61.2663 198.765 60.2518 198.222 58.8331C198.222 58.833 198.222 58.833 198.222 58.8329L197.288 59.1901C196.432 56.9509 195.956 56.247 195.167 56.0487C193.591 55.6535 192.037 56.2246 190.494 57.7658C189.268 58.9915 189.078 59.4685 189.035 61.4314M202.224 3.03441L188.035 61.409M202.224 3.03441C199.982 6.92697 196.065 11.4307 190.758 16.2846C188.024 18.7857 183.318 23.4364 180.314 26.6076C173.553 33.7451 170.267 36.8276 159.982 45.6883C149.896 54.3771 140.417 63.6213 136.274 68.7819C134.516 70.9717 131.676 75.0186 129.981 77.7511L129.132 77.2241L129.981 77.7511C125.923 84.2959 124.162 86.7013 121.634 89.0249C118.949 91.4917 116.305 92.7137 113.276 92.7269C110.022 92.7408 107.482 91.7071 103.923 89.1118L104.512 88.3037L103.923 89.1118C102.612 88.1564 101.923 87.7007 101.414 87.4822C101.001 87.3054 100.717 87.2849 100.139 87.3623C98.8269 87.5382 98.0478 87.8058 97.4654 88.231C96.882 88.657 96.3841 89.3228 95.8051 90.5297C94.4605 93.3325 92.7711 95.0243 90.3424 95.4796L90.3423 95.4796C89.9943 95.5448 89.5056 95.53 89.0065 95.4926C88.4706 95.4525 87.8021 95.3752 87.0315 95.2666C85.4883 95.0492 83.4932 94.7001 81.2461 94.2489L81.443 93.2685M202.224 3.03441L1 97.0941V91.4624V86.1982L1.83964 85.9214L1.83983 85.9214C3.74309 85.2936 5.81638 85.7219 6.94186 86.7995C7.16074 87.009 7.52931 87.5236 7.94383 88.2619C8.34315 88.9732 8.73651 89.8042 9.02457 90.5738L9.96111 90.2232L9.02458 90.5738C10.1838 93.6705 11.4338 95.9936 13.006 97.6539C14.6049 99.3424 16.4867 100.293 18.7941 100.73M189.035 61.4314L188.035 61.409M189.035 61.4314L188.035 61.4093C188.035 61.4092 188.035 61.4091 188.035 61.409M189.035 61.4314C189.007 62.6723 189.029 63.8778 189.085 64.1097M188.035 61.409C188.021 62.0414 188.019 62.6668 188.029 63.1677C188.033 63.4175 188.041 63.6427 188.051 63.8252C188.059 63.9547 188.07 64.1275 188.098 64.2743M189.085 64.1097L188.112 64.3399C188.094 64.2653 188.093 64.2151 188.098 64.2743M189.085 64.1097C189.14 64.3417 189.21 68.802 189.24 74.0215C189.292 82.905 189.354 83.6212 190.215 85.2273M189.085 64.1097L188.112 64.3416C188.107 64.32 188.102 64.2974 188.098 64.2743M188.098 64.2743L190.215 85.2273M18.7941 100.73C18.794 100.73 18.7939 100.73 18.7939 100.73L18.9802 99.7474L18.7941 100.73ZM18.7941 100.73C22.3429 101.403 25.7992 100.61 31.6336 98.0569L31.2327 97.1408M31.2327 97.1408L31.6336 98.0569C36.918 95.7442 40.7674 94.3142 44.5703 93.4187C48.3683 92.5244 52.1598 92.1539 57.336 92.001C65.9577 91.7459 71.2433 92.2401 81.2461 94.2489L81.443 93.2685M31.2327 97.1408C41.8425 92.4975 46.8874 91.3093 57.3065 91.0014C66.0162 90.7437 71.3785 91.2473 81.443 93.2685M31.2327 97.1408L81.443 93.2685M190.215 85.2273C191.209 87.0844 193.808 89.6328 195.708 90.6147C196.36 90.9521 197.252 91.6223 197.688 92.104L190.215 85.2273Z" stroke="#E72434" stroke-width="2"/>
</svg>
