<svg width="162" height="144" viewBox="0 0 162 144" fill="none" xmlns="http://www.w3.org/2000/svg">
<path d="M25.7943 3.29772L25.7942 3.29781C25.1933 4.32361 24.5296 5.22648 23.3129 5.47246C22.7556 5.58515 22.1626 5.54215 21.534 5.42446C20.9029 5.3063 20.1643 5.09815 19.2938 4.82664C17.9793 4.41665 17.3636 4.24661 16.9339 4.20372C16.5998 4.17037 16.3834 4.21118 15.8309 4.40628L15.8308 4.40632C14.7029 4.8044 13.4031 5.41029 12.3436 5.9999C11.8141 6.29453 11.3625 6.57525 11.0312 6.81337C10.8651 6.93281 10.7427 7.03195 10.6604 7.10821C10.6396 7.12747 10.6238 7.14313 10.612 7.15523C10.6086 7.17898 10.6048 7.21583 10.6033 7.26906C10.5983 7.43504 10.6155 7.69588 10.6776 8.10617C10.8018 8.92719 11.0795 10.1866 11.5636 12.174C11.5636 12.174 11.5636 12.174 11.5636 12.174L12.7951 17.2293L12.8357 17.3964L12.8183 17.5674L12.3905 21.7641C12.1787 23.8419 12.0586 25.4362 12.0633 26.6745C12.0681 27.9256 12.202 28.7121 12.4275 29.2281C12.6286 29.6883 12.9185 29.9729 13.4044 30.1898C13.9443 30.4307 14.7195 30.5836 15.875 30.696C17.9007 30.8932 19.4545 31.1777 21.0569 31.7801C22.6459 32.3775 24.2365 33.2702 26.355 34.622C26.9886 35.0263 27.48 35.3233 27.8678 35.5301C28.1343 35.6722 28.3241 35.7564 28.4562 35.8041C28.7197 35.1357 29.1334 34.5762 29.7166 34.2171C30.3192 33.846 31.006 33.7488 31.6866 33.8517C32.997 34.0497 34.3603 34.9897 35.6007 36.3699L35.6008 36.3699C37.4527 38.4307 38.5487 41.0521 38.886 44.0944C38.886 44.0945 38.886 44.0945 38.886 44.0945L39.1036 46.0564L39.1957 46.8877L38.3939 47.1254L35.629 47.9451C32.4702 48.8816 29.9996 50.5091 28.8714 52.1897L28.8714 52.1897C28.4091 52.8783 28.0016 53.8813 27.749 54.9245C27.4933 55.9803 27.4284 56.9447 27.5439 57.5611C27.63 58.0201 27.5768 58.5354 27.4795 59.0196C27.3783 59.5234 27.2095 60.086 26.9953 60.6779C26.5664 61.8629 25.9285 63.2385 25.1854 64.6239C23.7112 67.3723 21.7443 70.3047 20.0287 71.9327L19.3404 71.2073L20.0287 71.9327C19.4691 72.4638 18.9982 72.9016 18.5861 73.2251C18.1762 73.5468 17.7444 73.8214 17.2528 73.9459C16.7261 74.0793 16.242 74.0142 15.7814 73.8565C15.3549 73.7105 14.9022 73.4677 14.4262 73.2029C13.4063 72.6358 12.2447 72.1344 11.3081 71.8217C11.1148 71.7571 10.9364 71.7024 10.7751 71.6575C10.8018 71.8103 10.8327 71.9779 10.8678 72.1593C11.0604 73.1551 11.3657 74.504 11.7375 75.9615L10.7686 76.2087L11.7375 75.9615L13.1023 81.3115L13.2031 81.7065L12.9989 82.0594L11.4733 84.6967C10.6622 86.0991 9.78619 88.1244 9.52911 89.1379L8.56084 88.8923L9.5291 89.1379C9.29353 90.0664 9.20593 90.5281 9.20449 90.9761C9.20304 91.4299 9.28975 91.9248 9.52031 92.9191L9.52036 92.9194C9.78546 94.064 10.3667 95.7163 10.784 96.5401C11.0688 97.1022 11.2963 97.6019 11.4524 98.0418C11.6045 98.4708 11.7143 98.9122 11.7037 99.3375C11.6922 99.8008 11.5351 100.257 11.1621 100.612C10.8241 100.934 10.3999 101.084 10.0287 101.166L10.0285 101.166C7.23367 101.784 5.09112 103.016 3.61341 104.723C2.13753 106.427 1.2659 108.673 1.12701 111.424L0.128281 111.374L1.12701 111.424L1.04442 113.06L1.60001 113.143L1.60015 113.143C5.19781 113.683 8.71427 116.128 10.3093 119.256C10.4442 119.52 10.6076 119.97 10.779 120.486C10.9585 121.026 11.1695 121.709 11.3979 122.486C11.8548 124.04 12.3877 125.991 12.8872 127.966L11.9178 128.211L12.8872 127.966C13.8844 131.909 14.4972 134.13 15.074 135.565C15.6207 136.925 16.112 137.524 16.9025 138.218L16.2426 138.969L16.9026 138.218C17.4188 138.671 18.5134 139.371 19.5483 139.936C19.9842 140.174 20.3826 140.374 20.6941 140.512C20.7072 140.492 20.7206 140.471 20.7342 140.45C20.9711 140.087 21.2837 139.605 21.6148 139.093C22.4659 137.777 23.4218 136.779 24.5103 136.259L24.5107 136.259C25.1563 135.951 25.6787 135.708 26.5411 135.729C27.2659 135.746 28.2612 135.952 29.9241 136.296C32.0916 136.746 33.4411 136.95 34.4642 136.952C35.4337 136.953 36.1217 136.772 36.962 136.38C39.2492 135.313 42.8083 135.382 46.6209 136.325C48.3096 136.742 50.4227 137.002 52.2175 137.012C56.1555 137.034 58.1104 137.357 59.713 138.706C60.2219 139.135 61.47 139.924 62.4575 140.421L62.0075 141.314L62.4575 140.421C63.3863 140.889 65.0816 141.543 66.6967 142.085C67.4974 142.354 68.2596 142.589 68.8757 142.756C69.1844 142.84 69.4475 142.903 69.6556 142.946C69.7156 142.958 69.7689 142.968 69.8157 142.976C69.8511 142.935 69.8954 142.881 69.9484 142.809C70.1937 142.475 70.5153 141.919 70.9305 141.079L71.8271 141.522L70.9305 141.079C71.791 139.337 72.7352 137.98 73.951 136.918C75.17 135.854 76.6051 135.138 78.3741 134.594L78.3742 134.594C81.1897 133.73 90.2727 131.496 92.2602 131.184C92.4852 131.149 92.6205 131.125 92.7091 131.105C92.7148 131.082 92.7211 131.056 92.7278 131.024C92.7695 130.827 92.8069 130.551 92.8615 130.116C93.3236 126.441 94.1904 123.732 96.0457 121.704C97.8924 119.685 100.589 118.483 104.366 117.507C106.26 117.017 107.618 116.601 108.519 116.24C108.972 116.059 109.273 115.906 109.458 115.784C109.502 115.755 109.534 115.732 109.558 115.713C109.557 115.703 109.555 115.691 109.552 115.677C109.534 115.573 109.477 115.393 109.327 115.102C109.022 114.511 108.438 113.658 107.437 112.345C106.381 110.959 105.687 109.921 105.332 108.669C104.982 107.436 104.986 106.081 105.089 104.127L105.089 104.127C105.15 102.961 105.239 102.091 105.445 101.259C105.654 100.421 105.971 99.6658 106.438 98.7158L107.335 99.1573L106.438 98.7158C107.919 95.7067 110.085 93.5848 116.648 88.383L117.269 89.1667L116.648 88.383C118.951 86.5579 120.308 85.5058 121.348 84.8606C122.451 84.1763 123.218 83.937 124.302 83.6914L124.523 84.6667L124.302 83.6914L125.962 83.3153L126.347 82.1732C126.347 82.1732 126.347 82.1731 126.347 82.1731C127.051 80.0888 127.838 78.5508 129.308 77.6375C130.736 76.7498 132.624 76.5757 135.154 76.6215C138.214 76.6769 140.178 76.5918 142.261 76.1416C144.361 75.6875 146.627 74.8531 150.278 73.3417C152.053 72.607 153.803 71.8482 155.191 71.2186C156.62 70.5702 157.571 70.1002 157.828 69.93L157.828 69.9298C158.968 69.1753 159.735 68.2488 160.236 66.9387C160.751 65.5925 161 63.7992 161 61.2957C161 60.0667 160.975 59.5427 160.905 59.2609C160.892 59.2063 160.88 59.179 160.875 59.168C160.871 59.159 160.869 59.1568 160.868 59.1554C160.861 59.147 160.828 59.1098 160.679 59.0121L161.227 58.1757L160.679 59.012C160.537 58.9191 160.475 58.892 160.431 58.8785C160.392 58.8665 160.315 58.8492 160.14 58.8563C159.735 58.8727 159.071 58.9995 157.695 59.3037C156.021 59.674 153.987 59.8993 152.192 59.9647C151.293 59.9974 150.437 59.9906 149.703 59.9385C148.995 59.8882 148.314 59.7906 147.816 59.601L147.815 59.601C147.616 59.5253 147.34 59.3794 147.061 59.2233C146.762 59.0557 146.395 58.8398 145.987 58.5922C145.17 58.0963 144.17 57.4616 143.182 56.8061C140.587 55.0854 139.184 53.9256 138.315 52.6068L138.315 52.6067C137.752 51.752 136.562 50.5192 135.192 49.3448C133.825 48.1726 132.399 47.1615 131.419 46.6982L131.418 46.6981C130.527 46.2768 129.762 46.0723 128.986 46.0402C128.203 46.0079 127.346 46.1483 126.267 46.5011L126.267 46.5011C125.516 46.7469 124.913 46.9051 124.217 46.9312C123.543 46.9566 122.836 46.8549 121.882 46.6803C117.505 45.8797 112.005 42.6244 108.901 39.0338C108.031 38.0284 106.5 35.734 105.469 33.9181C105.469 33.9181 105.468 33.9181 105.468 33.9181L103.887 31.135L101.424 30.9985L101.479 30L101.424 30.9985C99.7314 30.9046 98.5618 30.7803 97.3082 30.1795C96.1092 29.6049 94.8815 28.6149 92.9607 26.9906L92.9607 26.9905C92.1515 26.3061 91.5763 25.8872 91.0041 25.5793C90.4376 25.2745 89.8329 25.0565 88.9415 24.8212L88.9414 24.8212C87.6292 24.4748 85.5828 23.8305 84.3704 23.3814L84.3703 23.3813C83.001 22.8739 81.2019 22.5425 78.3075 22.3115C74.6828 22.0226 72.0091 21.5765 69.2947 20.5548C66.5944 19.5385 63.9065 17.9721 60.2275 15.5209L60.2275 15.5209C55.5064 12.3751 52.4153 11.0773 48.8451 10.6296C43.9191 10.0121 40.2686 8.04867 34.4656 3.11699L34.4656 3.11697L31.9751 1.00022L30.1159 1.00133L30.1157 1.00133C28.5747 1.00198 27.8761 1.18161 27.3801 1.48403L25.7943 3.29772ZM25.7943 3.29772C26.002 2.94314 26.3007 2.5421 26.6147 2.19M25.7943 3.29772L26.6147 2.19M26.6147 2.19C26.9409 1.82424 27.2219 1.58058 27.3799 1.48413L26.6147 2.19ZM150.66 74.2657C154.228 72.7887 157.702 71.213 158.38 70.7637L127.295 82.493C128.677 78.3973 130.074 77.5297 135.136 77.6213C141.302 77.733 143.358 77.2887 150.66 74.2657ZM109.559 115.764L109.558 115.764L109.558 115.764C109.558 115.764 109.559 115.764 109.559 115.764ZM21.1456 140.684C21.1533 140.686 21.1539 140.686 21.146 140.684L21.1456 140.684ZM9.89193 96.992C10.9975 99.1743 10.9785 99.932 9.81263 100.19L9.89193 96.992ZM151.926 105.588L151.927 105.588C152.178 105.898 152.326 106.557 151.694 107.882C151.081 109.165 149.856 110.781 147.992 112.638L148.697 113.346L147.992 112.638C144.571 116.045 141.916 117.464 139.975 117.435C138.716 117.416 137.699 117.038 136.702 116.131C135.66 115.184 134.616 113.637 133.415 111.221C132.588 109.558 131.795 108.345 130.653 107.44C129.515 106.538 128.122 106.014 126.25 105.53C125.697 105.388 125.133 105.203 124.676 105.023C124.448 104.932 124.257 104.848 124.114 104.775C123.979 104.707 123.929 104.67 123.928 104.671C123.928 104.671 123.928 104.671 123.928 104.671C123.863 104.609 123.774 104.471 123.736 104.199C123.697 103.92 123.723 103.567 123.826 103.193C124.047 102.393 124.515 101.83 124.923 101.671C126.945 100.878 132.736 99.2235 136.121 98.4793C138.305 97.9993 140.49 97.737 141.815 97.7717C142.388 97.7867 142.791 97.7992 143.088 97.8216C143.164 97.8273 143.229 97.8334 143.284 97.8396C143.284 97.8403 143.284 97.8409 143.284 97.8416C143.296 97.946 143.285 98.2443 143.216 98.6957C143.151 99.119 143.049 99.5914 142.927 100.002C142.686 100.814 142.522 101.582 142.559 102.266C142.598 103.008 142.876 103.678 143.5 104.17C144.064 104.615 144.816 104.836 145.638 104.963C146.478 105.093 147.525 105.143 148.783 105.154C150.334 105.167 151.052 105.193 151.462 105.278C151.633 105.313 151.69 105.348 151.713 105.364C151.746 105.386 151.8 105.431 151.926 105.588Z" stroke="#E72434" stroke-width="2"/>
</svg>
