<svg width="141" height="181" viewBox="0 0 141 181" fill="none" xmlns="http://www.w3.org/2000/svg">
<mask id="path-1-inside-1_255_484" fill="white">
<path fill-rule="evenodd" clip-rule="evenodd" d="M55.7262 0.73396C53.9821 2.01039 50.5092 6.87866 49.3795 9.6306C48.8322 10.9633 47.7391 13.6038 46.9501 15.4987C45.7977 18.2655 45.5082 19.4395 45.4783 21.4633C45.4246 25.1264 45.0183 28.0039 44.5315 28.1642C44.2983 28.241 43.0172 26.8285 41.6846 25.0254C39.0432 21.451 37.5394 19.9055 36.3571 19.5502C34.8715 19.104 31.3386 22.591 31.3386 24.5034C31.3386 24.7279 32.7991 26.4293 34.5843 28.2843C38.8861 32.7552 40.6653 35.1597 40.6653 36.5032C40.6653 37.0948 40.0777 39.3338 39.3596 41.4785C37.999 45.5419 37.7826 47.1978 38.4489 48.4418C38.666 48.8474 40.0292 49.9386 41.4782 50.8668L44.1129 52.5541L43.8704 54.4851C43.7368 55.5468 43.5268 58.6384 43.4037 61.3545C43.0492 69.163 43.8163 70.8025 47.7544 70.6575C49.3437 70.599 50.1208 70.7775 51.2046 71.4512L52.6036 72.3201V77.509V82.6975H53.7418C54.3678 82.6975 57.2132 82.1104 60.065 81.3927C66.6792 79.7282 66.6937 79.7286 66.9508 81.4859C67.9166 88.0888 68.577 89.4387 72.861 93.5658C76.0283 96.6171 76.219 96.8896 76.3835 98.5985C76.4984 99.7978 76.2219 101.805 75.5605 104.569C74.6289 108.461 74.6021 108.806 75.149 109.862C75.975 111.458 75.8791 112.097 74.7718 112.375C73.2217 112.764 70.2073 112.252 65.8312 110.856C60.431 109.133 59.0088 109.13 57.5106 110.835C56.3604 112.144 55.6643 114.348 56.1519 115.137C56.2974 115.372 57.1114 115.866 57.9609 116.234C61.7849 117.893 62.4153 120.664 60.4687 127.259C58.6682 133.359 57.7915 134.666 53.6172 137.47C49.9954 139.903 45.8883 144.93 45.8883 146.93C45.8883 147.927 46.6665 148.103 51.1191 148.113C55.0957 148.121 55.5561 148.199 57.2748 149.145C62.4989 152.02 66.6172 153.491 72.1898 154.47C73.5981 154.718 73.409 154.801 68.8322 155.947C63.1201 157.377 59.8594 158.487 58.5787 159.436C58.0687 159.814 56.757 161.617 55.6635 163.442C53.0199 167.856 52.2861 168.555 48.2021 170.554C44.2084 172.508 41.4995 174.52 39.9099 176.713C38.6806 178.408 38.3978 180.611 39.3618 180.98C39.6707 181.099 42.4829 180.672 45.6107 180.032C51.9828 178.727 55.0364 178.605 60.4381 179.437C64.5982 180.077 68.8736 180.159 69.2161 179.605C69.3492 179.39 68.8557 178.205 68.1196 176.97C66.3322 173.972 66.1584 173.161 67.1015 172.219C68.1323 171.189 69.8458 170.801 75.5474 170.308C78.2149 170.077 83.3842 169.479 87.035 168.979C97.1031 167.602 102.836 167.288 115.866 167.403L127.777 167.507L129.511 166.489C132.63 164.657 140.648 155.283 140.648 153.469C140.648 152.601 140.496 152.604 134.019 153.606C129.164 154.358 128.554 154.382 127.116 153.881C125.594 153.35 125.54 153.277 125.569 151.781C125.615 149.424 127.559 146.531 132.652 141.241C140.267 133.333 142.225 129.184 140.321 124.995C139.407 122.985 136.559 120.542 134.183 119.73C131.388 118.774 126.642 118.862 123.245 119.932C120.259 120.872 117.984 120.862 117.385 119.905C117.104 119.457 117.12 118.369 117.44 116.158C117.996 112.315 118.018 108.303 117.496 105.871C117.279 104.86 116.389 102.949 115.519 101.624C114.649 100.3 113.124 97.2196 112.13 94.7785C109.281 87.7775 108.349 86.475 104.702 84.3982C102.651 83.2299 98.7998 79.5348 97.9966 77.9642C97.7023 77.3894 97.1203 75.5601 96.7028 73.8989C95.506 69.1369 90.5785 60.0941 87.9987 57.9249C86.9932 57.0794 82.9514 55.5834 79.9306 54.9381C78.488 54.6298 78.1776 53.7817 78.4234 50.8198C78.6238 48.409 81.2935 42.7292 85.4308 35.9123C88.5165 30.8286 89.9107 27.2028 89.9107 24.2619C89.9107 21.5942 88.6982 20.2633 85.974 19.9401C77.3703 18.9198 72.5334 19.3429 67.7689 21.5334C65.9532 22.3681 64.4169 23.0511 64.3546 23.0511C64.127 23.0511 63.4226 20.6797 63.4249 19.92C63.4323 17.0797 65.7804 13.8252 69.2556 11.8386C72.7207 9.85763 73.619 8.68707 75.1262 4.18935C75.8657 1.98281 76.4227 0.129294 76.3641 0.0707655C76.3055 0.0118646 75.0904 0.145696 73.6642 0.367879C71.2519 0.743652 68.9941 0.700036 60.2515 0.106926C57.1461 -0.103328 56.8062 -0.0563559 55.7262 0.73396ZM15.9259 72.2538C14.9384 72.4316 13.7401 72.8327 13.2629 73.1451C12.7533 73.4788 11.3729 75.808 9.91683 78.791C7.6023 83.5341 7.2199 84.0828 4.13088 87.1046C2.31178 88.884 0.638188 90.7062 0.412107 91.1539C-0.23629 92.4374 -0.0926571 96.4882 0.654231 97.9819C1.94767 100.569 7.46314 102.155 12.3119 101.332C14.1788 101.016 15.386 100.497 17.5566 99.0787C19.1074 98.0654 20.5844 97.2363 20.8389 97.2363C21.0933 97.2363 22.8963 98.0751 24.846 99.1003C27.7854 100.646 28.7222 100.964 30.3365 100.964C32.8562 100.964 34.0336 100.295 37.4868 96.9038C39.8602 94.5724 40.2923 93.9576 40.2923 92.912C40.2923 90.9809 35.6762 78.6952 34.4832 77.4509C33.2666 76.1819 29.3702 74.0931 26.3006 73.0642C23.7007 72.1927 18.5157 71.7874 15.9259 72.2538Z"/>
</mask>
<path fill-rule="evenodd" clip-rule="evenodd" d="M55.7262 0.73396C53.9821 2.01039 50.5092 6.87866 49.3795 9.6306C48.8322 10.9633 47.7391 13.6038 46.9501 15.4987C45.7977 18.2655 45.5082 19.4395 45.4783 21.4633C45.4246 25.1264 45.0183 28.0039 44.5315 28.1642C44.2983 28.241 43.0172 26.8285 41.6846 25.0254C39.0432 21.451 37.5394 19.9055 36.3571 19.5502C34.8715 19.104 31.3386 22.591 31.3386 24.5034C31.3386 24.7279 32.7991 26.4293 34.5843 28.2843C38.8861 32.7552 40.6653 35.1597 40.6653 36.5032C40.6653 37.0948 40.0777 39.3338 39.3596 41.4785C37.999 45.5419 37.7826 47.1978 38.4489 48.4418C38.666 48.8474 40.0292 49.9386 41.4782 50.8668L44.1129 52.5541L43.8704 54.4851C43.7368 55.5468 43.5268 58.6384 43.4037 61.3545C43.0492 69.163 43.8163 70.8025 47.7544 70.6575C49.3437 70.599 50.1208 70.7775 51.2046 71.4512L52.6036 72.3201V77.509V82.6975H53.7418C54.3678 82.6975 57.2132 82.1104 60.065 81.3927C66.6792 79.7282 66.6937 79.7286 66.9508 81.4859C67.9166 88.0888 68.577 89.4387 72.861 93.5658C76.0283 96.6171 76.219 96.8896 76.3835 98.5985C76.4984 99.7978 76.2219 101.805 75.5605 104.569C74.6289 108.461 74.6021 108.806 75.149 109.862C75.975 111.458 75.8791 112.097 74.7718 112.375C73.2217 112.764 70.2073 112.252 65.8312 110.856C60.431 109.133 59.0088 109.13 57.5106 110.835C56.3604 112.144 55.6643 114.348 56.1519 115.137C56.2974 115.372 57.1114 115.866 57.9609 116.234C61.7849 117.893 62.4153 120.664 60.4687 127.259C58.6682 133.359 57.7915 134.666 53.6172 137.47C49.9954 139.903 45.8883 144.93 45.8883 146.93C45.8883 147.927 46.6665 148.103 51.1191 148.113C55.0957 148.121 55.5561 148.199 57.2748 149.145C62.4989 152.02 66.6172 153.491 72.1898 154.47C73.5981 154.718 73.409 154.801 68.8322 155.947C63.1201 157.377 59.8594 158.487 58.5787 159.436C58.0687 159.814 56.757 161.617 55.6635 163.442C53.0199 167.856 52.2861 168.555 48.2021 170.554C44.2084 172.508 41.4995 174.52 39.9099 176.713C38.6806 178.408 38.3978 180.611 39.3618 180.98C39.6707 181.099 42.4829 180.672 45.6107 180.032C51.9828 178.727 55.0364 178.605 60.4381 179.437C64.5982 180.077 68.8736 180.159 69.2161 179.605C69.3492 179.39 68.8557 178.205 68.1196 176.97C66.3322 173.972 66.1584 173.161 67.1015 172.219C68.1323 171.189 69.8458 170.801 75.5474 170.308C78.2149 170.077 83.3842 169.479 87.035 168.979C97.1031 167.602 102.836 167.288 115.866 167.403L127.777 167.507L129.511 166.489C132.63 164.657 140.648 155.283 140.648 153.469C140.648 152.601 140.496 152.604 134.019 153.606C129.164 154.358 128.554 154.382 127.116 153.881C125.594 153.35 125.54 153.277 125.569 151.781C125.615 149.424 127.559 146.531 132.652 141.241C140.267 133.333 142.225 129.184 140.321 124.995C139.407 122.985 136.559 120.542 134.183 119.73C131.388 118.774 126.642 118.862 123.245 119.932C120.259 120.872 117.984 120.862 117.385 119.905C117.104 119.457 117.12 118.369 117.44 116.158C117.996 112.315 118.018 108.303 117.496 105.871C117.279 104.86 116.389 102.949 115.519 101.624C114.649 100.3 113.124 97.2196 112.13 94.7785C109.281 87.7775 108.349 86.475 104.702 84.3982C102.651 83.2299 98.7998 79.5348 97.9966 77.9642C97.7023 77.3894 97.1203 75.5601 96.7028 73.8989C95.506 69.1369 90.5785 60.0941 87.9987 57.9249C86.9932 57.0794 82.9514 55.5834 79.9306 54.9381C78.488 54.6298 78.1776 53.7817 78.4234 50.8198C78.6238 48.409 81.2935 42.7292 85.4308 35.9123C88.5165 30.8286 89.9107 27.2028 89.9107 24.2619C89.9107 21.5942 88.6982 20.2633 85.974 19.9401C77.3703 18.9198 72.5334 19.3429 67.7689 21.5334C65.9532 22.3681 64.4169 23.0511 64.3546 23.0511C64.127 23.0511 63.4226 20.6797 63.4249 19.92C63.4323 17.0797 65.7804 13.8252 69.2556 11.8386C72.7207 9.85763 73.619 8.68707 75.1262 4.18935C75.8657 1.98281 76.4227 0.129294 76.3641 0.0707655C76.3055 0.0118646 75.0904 0.145696 73.6642 0.367879C71.2519 0.743652 68.9941 0.700036 60.2515 0.106926C57.1461 -0.103328 56.8062 -0.0563559 55.7262 0.73396ZM15.9259 72.2538C14.9384 72.4316 13.7401 72.8327 13.2629 73.1451C12.7533 73.4788 11.3729 75.808 9.91683 78.791C7.6023 83.5341 7.2199 84.0828 4.13088 87.1046C2.31178 88.884 0.638188 90.7062 0.412107 91.1539C-0.23629 92.4374 -0.0926571 96.4882 0.654231 97.9819C1.94767 100.569 7.46314 102.155 12.3119 101.332C14.1788 101.016 15.386 100.497 17.5566 99.0787C19.1074 98.0654 20.5844 97.2363 20.8389 97.2363C21.0933 97.2363 22.8963 98.0751 24.846 99.1003C27.7854 100.646 28.7222 100.964 30.3365 100.964C32.8562 100.964 34.0336 100.295 37.4868 96.9038C39.8602 94.5724 40.2923 93.9576 40.2923 92.912C40.2923 90.9809 35.6762 78.6952 34.4832 77.4509C33.2666 76.1819 29.3702 74.0931 26.3006 73.0642C23.7007 72.1927 18.5157 71.7874 15.9259 72.2538Z" stroke="#E72434" stroke-width="4" mask="url(#path-1-inside-1_255_484)"/>
</svg>
