<svg width="242" height="106" viewBox="0 0 242 106" fill="none" xmlns="http://www.w3.org/2000/svg">
<mask id="path-1-inside-1_257_488" fill="white">
<path fill-rule="evenodd" clip-rule="evenodd" d="M205.168 0.27836C204.433 0.390131 203.415 1.01075 202.906 1.65785C202.115 2.66477 201.577 2.82948 199.168 2.80056C197.286 2.77801 196.111 3.00989 195.621 3.50011C195.051 4.07073 194.513 4.12908 193.191 3.76386C191.53 3.30501 191.428 3.36433 188.461 6.51402C186.703 8.37981 185.019 9.73333 184.454 9.73431C183.918 9.73529 181.961 11.051 180.106 12.6575C177.539 14.8807 176.54 15.4763 175.928 15.1479C175.485 14.9106 174.102 14.717 172.854 14.717C171.531 14.717 170.049 14.364 169.294 13.8694C168.168 13.1311 167.738 13.1012 165.942 13.636C162.679 14.6091 160.158 15.5935 157.455 16.9494C154.251 18.5579 151.028 18.351 148.999 16.4068C147.464 14.9356 146.204 14.7924 144.611 15.9097C143.586 16.6283 143.42 16.6283 142.626 15.9097C142.15 15.4783 141.32 15.1253 140.782 15.1253C140.244 15.1253 139.289 14.5772 138.66 13.9071C137.006 12.1452 134.704 11.8535 132.208 13.0894C131.083 13.6463 129.998 14.0002 129.796 13.8757C129.595 13.7512 129.278 12.7448 129.091 11.6393C128.451 7.84939 125.936 6.6155 121.752 8.03862C119.322 8.86514 119.066 8.87053 117.915 8.11656C116.795 7.38172 116.734 7.17337 117.243 5.82329C117.726 4.54331 117.669 4.20408 116.831 3.3653C116.284 2.8187 114.85 2.25397 113.557 2.0765C111.385 1.77894 111.221 1.83728 110.636 3.12363L110.015 4.48645L101.177 4.16682L92.3383 3.8472L89.4087 5.30414C87.7975 6.10517 85.9937 6.76746 85.3999 6.77628C83.7406 6.79982 82.0074 7.69398 76.6092 11.3118C73.8751 13.1438 70.8201 14.9851 69.8197 15.4033C68.6503 15.892 67.8141 16.6587 67.478 17.5504C66.6878 19.6447 63.4961 19.9653 59.8895 18.3127C57.1128 17.0406 54.6701 16.7279 54.1459 17.5764C53.123 19.2324 37.6751 15.4866 33.0661 12.4649C31.23 11.2609 30.3359 9.16564 30.867 7.31161C31.4284 5.35268 31.0664 4.3884 29.5526 3.81239C28.0393 3.23687 25.4522 3.24176 24.5356 3.82219C24.0427 4.13446 23.4029 3.90994 22.4158 3.07901C20.5355 1.49608 18.7802 1.11223 16.95 1.88482C16.1216 2.23386 14.4946 2.62163 13.3341 2.74615C11.9285 2.89714 11.0286 3.29471 10.6396 3.93691C10.3183 4.46733 9.34679 5.20168 8.48065 5.56886C7.46999 5.99732 6.78903 6.70128 6.58034 7.53417C6.30942 8.61365 6.59454 9.1779 8.27734 10.8942C10.5436 13.2046 10.72 13.6546 9.35805 13.6546C8.83974 13.6546 7.73747 14.2257 6.90857 14.9238C5.65149 15.9822 5.40115 16.5465 5.40115 18.3221C5.40115 20.1736 5.19393 20.5928 3.80899 21.5409C1.71566 22.9738 0.992079 23.9096 0.992079 25.1832C0.992079 26.325 2.86594 28.3614 3.91628 28.3614C4.4096 28.3614 4.3709 28.5849 3.76245 29.258C3.31664 29.7512 2.95167 30.81 2.95167 31.6111C2.95167 32.4121 2.7126 33.3068 2.42062 33.5989C2.12815 33.8916 1.76759 35.5348 1.61915 37.2511C1.47022 38.9674 1.04793 40.9675 0.680504 41.6955C-0.981717 44.9888 0.481116 47.0375 4.1965 46.6188C6.36674 46.3737 6.38095 46.382 6.38095 47.8954C6.38095 48.9694 6.73367 49.6499 7.57777 50.2033C8.59381 50.8691 8.69718 51.1583 8.26215 52.1133C7.90061 52.9079 7.90894 53.5364 8.29155 54.2516C9.00729 55.5899 8.29106 56.0199 5.58095 55.8797C3.42295 55.7679 2.46177 56.5841 2.46177 58.5298C2.46177 58.9803 1.91064 60.0044 1.23703 60.8054C0.531575 61.6447 0.0122844 62.8801 0.0122844 63.7203C0.0122844 64.9037 0.314061 65.3042 1.61425 65.8479C2.49557 66.2165 3.63213 66.9774 4.13967 67.5387C4.64769 68.1005 5.66668 68.5598 6.40446 68.5598C7.14225 68.5598 7.8673 68.8765 8.01574 69.2638C8.16809 69.6609 9.09792 70.0354 10.1463 70.1217C12.4459 70.3119 13.1043 71.8267 10.9973 72.0786C10.2707 72.1654 9.3556 72.7228 8.96369 73.3169C8.31114 74.3062 8.3567 74.5033 9.50796 75.6553C10.6759 76.8235 10.7489 77.1593 10.5348 80.3713C10.234 84.8877 11.1021 86.6736 13.6069 86.6908C14.9733 86.7001 15.0526 87.5036 13.7289 87.9237C12.5336 88.3036 11.6709 89.7914 12.0589 90.8037C12.3597 91.5871 16.9079 92.7612 18.5946 92.4906C19.1266 92.4053 19.8477 92.6994 20.197 93.1441C21.411 94.6873 22.7131 94.6206 25.4825 92.873L28.1294 91.2028L30.1655 92.8725C31.2854 93.7907 32.6747 94.5417 33.2533 94.5417C34.0366 94.5417 34.3051 94.8417 34.3051 95.7163C34.3051 97.2517 37.1877 99.7871 39.4064 100.204C40.3377 100.378 41.4787 100.941 41.9426 101.453C43.0571 102.686 44.0585 102.63 47.817 101.126C50.676 99.9812 51.0341 99.9366 51.7322 100.636C52.7576 101.661 53.514 101.605 55.0596 100.389C55.9017 99.7258 56.4578 98.7003 56.6596 97.4365C56.8296 96.3717 57.1608 95.382 57.3944 95.2374C57.6286 95.0927 57.8202 94.1049 57.8202 93.0421V91.1101H60.2569C61.8192 91.1101 64.0306 91.6415 66.4198 92.5911C73.0016 95.2074 74.4772 96.1511 76.378 98.9596C78.3978 101.944 79.8327 103.129 82.5884 104.09C84.2413 104.667 84.6758 104.663 85.6047 104.065C86.2014 103.68 87.3458 103.366 88.1477 103.366C88.9497 103.366 89.7291 103.166 89.8805 102.921C90.0319 102.676 91.6872 102.5 93.5596 102.528C96.2918 102.571 97.1716 102.393 98.0157 101.628C98.6021 101.097 99.5829 100.744 100.233 100.829C101.756 101.029 104.07 98.79 103.721 97.4551C103.537 96.7502 104.247 95.8001 106.449 93.8059C108.087 92.3234 109.678 91.1101 109.986 91.1101C110.294 91.1101 112.008 91.9926 113.795 93.071C116.967 94.9854 119.183 95.5285 119.792 94.5417C119.959 94.2721 120.767 94.0515 121.588 94.0515C122.822 94.0515 123.018 94.2005 122.718 94.9094C122.14 96.2781 122.365 97.5684 123.437 99.018C124.146 99.9793 124.349 100.787 124.141 101.826C123.883 103.122 124.063 103.419 125.74 104.465C126.78 105.113 127.991 105.776 128.432 105.938C129.387 106.29 131.305 105.063 131.305 104.101C131.305 103.727 131.758 103.104 132.311 102.716C132.865 102.327 133.487 101.377 133.693 100.604C133.988 99.4935 134.408 99.1474 135.697 98.9537C138.182 98.5802 138.626 97.4291 137.255 94.9158C135.942 92.5097 135.967 89.9846 137.306 89.7302C137.796 89.6375 138.163 89.8655 138.163 90.263C138.163 90.6454 138.612 91.3646 139.161 91.8616C140.022 92.6411 140.379 92.6852 141.767 92.1827C142.653 91.8626 144.199 91.6004 145.204 91.6004C147.228 91.6004 148.432 91.068 152.304 88.459C156.052 85.9344 156.835 85.8388 159.328 87.6026C162.175 89.6159 164.259 89.9003 169.048 88.9296C174.778 87.7673 177.758 86.5231 182.758 83.2043C188.07 79.6786 190.241 78.8545 194.215 78.8545C197.847 78.8545 202.31 77.7579 205.154 76.1681C206.301 75.5264 207.239 75.1989 207.239 75.4401C207.239 75.6813 207.677 76.1132 208.212 76.3995C209.542 77.1123 212.847 75.4083 213.832 73.5008C214.367 72.4664 214.828 72.1463 215.522 72.3282C216.048 72.4654 217.106 72.2066 217.874 71.7521C219.164 70.9903 219.553 70.9849 222.946 71.6865C226.8 72.4831 228.471 72.3443 229.897 71.1109C230.668 70.4433 230.754 70.4526 230.754 71.2046C230.754 71.6639 231.09 72.6909 231.501 73.4866C232.553 75.5215 234.054 75.3631 236.388 72.9718C237.487 71.8448 238.765 71.0109 239.392 71.0109C240.69 71.0109 242.03 69.7966 241.999 68.6475C241.957 67.0881 240.794 65.089 239.572 64.4767C238.514 63.9463 238.347 63.534 238.347 61.4408C238.347 59.0646 238.305 58.9955 236.078 57.7842L233.807 56.5493L234.755 54.1369C236.027 50.897 235.799 48.8988 234.061 48.0694C233.085 47.6037 232.713 47.0625 232.711 46.1051C232.707 44.2324 231.775 41.1072 231.221 41.1072C230.964 41.1072 230.754 40.2689 230.754 39.2444C230.754 38.2198 230.532 37.1594 230.261 36.8879C229.929 36.5565 230.25 36.0368 231.236 35.3074C232.283 34.5333 232.796 33.6563 233.019 32.2587C233.277 30.6443 233.491 30.3478 234.229 30.5821C235.577 31.0101 237.123 29.9669 237.123 28.629C237.123 27.7942 236.318 26.8177 234.306 25.2097C230.991 22.562 228.675 21.8105 225.179 22.2473C222.652 22.5635 222.618 22.5498 221.719 20.8786C220.955 19.4599 220.9 18.9324 221.373 17.575C221.682 16.6862 221.936 15.0758 221.936 13.9958C221.936 12.3668 221.623 11.732 220.099 10.2696C219.088 9.30046 217.999 7.91998 217.679 7.2018C217.359 6.48363 216.587 5.73652 215.964 5.54141C215.342 5.3463 214.209 4.66538 213.447 4.02809C212.686 3.3908 211.79 2.86969 211.457 2.86969C211.124 2.86969 210.218 2.20788 209.443 1.39901C208.669 0.590141 207.691 -0.0388205 207.27 0.00186818C206.848 0.0420666 205.902 0.166589 205.168 0.27836ZM32.9094 23.2091C34.3507 23.8807 36.3387 24.4322 37.3268 24.4347C41.292 24.4455 41.7021 25.4896 38.1983 26.6539C36.8369 27.1069 35.4613 27.8966 35.1413 28.4094C34.3159 29.732 29.9127 29.734 28.7178 28.4124C27.6381 27.2192 23.7478 26.5873 22.7225 27.4393C22.2977 27.7917 22.0719 28.5423 22.1953 29.1894C22.503 30.8002 20.9133 30.6919 20.1662 29.0506C19.6513 27.9192 19.7453 27.5991 21.024 26.1416C21.8147 25.2411 22.5965 24.0778 22.7616 23.5567C23.0477 22.6537 23.1619 22.6449 25.1817 23.3719C27.2153 24.1038 27.3569 24.091 28.6649 23.0616C29.4144 22.4713 30.0866 21.9885 30.1586 21.9885C30.2301 21.9885 31.4681 22.538 32.9094 23.2091ZM126.507 91.2636C125.562 92.2538 125.139 92.4509 125.036 91.9489C124.829 90.9469 127.026 88.5678 127.481 89.3032C127.68 89.6262 127.258 90.4782 126.507 91.2636Z"/>
</mask>
<path fill-rule="evenodd" clip-rule="evenodd" d="M205.168 0.27836C204.433 0.390131 203.415 1.01075 202.906 1.65785C202.115 2.66477 201.577 2.82948 199.168 2.80056C197.286 2.77801 196.111 3.00989 195.621 3.50011C195.051 4.07073 194.513 4.12908 193.191 3.76386C191.53 3.30501 191.428 3.36433 188.461 6.51402C186.703 8.37981 185.019 9.73333 184.454 9.73431C183.918 9.73529 181.961 11.051 180.106 12.6575C177.539 14.8807 176.54 15.4763 175.928 15.1479C175.485 14.9106 174.102 14.717 172.854 14.717C171.531 14.717 170.049 14.364 169.294 13.8694C168.168 13.1311 167.738 13.1012 165.942 13.636C162.679 14.6091 160.158 15.5935 157.455 16.9494C154.251 18.5579 151.028 18.351 148.999 16.4068C147.464 14.9356 146.204 14.7924 144.611 15.9097C143.586 16.6283 143.42 16.6283 142.626 15.9097C142.15 15.4783 141.32 15.1253 140.782 15.1253C140.244 15.1253 139.289 14.5772 138.66 13.9071C137.006 12.1452 134.704 11.8535 132.208 13.0894C131.083 13.6463 129.998 14.0002 129.796 13.8757C129.595 13.7512 129.278 12.7448 129.091 11.6393C128.451 7.84939 125.936 6.6155 121.752 8.03862C119.322 8.86514 119.066 8.87053 117.915 8.11656C116.795 7.38172 116.734 7.17337 117.243 5.82329C117.726 4.54331 117.669 4.20408 116.831 3.3653C116.284 2.8187 114.85 2.25397 113.557 2.0765C111.385 1.77894 111.221 1.83728 110.636 3.12363L110.015 4.48645L101.177 4.16682L92.3383 3.8472L89.4087 5.30414C87.7975 6.10517 85.9937 6.76746 85.3999 6.77628C83.7406 6.79982 82.0074 7.69398 76.6092 11.3118C73.8751 13.1438 70.8201 14.9851 69.8197 15.4033C68.6503 15.892 67.8141 16.6587 67.478 17.5504C66.6878 19.6447 63.4961 19.9653 59.8895 18.3127C57.1128 17.0406 54.6701 16.7279 54.1459 17.5764C53.123 19.2324 37.6751 15.4866 33.0661 12.4649C31.23 11.2609 30.3359 9.16564 30.867 7.31161C31.4284 5.35268 31.0664 4.3884 29.5526 3.81239C28.0393 3.23687 25.4522 3.24176 24.5356 3.82219C24.0427 4.13446 23.4029 3.90994 22.4158 3.07901C20.5355 1.49608 18.7802 1.11223 16.95 1.88482C16.1216 2.23386 14.4946 2.62163 13.3341 2.74615C11.9285 2.89714 11.0286 3.29471 10.6396 3.93691C10.3183 4.46733 9.34679 5.20168 8.48065 5.56886C7.46999 5.99732 6.78903 6.70128 6.58034 7.53417C6.30942 8.61365 6.59454 9.1779 8.27734 10.8942C10.5436 13.2046 10.72 13.6546 9.35805 13.6546C8.83974 13.6546 7.73747 14.2257 6.90857 14.9238C5.65149 15.9822 5.40115 16.5465 5.40115 18.3221C5.40115 20.1736 5.19393 20.5928 3.80899 21.5409C1.71566 22.9738 0.992079 23.9096 0.992079 25.1832C0.992079 26.325 2.86594 28.3614 3.91628 28.3614C4.4096 28.3614 4.3709 28.5849 3.76245 29.258C3.31664 29.7512 2.95167 30.81 2.95167 31.6111C2.95167 32.4121 2.7126 33.3068 2.42062 33.5989C2.12815 33.8916 1.76759 35.5348 1.61915 37.2511C1.47022 38.9674 1.04793 40.9675 0.680504 41.6955C-0.981717 44.9888 0.481116 47.0375 4.1965 46.6188C6.36674 46.3737 6.38095 46.382 6.38095 47.8954C6.38095 48.9694 6.73367 49.6499 7.57777 50.2033C8.59381 50.8691 8.69718 51.1583 8.26215 52.1133C7.90061 52.9079 7.90894 53.5364 8.29155 54.2516C9.00729 55.5899 8.29106 56.0199 5.58095 55.8797C3.42295 55.7679 2.46177 56.5841 2.46177 58.5298C2.46177 58.9803 1.91064 60.0044 1.23703 60.8054C0.531575 61.6447 0.0122844 62.8801 0.0122844 63.7203C0.0122844 64.9037 0.314061 65.3042 1.61425 65.8479C2.49557 66.2165 3.63213 66.9774 4.13967 67.5387C4.64769 68.1005 5.66668 68.5598 6.40446 68.5598C7.14225 68.5598 7.8673 68.8765 8.01574 69.2638C8.16809 69.6609 9.09792 70.0354 10.1463 70.1217C12.4459 70.3119 13.1043 71.8267 10.9973 72.0786C10.2707 72.1654 9.3556 72.7228 8.96369 73.3169C8.31114 74.3062 8.3567 74.5033 9.50796 75.6553C10.6759 76.8235 10.7489 77.1593 10.5348 80.3713C10.234 84.8877 11.1021 86.6736 13.6069 86.6908C14.9733 86.7001 15.0526 87.5036 13.7289 87.9237C12.5336 88.3036 11.6709 89.7914 12.0589 90.8037C12.3597 91.5871 16.9079 92.7612 18.5946 92.4906C19.1266 92.4053 19.8477 92.6994 20.197 93.1441C21.411 94.6873 22.7131 94.6206 25.4825 92.873L28.1294 91.2028L30.1655 92.8725C31.2854 93.7907 32.6747 94.5417 33.2533 94.5417C34.0366 94.5417 34.3051 94.8417 34.3051 95.7163C34.3051 97.2517 37.1877 99.7871 39.4064 100.204C40.3377 100.378 41.4787 100.941 41.9426 101.453C43.0571 102.686 44.0585 102.63 47.817 101.126C50.676 99.9812 51.0341 99.9366 51.7322 100.636C52.7576 101.661 53.514 101.605 55.0596 100.389C55.9017 99.7258 56.4578 98.7003 56.6596 97.4365C56.8296 96.3717 57.1608 95.382 57.3944 95.2374C57.6286 95.0927 57.8202 94.1049 57.8202 93.0421V91.1101H60.2569C61.8192 91.1101 64.0306 91.6415 66.4198 92.5911C73.0016 95.2074 74.4772 96.1511 76.378 98.9596C78.3978 101.944 79.8327 103.129 82.5884 104.09C84.2413 104.667 84.6758 104.663 85.6047 104.065C86.2014 103.68 87.3458 103.366 88.1477 103.366C88.9497 103.366 89.7291 103.166 89.8805 102.921C90.0319 102.676 91.6872 102.5 93.5596 102.528C96.2918 102.571 97.1716 102.393 98.0157 101.628C98.6021 101.097 99.5829 100.744 100.233 100.829C101.756 101.029 104.07 98.79 103.721 97.4551C103.537 96.7502 104.247 95.8001 106.449 93.8059C108.087 92.3234 109.678 91.1101 109.986 91.1101C110.294 91.1101 112.008 91.9926 113.795 93.071C116.967 94.9854 119.183 95.5285 119.792 94.5417C119.959 94.2721 120.767 94.0515 121.588 94.0515C122.822 94.0515 123.018 94.2005 122.718 94.9094C122.14 96.2781 122.365 97.5684 123.437 99.018C124.146 99.9793 124.349 100.787 124.141 101.826C123.883 103.122 124.063 103.419 125.74 104.465C126.78 105.113 127.991 105.776 128.432 105.938C129.387 106.29 131.305 105.063 131.305 104.101C131.305 103.727 131.758 103.104 132.311 102.716C132.865 102.327 133.487 101.377 133.693 100.604C133.988 99.4935 134.408 99.1474 135.697 98.9537C138.182 98.5802 138.626 97.4291 137.255 94.9158C135.942 92.5097 135.967 89.9846 137.306 89.7302C137.796 89.6375 138.163 89.8655 138.163 90.263C138.163 90.6454 138.612 91.3646 139.161 91.8616C140.022 92.6411 140.379 92.6852 141.767 92.1827C142.653 91.8626 144.199 91.6004 145.204 91.6004C147.228 91.6004 148.432 91.068 152.304 88.459C156.052 85.9344 156.835 85.8388 159.328 87.6026C162.175 89.6159 164.259 89.9003 169.048 88.9296C174.778 87.7673 177.758 86.5231 182.758 83.2043C188.07 79.6786 190.241 78.8545 194.215 78.8545C197.847 78.8545 202.31 77.7579 205.154 76.1681C206.301 75.5264 207.239 75.1989 207.239 75.4401C207.239 75.6813 207.677 76.1132 208.212 76.3995C209.542 77.1123 212.847 75.4083 213.832 73.5008C214.367 72.4664 214.828 72.1463 215.522 72.3282C216.048 72.4654 217.106 72.2066 217.874 71.7521C219.164 70.9903 219.553 70.9849 222.946 71.6865C226.8 72.4831 228.471 72.3443 229.897 71.1109C230.668 70.4433 230.754 70.4526 230.754 71.2046C230.754 71.6639 231.09 72.6909 231.501 73.4866C232.553 75.5215 234.054 75.3631 236.388 72.9718C237.487 71.8448 238.765 71.0109 239.392 71.0109C240.69 71.0109 242.03 69.7966 241.999 68.6475C241.957 67.0881 240.794 65.089 239.572 64.4767C238.514 63.9463 238.347 63.534 238.347 61.4408C238.347 59.0646 238.305 58.9955 236.078 57.7842L233.807 56.5493L234.755 54.1369C236.027 50.897 235.799 48.8988 234.061 48.0694C233.085 47.6037 232.713 47.0625 232.711 46.1051C232.707 44.2324 231.775 41.1072 231.221 41.1072C230.964 41.1072 230.754 40.2689 230.754 39.2444C230.754 38.2198 230.532 37.1594 230.261 36.8879C229.929 36.5565 230.25 36.0368 231.236 35.3074C232.283 34.5333 232.796 33.6563 233.019 32.2587C233.277 30.6443 233.491 30.3478 234.229 30.5821C235.577 31.0101 237.123 29.9669 237.123 28.629C237.123 27.7942 236.318 26.8177 234.306 25.2097C230.991 22.562 228.675 21.8105 225.179 22.2473C222.652 22.5635 222.618 22.5498 221.719 20.8786C220.955 19.4599 220.9 18.9324 221.373 17.575C221.682 16.6862 221.936 15.0758 221.936 13.9958C221.936 12.3668 221.623 11.732 220.099 10.2696C219.088 9.30046 217.999 7.91998 217.679 7.2018C217.359 6.48363 216.587 5.73652 215.964 5.54141C215.342 5.3463 214.209 4.66538 213.447 4.02809C212.686 3.3908 211.79 2.86969 211.457 2.86969C211.124 2.86969 210.218 2.20788 209.443 1.39901C208.669 0.590141 207.691 -0.0388205 207.27 0.00186818C206.848 0.0420666 205.902 0.166589 205.168 0.27836ZM32.9094 23.2091C34.3507 23.8807 36.3387 24.4322 37.3268 24.4347C41.292 24.4455 41.7021 25.4896 38.1983 26.6539C36.8369 27.1069 35.4613 27.8966 35.1413 28.4094C34.3159 29.732 29.9127 29.734 28.7178 28.4124C27.6381 27.2192 23.7478 26.5873 22.7225 27.4393C22.2977 27.7917 22.0719 28.5423 22.1953 29.1894C22.503 30.8002 20.9133 30.6919 20.1662 29.0506C19.6513 27.9192 19.7453 27.5991 21.024 26.1416C21.8147 25.2411 22.5965 24.0778 22.7616 23.5567C23.0477 22.6537 23.1619 22.6449 25.1817 23.3719C27.2153 24.1038 27.3569 24.091 28.6649 23.0616C29.4144 22.4713 30.0866 21.9885 30.1586 21.9885C30.2301 21.9885 31.4681 22.538 32.9094 23.2091ZM126.507 91.2636C125.562 92.2538 125.139 92.4509 125.036 91.9489C124.829 90.9469 127.026 88.5678 127.481 89.3032C127.68 89.6262 127.258 90.4782 126.507 91.2636Z" stroke="#E72434" stroke-width="4" mask="url(#path-1-inside-1_257_488)"/>
</svg>
