<svg width="124" height="149" viewBox="0 0 124 149" fill="none" xmlns="http://www.w3.org/2000/svg">
<path d="M74.6309 1.90164C78.7759 2.6447 81.7004 3.02947 82.6009 2.95018C83.3834 2.88149 85.6987 2.27427 87.7465 1.60082L88.0588 2.55079C88.0589 2.55078 88.0589 2.55078 88.0589 2.55077C89.0644 2.22014 90.1171 1.90943 90.9993 1.67612C91.9171 1.4334 92.5589 1.29963 92.7949 1.2824L92.7953 1.28236C93.6123 1.22229 94.6744 1.35498 95.7402 1.64759C96.8058 1.94014 97.7893 2.36901 98.4656 2.83964L98.4658 2.83972C99.2847 3.40942 100.403 4.67587 101.642 6.50774C102.861 8.3108 104.138 10.5723 105.293 13.0352C106.37 15.3296 109.348 21.3859 111.912 26.4946C117.937 38.5021 119.716 42.5338 120.851 46.6225C122.987 54.3234 123.047 60.6271 121.024 70.0718C118.022 84.0846 118.239 97.0922 121.708 110.695C122.286 112.963 122.585 114.518 122.662 115.865C122.737 117.191 122.598 118.354 122.249 119.834C121.797 121.745 120.998 123.226 119.909 124.309C118.822 125.389 117.396 126.124 115.605 126.467C114.811 126.618 114.32 126.671 113.735 126.633C113.119 126.594 112.364 126.452 111.043 126.154C109.409 125.786 106.881 125.036 105.458 124.499C103.414 123.727 101.794 123.346 99.4435 123.077C95.2753 122.601 91.6987 122.851 87.7629 124.188C83.8596 125.514 79.6478 127.894 74.185 131.594C64.938 137.857 58.3739 141.011 49.2976 143.574C39.7032 146.283 27.1877 147.549 13.8491 147.134C11.1698 147.051 9.63519 146.969 8.49718 146.791C7.40494 146.62 6.67254 146.359 5.60691 145.873C3.69368 145.001 2.7618 143.971 2.36163 142.618L2.36153 142.617C2.24015 142.207 2.17985 141.837 2.26148 140.93C2.34723 139.977 2.58163 138.517 3.02919 135.944L4.04738 130.089L4.09557 129.812L3.99227 129.55L3.05967 127.189C1.44618 123.102 1.22011 119.744 2.2537 116.05C3.31747 112.248 5.79836 108.652 11.7156 102.685L11.0055 101.981L11.7156 102.685C14.714 99.6613 16.6874 97.4159 17.9816 95.2867C19.2985 93.1202 19.891 91.1108 20.2074 88.6002L20.2074 88.6002C20.4373 86.7746 20.4858 85.2944 20.254 83.6235C20.025 81.9724 19.5273 80.1736 18.7149 77.7101C15.9849 69.4314 15.3444 63.5442 16.4147 57.3141C16.7419 55.4094 17.0407 54.223 17.427 53.3631C17.7933 52.5477 18.2524 51.9953 18.9868 51.4016C19.9636 50.6125 20.6263 50.262 21.5725 50.1325C22.6069 49.9909 24.0304 50.1057 26.5587 50.4717C28.9835 50.8227 30.5453 51.0066 31.6987 50.8786C32.9959 50.7347 33.7645 50.203 34.6159 49.4122L33.9354 48.6795L34.6159 49.4122C35.334 48.7452 35.9557 47.7088 36.3919 46.6803C36.8289 45.65 37.143 44.4788 37.1323 43.4889C37.1152 41.9173 36.7404 40.5502 35.8641 39.2839C35.0068 38.045 33.7136 36.9671 31.9766 35.8798L31.9765 35.8798C29.516 34.3398 28.272 33.417 27.4837 32.3486C26.7112 31.3017 26.3141 30.0287 25.8231 27.5817L24.8479 27.7774L25.8231 27.5817C24.7712 22.3403 24.9084 18.9612 26.4469 16.3183C28.0038 13.6437 31.1222 11.4961 36.6608 9.07961C45.6155 5.17275 52.4063 3.03968 58.5795 2.16055C63.8876 1.4049 66.9053 1.53251 74.4544 2.88594L74.6309 1.90164ZM74.6309 1.90164L74.4544 2.88594C76.5358 3.25906 78.3196 3.54385 79.7021 3.72575C81.041 3.90189 82.1091 3.99729 82.6883 3.94635L74.6309 1.90164Z" stroke="#E72434" stroke-width="2"/>
</svg>
