<svg width="219" height="140" viewBox="0 0 219 140" fill="none" xmlns="http://www.w3.org/2000/svg">
<path d="M138.905 53.2379L138.905 53.2379C136.841 54.2 135.639 55.0768 134.79 56.3402C133.917 57.6395 133.343 59.4516 132.784 62.4555C132.009 66.6107 130.696 70.0347 128.318 73.4257C125.956 76.7945 122.57 80.0907 117.715 84.0334C112.1 88.594 108.036 91.0612 104.687 91.7277C102.799 92.1037 101.403 92.3124 100.18 91.9306C98.9257 91.5389 98.0159 90.5814 96.9023 89.2615L97.6666 88.6167L96.9023 89.2615C95.9695 88.1558 95.1958 87.3518 94.523 86.8062C93.8479 86.2588 93.3401 86.0262 92.9385 85.9631C92.2247 85.8509 91.3659 86.2222 89.8759 87.9311C89.8759 87.9311 89.8758 87.9311 89.8758 87.9312L89.1221 87.274C88.1626 88.3746 86.472 90.2789 85.3653 91.5058L138.905 53.2379ZM138.905 53.2379C141.263 52.1384 144.758 51.5332 148.624 51.6246C150.996 51.6809 152.151 52.4008 152.544 53.2385C152.699 53.5681 152.82 54.3628 152.788 55.4552C152.757 56.4993 152.592 57.6413 152.314 58.5637C152.229 58.8475 152.181 59.2688 152.148 59.6922C152.112 60.149 152.085 60.7154 152.069 61.3497C152.036 62.6196 152.041 64.1942 152.093 65.7718C152.29 71.8061 151.849 75.6961 150.411 78.6186C148.994 81.4999 146.532 83.5856 142.309 85.8213C140.081 87.0005 138.566 87.9034 137.377 88.919C136.165 89.9534 135.331 91.0691 134.4 92.6079L134.4 92.6079C132.232 96.1942 131.036 99.0902 128.657 106.4C127.078 111.252 125.969 114.125 124.774 116.036C123.626 117.873 122.392 118.834 120.436 119.786C118.165 120.891 115.759 121.261 110.006 121.192C107.583 121.164 103.862 121.215 101.722 121.307C99.6672 121.395 95.0894 121.206 91.5716 120.88C86.951 120.453 83.8931 120.313 81.2188 120.667C78.5144 121.025 76.2584 121.88 73.225 123.333C70.5934 124.594 68.8092 125.188 67.5089 125.267C66.8805 125.305 66.3903 125.221 65.9787 125.048C65.5662 124.876 65.1781 124.591 64.7861 124.153C64.6392 123.989 64.449 123.663 64.2592 123.142C64.0752 122.636 63.9141 122.009 63.7904 121.302C63.5427 119.886 63.458 118.224 63.6005 116.705L62.6049 116.611L63.6005 116.705C63.7854 114.732 63.7782 113.205 63.1368 111.951C62.4833 110.672 61.2738 109.869 59.6434 109.04L59.1902 109.931L59.6434 109.04C59.3579 108.894 59.1047 108.769 58.8946 108.682C58.7319 108.614 58.4176 108.487 58.0809 108.506C57.87 108.518 57.5973 108.589 57.3629 108.806C57.1402 109.012 57.0536 109.256 57.0178 109.416C56.9579 109.685 56.9908 109.968 57.0072 110.108L57.0078 110.114C57.0054 110.093 57.0054 110.094 57.0031 110.124C57.0001 110.164 56.9928 110.259 56.9698 110.427C56.9363 110.673 56.8812 110.998 56.807 111.383C56.6591 112.151 56.4423 113.123 56.1929 114.108C55.5057 116.823 55.009 118.082 54.1199 119.511C51.2062 124.195 45.4468 127.116 39.8935 126.717L39.8932 126.717C39.5103 126.69 38.6052 126.509 37.3918 126.205C36.2094 125.908 34.8125 125.515 33.4913 125.099C30.7419 124.232 28.9291 123.736 27.4864 123.686C25.9294 123.633 24.8462 124.097 23.5722 124.893C23.0719 125.206 22.209 125.901 21.2103 126.754C20.1894 127.625 18.9674 128.712 17.7221 129.851C15.2411 132.12 12.6248 134.637 11.313 136.091C10.2125 137.31 9.43263 137.973 8.75364 138.311C8.13096 138.622 7.53269 138.688 6.69572 138.536C5.9181 138.394 5.10967 137.971 4.43711 137.361C3.76321 136.75 3.28709 136.008 3.10154 135.295L2.13372 135.546M138.905 53.2379L2.13372 135.546M2.13372 135.546L3.10153 135.295C2.95883 134.746 3.03757 133.647 3.4898 132.05C3.92678 130.507 4.66628 128.653 5.66114 126.69C6.67214 124.695 7.33996 123.203 7.67107 122.086C7.98501 121.027 8.10176 119.967 7.4888 119.154L2.13372 135.546ZM164.631 21.3865L163.881 20.7249L164.631 21.3865C167.603 18.0171 170.254 11.3524 171.228 5.09226C171.49 3.41635 171.694 2.63601 171.95 2.2052C172.126 1.90945 172.344 1.73697 173.09 1.54182C174.319 1.22064 175.653 1.57175 176.664 2.5426C176.848 2.71903 177.426 3.44063 178.26 4.56229C179.067 5.64566 180.053 7.02088 181.025 8.42423L181.847 7.85514L181.025 8.42425C186.704 16.6303 190.236 21.2957 194.812 24.2292C199.394 27.1672 204.939 28.3144 214.421 29.8282C214.704 29.8734 214.98 29.9186 215.247 29.9634C213.516 30.7156 210.516 32.1667 207.725 33.6056L208.184 34.4944L207.725 33.6056C201.338 36.8987 197.851 38.618 194.517 39.6743C191.199 40.7252 188.002 41.1292 182.161 41.711C177.831 42.1423 175.578 42.3423 173.891 42.2927C172.262 42.2447 171.161 41.9641 169.114 41.3527C167.476 40.8633 166.595 40.569 165.909 40.2311C165.251 39.907 164.744 39.5275 163.887 38.7952C161.573 36.8179 159.437 35.4425 157.501 34.7474C155.552 34.0474 153.718 34.0111 152.14 34.8601C151.199 35.3663 150.516 36.0554 150.127 37.102C149.764 38.0798 149.687 39.2976 149.747 40.8085L149.797 42.0703L148.815 42.3772L149.113 43.3317L148.814 42.3772C147.723 42.7182 145.565 43.2968 143.635 43.7843C142.674 44.0272 141.779 44.2449 141.113 44.3967C141.069 44.4067 141.026 44.4164 140.984 44.4258C141.007 43.8489 141.086 43.0641 141.21 42.1673C141.476 40.251 141.936 37.94 142.441 36.264C143.204 33.7267 143.882 32.1575 144.81 30.9613C145.727 29.7786 146.951 28.8812 148.966 27.815L148.966 27.815C151.134 26.6681 152.681 26.1699 155.902 25.6185C158.216 25.2227 159.829 24.8453 161.154 24.21C162.512 23.5582 163.5 22.6685 164.631 21.3865ZM75.8077 101.298L75.5464 100.332L7.4885 119.154C7.30414 118.909 7.05386 118.721 6.82913 118.577C6.59026 118.425 6.30745 118.279 5.99631 118.138C5.37328 117.857 4.56968 117.569 3.62959 117.286C2.31117 116.889 1.71279 116.681 1.39516 116.501C1.26789 116.429 1.23765 116.388 1.22952 116.377L1.22936 116.377C1.21435 116.357 1.18257 116.307 1.12676 116.137L1.1267 116.137C0.856432 115.316 1.07814 114.362 2.15348 113.274C3.24264 112.172 5.10006 111.068 7.70717 110.117L7.36473 109.178L7.70726 110.117C9.00002 109.646 10.6046 109.251 12.1171 109.005C13.6513 108.755 14.9893 108.676 15.7786 108.779C16.2772 108.844 16.8306 108.894 17.2764 108.756C17.5454 108.674 17.8528 108.5 18.0555 108.164C18.2455 107.848 18.2607 107.523 18.2446 107.302L18.2446 107.302C18.1 105.339 18.49 103.86 19.0402 103.19C19.1431 103.064 19.4056 102.846 19.9108 102.558C20.3949 102.281 21.0295 101.981 21.798 101.665C23.3334 101.035 25.3362 100.372 27.5931 99.7408C32.1078 98.4786 37.5567 97.367 42.1624 96.8978C49.9267 96.1066 55.2167 96.6735 65.356 99.4352C69.3252 100.516 71.4876 101.096 72.8373 101.35C73.5235 101.478 74.0512 101.533 74.5316 101.515C75.0219 101.497 75.4147 101.404 75.8077 101.298C75.8077 101.298 75.8077 101.298 75.8077 101.298Z" stroke="#E72434" stroke-width="2"/>
</svg>
