<svg width="25" height="25" viewBox="0 0 25 25" fill="none" xmlns="http://www.w3.org/2000/svg">
<path d="M12.0498 22.5C6.5268 22.5 2.0498 18.023 2.0498 12.5C2.0498 6.977 6.5268 2.5 12.0498 2.5C17.5728 2.5 22.0498 6.977 22.0498 12.5C22.0498 18.023 17.5728 22.5 12.0498 22.5ZM7.0628 18.756C8.47835 19.8877 10.2375 20.5029 12.0498 20.5C14.0198 20.5 15.8228 19.788 17.2168 18.608C16.5655 17.9397 15.7869 17.4089 14.9268 17.0468C14.0668 16.6847 13.1429 16.4988 12.2098 16.5C11.2424 16.4989 10.2853 16.6989 9.39927 17.0872C8.51323 17.4756 7.71759 18.0439 7.0628 18.756ZM5.6658 17.32C6.50626 16.4281 7.52047 15.7177 8.64594 15.2327C9.77141 14.7477 10.9843 14.4984 12.2098 14.5C13.3915 14.4985 14.5618 14.7304 15.6536 15.1824C16.7453 15.6344 17.7371 16.2976 18.5718 17.134C19.4279 15.9291 19.9334 14.5106 20.0324 13.0359C20.1313 11.5612 19.8198 10.0879 19.1323 8.77946C18.4448 7.47102 17.4083 6.37862 16.1378 5.62345C14.8672 4.86827 13.4123 4.47984 11.9344 4.50125C10.4565 4.52267 9.01346 4.95308 7.76532 5.74476C6.51718 6.53643 5.51276 7.6584 4.8635 8.9862C4.21423 10.314 3.9455 11.7957 4.08712 13.2669C4.22874 14.7382 4.77518 16.1414 5.6658 17.321V17.32ZM12.0498 13.5C10.9889 13.5 9.97152 13.0786 9.22138 12.3284C8.47123 11.5783 8.0498 10.5609 8.0498 9.5C8.0498 8.43913 8.47123 7.42172 9.22138 6.67157C9.97152 5.92143 10.9889 5.5 12.0498 5.5C13.1107 5.5 14.1281 5.92143 14.8782 6.67157C15.6284 7.42172 16.0498 8.43913 16.0498 9.5C16.0498 10.5609 15.6284 11.5783 14.8782 12.3284C14.1281 13.0786 13.1107 13.5 12.0498 13.5ZM12.0498 11.5C12.5802 11.5 13.0889 11.2893 13.464 10.9142C13.8391 10.5391 14.0498 10.0304 14.0498 9.5C14.0498 8.96957 13.8391 8.46086 13.464 8.08579C13.0889 7.71071 12.5802 7.5 12.0498 7.5C11.5194 7.5 11.0107 7.71071 10.6356 8.08579C10.2605 8.46086 10.0498 8.96957 10.0498 9.5C10.0498 10.0304 10.2605 10.5391 10.6356 10.9142C11.0107 11.2893 11.5194 11.5 12.0498 11.5Z" fill="white"/>
</svg>
