<svg width="56" height="56" viewBox="0 0 56 56" fill="none" xmlns="http://www.w3.org/2000/svg">
<circle cx="28" cy="28" r="28" fill="white"/>
<path d="M34.8357 29.1757C34.8076 26.0457 37.3986 24.523 37.5171 24.4521C36.0497 22.3127 33.7753 22.0204 32.976 21.9971C31.0658 21.796 29.2129 23.1401 28.2398 23.1401C27.2473 23.1401 25.7488 22.0165 24.1338 22.0495C22.0556 22.0815 20.1113 23.2848 19.045 25.1533C16.8444 28.963 18.4857 34.5616 20.594 37.6411C21.6487 39.1493 22.881 40.8333 24.4941 40.774C26.0722 40.7089 26.6617 39.7679 28.5661 39.7679C30.453 39.7679 31.0065 40.774 32.6517 40.7361C34.3453 40.7089 35.4116 39.2212 36.4294 37.6994C37.6482 35.9708 38.1376 34.2684 38.157 34.181C38.1172 34.1674 34.8678 32.9272 34.8357 29.1757Z" fill="#1F2C32"/>
<path d="M31.7279 19.971C32.5767 18.9095 33.1574 17.4654 32.9962 16C31.7677 16.0544 30.2314 16.8497 29.3467 17.8879C28.5639 18.8027 27.8647 20.3021 28.0453 21.7122C29.4253 21.8152 30.8422 21.0159 31.7279 19.971Z" fill="#1F2C32"/>
</svg>
