<svg width="75" height="51" viewBox="0 0 75 51" fill="none" xmlns="http://www.w3.org/2000/svg">
<path d="M1.57091 25.9924C1.43463 25.8048 1.31654 25.6398 1.21718 25.4996C1.31654 25.3594 1.43463 25.1944 1.57091 25.0068C2.06191 24.3309 2.78864 23.3619 3.72594 22.1974C5.60177 19.8669 8.31463 16.7617 11.6631 13.6597C18.3962 7.42204 27.532 1.35254 37.5 1.35254C47.468 1.35254 56.6038 7.42204 63.3369 13.6597C66.6854 16.7617 69.3982 19.8669 71.2741 22.1974C72.2114 23.3619 72.9381 24.3309 73.4291 25.0068C73.5654 25.1944 73.6835 25.3594 73.7828 25.4996C73.6835 25.6398 73.5654 25.8048 73.4291 25.9924C72.9381 26.6683 72.2114 27.6373 71.2741 28.8018C69.3982 31.1323 66.6854 34.2375 63.3369 37.3395C56.6038 43.5772 47.468 49.6467 37.5 49.6467C27.532 49.6467 18.3962 43.5772 11.6631 37.3395C8.31463 34.2375 5.60177 31.1323 3.72594 28.8018C2.78864 27.6373 2.06191 26.6683 1.57091 25.9924Z" stroke="#1F2C32" stroke-width="2"/>
<circle cx="37.9411" cy="25.0588" r="4.29412" stroke="#E72434" stroke-width="2"/>
</svg>
