<svg width="159" height="29" viewBox="0 0 159 29" fill="none" xmlns="http://www.w3.org/2000/svg">
<g clip-path="url(#clip0_255_292)">
<path d="M8.35645 11.9131C9.56512 13.0328 11.2271 13.5994 13.3194 13.5994H20.5736V11.9131H8.35645Z" fill="url(#paint0_linear_255_292)"/>
<path d="M6.35059 7.91016C6.39512 8.24403 6.51117 8.87795 6.79922 9.60213H20.5734V7.91016H6.35059Z" fill="url(#paint1_linear_255_292)"/>
<path d="M6.89941 9.84082C7.01596 10.1055 7.15552 10.3783 7.32355 10.6507C7.55664 11.0287 7.82086 11.3697 8.11405 11.6754H20.5736V9.84082H6.89941Z" fill="url(#paint2_linear_255_292)"/>
<path d="M14.5049 19.0215C15.7137 20.1429 17.3767 20.7106 19.4707 20.7106H20.5733V19.0215H14.5049Z" fill="url(#paint3_linear_255_292)"/>
<path d="M12.502 15.0215C12.5467 15.3549 12.6625 15.9875 12.9499 16.7108H20.5735V15.0215H12.502Z" fill="url(#paint4_linear_255_292)"/>
<path d="M13.0498 16.9492C13.1667 17.2145 13.3067 17.4884 13.4751 17.7616C13.7075 18.1386 13.9708 18.4785 14.2628 18.7839H20.5735V16.9494H13.0498V16.9492Z" fill="url(#paint5_linear_255_292)"/>
<g opacity="0.4">
<path opacity="0.4" d="M8.35645 11.9131C9.56512 13.0328 11.2271 13.5994 13.3194 13.5994H20.5736V11.9131H8.35645Z" fill="url(#paint6_linear_255_292)"/>
<path opacity="0.4" d="M6.35059 7.91016C6.39512 8.24403 6.51117 8.87795 6.79922 9.60213H20.5734V7.91016H6.35059Z" fill="url(#paint7_linear_255_292)"/>
<path opacity="0.4" d="M6.89941 9.84082C7.01596 10.1055 7.15552 10.3783 7.32355 10.6507C7.55664 11.0287 7.82086 11.3697 8.11405 11.6754H20.5736V9.84082H6.89941Z" fill="url(#paint8_linear_255_292)"/>
</g>
<g opacity="0.4">
<path opacity="0.4" d="M14.5049 19.0215C15.7137 20.1429 17.3767 20.7106 19.4707 20.7106H20.5733V19.0215H14.5049Z" fill="url(#paint9_linear_255_292)"/>
<path opacity="0.4" d="M12.502 15.0215C12.5467 15.3549 12.6625 15.9875 12.9499 16.7108H20.5735V15.0215H12.502Z" fill="url(#paint10_linear_255_292)"/>
<path opacity="0.4" d="M13.0498 16.9492C13.1667 17.2145 13.3067 17.4884 13.4751 17.7616C13.7075 18.1386 13.9708 18.4785 14.2628 18.7839H20.5735V16.9494H13.0498V16.9492Z" fill="url(#paint11_linear_255_292)"/>
</g>
<path d="M50.9951 20.7103H74.8402V16.1195H57.4371V12.4774H73.6863V8.43791H57.4371V4.88781H74.8402V0.296875H50.9951V20.7103Z" fill="url(#paint12_linear_255_292)"/>
<path d="M83.3965 0.296875H76.8267V20.7103H98.1074V15.6298H83.3965V0.296875Z" fill="url(#paint13_linear_255_292)"/>
<path d="M100.095 20.7103H123.94V16.1195H106.537V12.4774H122.786V8.43791H106.537V4.88781H123.94V0.296875H100.095V20.7103Z" fill="url(#paint14_linear_255_292)"/>
<path d="M147.304 10.4886L157.303 0.296875H148.906L142.047 7.61144L135.221 0.296875H126.535L136.631 10.4886L125.927 20.7103H134.772L141.984 13.3651L149.163 20.7103H158.072L147.304 10.4886Z" fill="url(#paint15_linear_255_292)"/>
<path d="M44.0083 0.665003C43.0039 0.56288 42.1011 0.481309 41.2999 0.419814C40.4986 0.358635 39.8098 0.328125 39.233 0.328125H28.4211H20.3238H0.492676C0.492676 0.328125 0.807716 6.49421 7.73744 6.49421C10.5016 6.49421 15.7874 6.49421 20.3238 6.49421V7.43355V13.5996V14.5448V20.7107C26.3503 20.7107 40.1546 20.7107 40.1546 20.7107H41.6368C43.8159 20.7107 45.5412 20.1805 46.8128 19.1193C48.0838 18.0589 48.7622 16.5998 48.8478 14.7427C48.8906 13.5189 48.9282 12.4377 48.96 11.4987C48.992 10.5605 49.0082 9.77494 49.0082 9.14212C49.0082 6.46971 48.5595 4.42425 47.6621 3.00592C46.7645 1.58822 45.5465 0.807753 44.0083 0.665003ZM42.2776 13.1973C42.1495 13.9013 41.9141 14.4422 41.5724 14.8193C41.2305 15.1974 40.7602 15.4467 40.1624 15.5695C40.1599 15.57 40.1569 15.5705 40.1546 15.5709C39.5571 15.6924 38.791 15.7527 37.8546 15.7527H26.8938V14.5448V13.5996V7.43371V6.49421V5.28613H28.4213H38.6883C39.5 5.28613 40.1515 5.38809 40.6431 5.59202C41.1345 5.79611 41.5191 6.10232 41.797 6.51002C42.0746 6.91835 42.2564 7.44888 42.3418 8.10161C42.4271 8.75466 42.4703 9.51979 42.4703 10.397C42.47 11.56 42.4059 12.4934 42.2776 13.1973Z" fill="url(#paint16_linear_255_292)"/>
<path d="M101.862 22.5586V26.6821H105.818V28.0482H100.095V22.5586H101.862Z" fill="#8D2000"/>
<path d="M106.128 25.826C106.128 25.3044 106.135 24.8558 106.149 24.4799C106.164 24.1043 106.218 23.7876 106.313 23.5293C106.408 23.272 106.557 23.0671 106.761 22.9163C106.965 22.7656 107.257 22.657 107.636 22.5912C107.894 22.5473 108.364 22.5212 109.045 22.5133C109.726 22.5048 110.618 22.501 111.721 22.501C112.083 22.501 112.397 22.5309 112.661 22.5912C112.925 22.6515 113.147 22.7462 113.328 22.8753C113.51 23.0042 113.652 23.1728 113.755 23.3812C113.859 23.5902 113.93 23.842 113.971 24.1387C113.994 24.2921 114.007 24.4921 114.01 24.7393C114.012 24.9862 114.014 25.2741 114.014 25.6035C114.014 26.0043 113.988 26.3429 113.936 26.62C113.884 26.8973 113.795 27.1287 113.669 27.3153C113.542 27.502 113.375 27.6473 113.164 27.7514C112.955 27.8556 112.692 27.9339 112.376 27.9859C112.06 28.0384 111.688 28.0709 111.26 28.0852C110.832 28.0983 110.333 28.1051 109.765 28.1051C109.121 28.1051 108.569 28.0875 108.11 28.0521C107.65 28.0161 107.274 27.9231 106.981 27.772C106.688 27.6212 106.473 27.3932 106.335 27.0892C106.197 26.7846 106.128 26.3636 106.128 25.826ZM107.912 25.0689C107.912 25.3487 107.916 25.5844 107.925 25.7765C107.934 25.9682 107.956 26.1274 107.994 26.2541C108.031 26.3802 108.089 26.476 108.166 26.5421C108.244 26.6077 108.353 26.6573 108.494 26.6902C108.634 26.7233 108.81 26.7421 109.02 26.7478C109.229 26.7534 109.483 26.756 109.782 26.756C110.38 26.756 110.845 26.749 111.178 26.735C111.511 26.7218 111.757 26.6682 111.915 26.5747C112.073 26.4815 112.169 26.3293 112.204 26.1179C112.239 25.9069 112.256 25.6064 112.256 25.217C112.256 24.8986 112.24 24.6476 112.208 24.4639C112.176 24.2796 112.109 24.1427 112.006 24.0521C111.902 23.9617 111.75 23.9052 111.549 23.8837C111.348 23.8616 111.08 23.8507 110.747 23.8507C110.144 23.8507 109.655 23.8507 109.282 23.8507C108.908 23.8507 108.621 23.8853 108.42 23.9535C108.219 24.0224 108.084 24.1414 108.015 24.3118C107.946 24.4818 107.912 24.7339 107.912 25.0689Z" fill="#8D2000"/>
<path d="M118.125 25.9905V24.9456H122.064C122.058 25.3677 122.053 25.7382 122.051 26.0568C122.048 26.3747 122.031 26.6509 121.999 26.8834C121.967 27.1164 121.908 27.3113 121.822 27.4677C121.736 27.624 121.608 27.7506 121.439 27.8464C121.269 27.9421 121.046 28.0093 120.766 28.0478C120.488 28.0861 120.139 28.1051 119.719 28.1051C119.536 28.1051 119.35 28.104 119.164 28.101C118.977 28.0983 118.795 28.0968 118.616 28.0968H118.082C117.444 28.0968 116.902 28.0809 116.457 28.0478C116.012 28.0146 115.648 27.9215 115.367 27.7682C115.086 27.6145 114.882 27.3812 114.755 27.068C114.629 26.7555 114.565 26.3193 114.565 25.7597C114.565 25.5893 114.571 25.3607 114.583 25.0727C114.594 24.7843 114.612 24.44 114.634 24.0398C114.64 23.8643 114.68 23.694 114.755 23.5293C114.829 23.3648 114.926 23.2195 115.044 23.0932C115.161 22.9673 115.296 22.8619 115.449 22.7765C115.601 22.6915 115.764 22.638 115.936 22.6156C116.281 22.572 116.625 22.5416 116.97 22.5253C117.315 22.509 117.659 22.501 118.004 22.501C118.47 22.501 118.888 22.501 119.258 22.501C119.629 22.501 119.957 22.5119 120.245 22.5332C120.532 22.5555 120.779 22.5928 120.986 22.6447C121.193 22.6972 121.366 22.7753 121.503 22.8797C121.636 22.9779 121.739 23.0819 121.814 23.1918C121.888 23.3018 121.943 23.4196 121.978 23.5459C122.012 23.6724 122.033 23.8091 122.042 23.9573C122.051 24.1055 122.055 24.2646 122.055 24.4348H120.34C120.329 24.2921 120.305 24.1813 120.271 24.1017C120.237 24.0221 120.175 23.9614 120.086 23.9206C119.997 23.8793 119.873 23.8529 119.715 23.8422C119.557 23.8314 119.355 23.8257 119.108 23.8257H118.668C118.513 23.8257 118.361 23.8248 118.211 23.8218C118.062 23.8189 117.924 23.8177 117.797 23.8177C117.51 23.8177 117.273 23.8218 117.087 23.83C116.9 23.8382 116.749 23.8807 116.634 23.9574C116.519 24.0349 116.439 24.1593 116.393 24.3318C116.347 24.505 116.324 24.7561 116.324 25.0849C116.324 25.3871 116.331 25.6391 116.346 25.8421C116.36 26.0454 116.393 26.2101 116.445 26.3361C116.496 26.4624 116.574 26.5573 116.677 26.6202C116.781 26.6829 116.92 26.7288 117.095 26.7558C117.27 26.783 117.489 26.7972 117.75 26.7972C118.011 26.7972 118.329 26.7972 118.703 26.7972C118.979 26.7972 119.22 26.7972 119.427 26.7972C119.633 26.7972 119.806 26.7778 119.943 26.7389C120.081 26.7013 120.184 26.6366 120.25 26.5459C120.315 26.4553 120.349 26.3195 120.349 26.1383C120.349 26.1055 120.348 26.0811 120.344 26.0645C120.342 26.0481 120.34 26.0234 120.34 25.9904H118.125V25.9905Z" fill="#8D2000"/>
<path d="M124.615 22.5586V28.0482H122.848V22.5586H124.615Z" fill="#8D2000"/>
<path d="M130.64 24.2372C130.634 24.1115 130.61 24.0112 130.57 23.9373C130.53 23.863 130.46 23.808 130.359 23.7726C130.259 23.7369 130.126 23.7133 129.963 23.7026C129.799 23.6915 129.588 23.686 129.329 23.686C129.284 23.686 129.246 23.686 129.217 23.686C129.189 23.686 129.151 23.6888 129.105 23.6945C128.731 23.711 128.418 23.719 128.166 23.719C127.913 23.719 127.709 23.731 127.554 23.7557C127.399 23.7808 127.287 23.8259 127.218 23.8918C127.149 23.9574 127.114 24.0674 127.114 24.2211C127.114 24.358 127.166 24.4612 127.269 24.5298C127.373 24.5986 127.516 24.6354 127.701 24.6408C127.959 24.6463 128.205 24.6517 128.437 24.6569C128.67 24.6628 128.887 24.6656 129.088 24.6656C129.209 24.6656 129.334 24.6644 129.463 24.6614C129.592 24.6585 129.714 24.6571 129.83 24.6571C130.306 24.6571 130.72 24.6696 131.07 24.6946C131.421 24.7189 131.71 24.7864 131.937 24.896C132.164 25.0057 132.332 25.1734 132.441 25.3977C132.55 25.623 132.605 25.9382 132.605 26.3448C132.605 26.6298 132.576 26.8714 132.519 27.0684C132.461 27.2668 132.37 27.4296 132.246 27.5587C132.123 27.6874 131.967 27.7873 131.777 27.8586C131.587 27.9304 131.36 27.9796 131.096 28.0067C130.941 28.0235 130.642 28.0426 130.2 28.0644C129.757 28.0864 129.191 28.097 128.502 28.097C127.824 28.097 127.271 28.0784 126.843 28.0398C126.415 28.0012 126.103 27.9163 125.908 27.7848C125.77 27.6917 125.668 27.5913 125.602 27.4844C125.536 27.3774 125.49 27.2637 125.464 27.1428C125.438 27.022 125.425 26.8919 125.425 26.7516C125.425 26.612 125.425 26.4596 125.425 26.295H127.158C127.158 26.3556 127.158 26.4183 127.158 26.4844C127.158 26.55 127.172 26.6093 127.201 26.6614C127.23 26.7138 127.281 26.7599 127.356 26.8012C127.43 26.8423 127.546 26.8687 127.701 26.8796C127.775 26.8851 127.915 26.8902 128.119 26.8959C128.323 26.9014 128.58 26.9041 128.89 26.9041C129.292 26.9041 129.621 26.9014 129.877 26.8959C130.132 26.8904 130.332 26.8715 130.476 26.8382C130.619 26.8059 130.717 26.756 130.769 26.6902C130.821 26.624 130.847 26.5285 130.847 26.4023C130.847 26.2816 130.821 26.1867 130.769 26.1181C130.717 26.0495 130.643 26.0005 130.545 25.9698C130.447 25.9396 130.331 25.9224 130.196 25.9161C130.061 25.911 129.913 25.9082 129.752 25.9082C129.189 25.9031 128.689 25.9012 128.253 25.9042C127.816 25.9071 127.436 25.8973 127.115 25.8751C126.793 25.8532 126.522 25.8151 126.3 25.7599C126.079 25.7055 125.901 25.6175 125.766 25.4967C125.631 25.3759 125.533 25.2169 125.473 25.0191C125.412 24.8218 125.382 24.5724 125.382 24.2701C125.382 24.0014 125.407 23.768 125.456 23.5703C125.504 23.373 125.586 23.207 125.701 23.0728C125.816 22.9382 125.967 22.8341 126.153 22.7599C126.34 22.6858 126.572 22.6322 126.847 22.5993C127.031 22.5775 127.328 22.5555 127.739 22.5332C128.15 22.5119 128.666 22.501 129.287 22.501C129.614 22.501 129.908 22.5021 130.17 22.5048C130.431 22.5078 130.664 22.5203 130.868 22.5416C131.072 22.5637 131.251 22.5955 131.406 22.6366C131.562 22.6777 131.697 22.7394 131.812 22.8216C131.938 22.9096 132.037 23.0024 132.109 23.1015C132.181 23.1997 132.234 23.3069 132.269 23.4226C132.303 23.5379 132.326 23.6626 132.337 23.7968C132.349 23.9313 132.355 24.0782 132.355 24.2371H130.64V24.2372Z" fill="#8D2000"/>
<path d="M137.293 23.9331V28.0481H135.526V23.9331H132.949V22.5586H139.827V23.9331H137.293Z" fill="#8D2000"/>
<path d="M142.223 22.5586V28.0482H140.456V22.5586H142.223Z" fill="#8D2000"/>
<path d="M148.575 24.4919C148.569 24.3221 148.543 24.1936 148.497 24.1052C148.451 24.0172 148.365 23.9544 148.238 23.9163C148.112 23.8779 147.932 23.8572 147.7 23.8543C147.467 23.8515 147.161 23.8502 146.782 23.8502C146.351 23.8502 146.003 23.8543 145.739 23.8627C145.475 23.8708 145.268 23.9108 145.119 23.9819C144.969 24.0535 144.869 24.1727 144.817 24.3398C144.765 24.5075 144.74 24.7504 144.74 25.0686C144.74 25.4744 144.753 25.7885 144.778 26.0106C144.804 26.2329 144.882 26.3973 145.011 26.5045C145.14 26.6115 145.339 26.6747 145.61 26.6935C145.88 26.7133 146.256 26.7228 146.739 26.7228C147.101 26.7228 147.402 26.7228 147.644 26.7228C147.885 26.7228 148.076 26.7008 148.217 26.6569C148.358 26.6132 148.458 26.537 148.519 26.4306C148.579 26.3235 148.609 26.1628 148.609 25.9486H150.333C150.333 25.9929 150.334 26.0324 150.337 26.068C150.34 26.1042 150.342 26.1437 150.342 26.1875C150.342 26.4675 150.323 26.7142 150.285 26.9283C150.248 27.1423 150.183 27.3238 150.091 27.4716C150 27.6197 149.876 27.738 149.721 27.8253C149.566 27.9133 149.373 27.9682 149.143 27.9901C148.77 28.0287 148.418 28.0572 148.088 28.0766C147.757 28.0954 147.454 28.1051 147.178 28.1051C146.276 28.1051 145.434 28.0809 144.653 28.0311C144.348 28.0146 144.09 27.9517 143.878 27.8422C143.665 27.7323 143.492 27.5717 143.36 27.3605C143.228 27.1496 143.132 26.8848 143.072 26.5666C143.011 26.2484 142.981 25.8671 142.981 25.4227C142.981 25.1426 142.984 24.8862 142.99 24.6528C142.995 24.4196 143.017 24.2056 143.054 24.0112C143.092 23.8161 143.149 23.6378 143.227 23.476C143.304 23.3145 143.415 23.1675 143.559 23.0355C143.702 22.9038 143.87 22.8023 144.063 22.7311C144.255 22.6599 144.481 22.6078 144.739 22.5753C144.998 22.5418 145.291 22.5212 145.618 22.5133C145.946 22.5048 146.314 22.501 146.722 22.501C147.429 22.501 148.01 22.5144 148.467 22.5418C148.924 22.5696 149.284 22.6461 149.549 22.7726C149.813 22.8987 149.996 23.0963 150.1 23.3648C150.204 23.6335 150.258 24.0096 150.264 24.4922H148.575V24.4919Z" fill="#8D2000"/>
<path d="M156.107 24.2372C156.101 24.1115 156.078 24.0112 156.038 23.9373C155.998 23.863 155.927 23.808 155.827 23.7726C155.727 23.7369 155.595 23.7133 155.431 23.7026C155.267 23.6915 155.056 23.686 154.797 23.686C154.751 23.686 154.714 23.686 154.685 23.686C154.656 23.686 154.619 23.6888 154.573 23.6945C154.199 23.711 153.886 23.719 153.634 23.719C153.381 23.719 153.177 23.731 153.022 23.7557C152.866 23.7808 152.754 23.8259 152.686 23.8918C152.617 23.9574 152.582 24.0674 152.582 24.2211C152.582 24.358 152.634 24.4612 152.737 24.5298C152.841 24.5986 152.984 24.6354 153.169 24.6408C153.427 24.6463 153.672 24.6517 153.905 24.6569C154.138 24.6628 154.355 24.6656 154.556 24.6656C154.677 24.6656 154.801 24.6644 154.931 24.6614C155.06 24.6585 155.182 24.6571 155.297 24.6571C155.774 24.6571 156.188 24.6696 156.538 24.6946C156.889 24.7189 157.177 24.7864 157.404 24.896C157.631 25.0057 157.8 25.1734 157.909 25.3977C158.018 25.623 158.072 25.9382 158.072 26.3448C158.072 26.6298 158.043 26.8714 157.986 27.0684C157.928 27.2668 157.838 27.4296 157.715 27.5587C157.591 27.6874 157.434 27.7873 157.245 27.8586C157.055 27.9304 156.828 27.9796 156.564 28.0067C156.409 28.0235 156.11 28.0426 155.668 28.0644C155.225 28.0864 154.659 28.097 153.97 28.097C153.292 28.097 152.739 28.0784 152.311 28.0398C151.883 28.0012 151.571 27.9163 151.375 27.7848C151.238 27.6917 151.136 27.5913 151.07 27.4844C151.004 27.3774 150.958 27.2637 150.932 27.1428C150.906 27.022 150.893 26.8919 150.893 26.7516C150.893 26.612 150.893 26.4596 150.893 26.295H152.626C152.626 26.3556 152.626 26.4183 152.626 26.4844C152.626 26.55 152.64 26.6093 152.668 26.6614C152.697 26.7138 152.749 26.7599 152.824 26.8012C152.898 26.8423 153.014 26.8687 153.169 26.8796C153.243 26.8851 153.383 26.8902 153.586 26.8959C153.79 26.9014 154.048 26.9041 154.358 26.9041C154.76 26.9041 155.089 26.9014 155.345 26.8959C155.6 26.8904 155.8 26.8715 155.944 26.8382C156.087 26.8059 156.185 26.756 156.237 26.6902C156.289 26.624 156.314 26.5285 156.314 26.4023C156.314 26.2816 156.289 26.1867 156.237 26.1181C156.185 26.0495 156.11 26.0005 156.013 25.9698C155.914 25.9396 155.798 25.9224 155.663 25.9161C155.529 25.911 155.38 25.9082 155.22 25.9082C154.657 25.9031 154.157 25.9012 153.72 25.9042C153.283 25.9071 152.904 25.8973 152.582 25.8751C152.261 25.8532 151.989 25.8151 151.768 25.7599C151.547 25.7055 151.369 25.6175 151.234 25.4967C151.099 25.3759 151.001 25.2169 150.94 25.0191C150.88 24.8218 150.85 24.5724 150.85 24.2701C150.85 24.0014 150.875 23.768 150.923 23.5703C150.972 23.373 151.054 23.207 151.169 23.0728C151.284 22.9382 151.434 22.8341 151.621 22.7599C151.808 22.6858 152.039 22.6322 152.315 22.5993C152.499 22.5775 152.796 22.5555 153.207 22.5332C153.618 22.5119 154.134 22.501 154.754 22.501C155.082 22.501 155.376 22.5021 155.638 22.5048C155.899 22.5078 156.132 22.5203 156.336 22.5416C156.54 22.5637 156.719 22.5955 156.875 22.6366C157.03 22.6777 157.165 22.7394 157.28 22.8216C157.406 22.9096 157.505 23.0024 157.577 23.1015C157.649 23.1997 157.702 23.3069 157.736 23.4226C157.771 23.5379 157.794 23.6626 157.805 23.7968C157.817 23.9313 157.823 24.0782 157.823 24.2371H156.107V24.2372Z" fill="#8D2000"/>
</g>
<defs>
<linearGradient id="paint0_linear_255_292" x1="6.21717" y1="12.7563" x2="20.5736" y2="12.7563" gradientUnits="userSpaceOnUse">
<stop stop-color="#FF7700"/>
<stop offset="1" stop-color="#FF7700"/>
</linearGradient>
<linearGradient id="paint1_linear_255_292" x1="6.25905" y1="8.75619" x2="20.5736" y2="8.75619" gradientUnits="userSpaceOnUse">
<stop stop-color="#FF7700"/>
<stop offset="1" stop-color="#FF7700"/>
</linearGradient>
<linearGradient id="paint2_linear_255_292" x1="6.24881" y1="10.7582" x2="20.5736" y2="10.7582" gradientUnits="userSpaceOnUse">
<stop stop-color="#FF7700"/>
<stop offset="1" stop-color="#FF7700"/>
</linearGradient>
<linearGradient id="paint3_linear_255_292" x1="12.3559" y1="19.8661" x2="20.5732" y2="19.8661" gradientUnits="userSpaceOnUse">
<stop stop-color="#FF7700"/>
<stop offset="1" stop-color="#FF7700"/>
</linearGradient>
<linearGradient id="paint4_linear_255_292" x1="12.4426" y1="15.866" x2="20.5734" y2="15.866" gradientUnits="userSpaceOnUse">
<stop stop-color="#FF7700"/>
<stop offset="1" stop-color="#FF7700"/>
</linearGradient>
<linearGradient id="paint5_linear_255_292" x1="12.4238" y1="17.8665" x2="20.5736" y2="17.8665" gradientUnits="userSpaceOnUse">
<stop stop-color="#FF7700"/>
<stop offset="1" stop-color="#FF7700"/>
</linearGradient>
<linearGradient id="paint6_linear_255_292" x1="6.21717" y1="12.7563" x2="20.5736" y2="12.7563" gradientUnits="userSpaceOnUse">
<stop stop-color="#FF7700" stop-opacity="0"/>
<stop offset="0.1451" stop-color="#FB7601" stop-opacity="0.1451"/>
<stop offset="0.2811" stop-color="#F07102" stop-opacity="0.2811"/>
<stop offset="0.4136" stop-color="#DD6905" stop-opacity="0.4136"/>
<stop offset="0.5438" stop-color="#C25F09" stop-opacity="0.5438"/>
<stop offset="0.6725" stop-color="#A0510E" stop-opacity="0.6725"/>
<stop offset="0.7999" stop-color="#764014" stop-opacity="0.7999"/>
<stop offset="0.924" stop-color="#452D1B" stop-opacity="0.924"/>
<stop offset="1" stop-color="#231F20"/>
</linearGradient>
<linearGradient id="paint7_linear_255_292" x1="6.25905" y1="8.75619" x2="20.5736" y2="8.75619" gradientUnits="userSpaceOnUse">
<stop stop-color="#FF7700" stop-opacity="0"/>
<stop offset="0.1451" stop-color="#FB7601" stop-opacity="0.1451"/>
<stop offset="0.2811" stop-color="#F07102" stop-opacity="0.2811"/>
<stop offset="0.4136" stop-color="#DD6905" stop-opacity="0.4136"/>
<stop offset="0.5438" stop-color="#C25F09" stop-opacity="0.5438"/>
<stop offset="0.6725" stop-color="#A0510E" stop-opacity="0.6725"/>
<stop offset="0.7999" stop-color="#764014" stop-opacity="0.7999"/>
<stop offset="0.924" stop-color="#452D1B" stop-opacity="0.924"/>
<stop offset="1" stop-color="#231F20"/>
</linearGradient>
<linearGradient id="paint8_linear_255_292" x1="6.24881" y1="10.7582" x2="20.5736" y2="10.7582" gradientUnits="userSpaceOnUse">
<stop stop-color="#FF7700" stop-opacity="0"/>
<stop offset="0.1451" stop-color="#FB7601" stop-opacity="0.1451"/>
<stop offset="0.2811" stop-color="#F07102" stop-opacity="0.2811"/>
<stop offset="0.4136" stop-color="#DD6905" stop-opacity="0.4136"/>
<stop offset="0.5438" stop-color="#C25F09" stop-opacity="0.5438"/>
<stop offset="0.6725" stop-color="#A0510E" stop-opacity="0.6725"/>
<stop offset="0.7999" stop-color="#764014" stop-opacity="0.7999"/>
<stop offset="0.924" stop-color="#452D1B" stop-opacity="0.924"/>
<stop offset="1" stop-color="#231F20"/>
</linearGradient>
<linearGradient id="paint9_linear_255_292" x1="12.3559" y1="19.8661" x2="20.5732" y2="19.8661" gradientUnits="userSpaceOnUse">
<stop stop-color="#FF7700" stop-opacity="0"/>
<stop offset="0.1451" stop-color="#FB7601" stop-opacity="0.1451"/>
<stop offset="0.2811" stop-color="#F07102" stop-opacity="0.2811"/>
<stop offset="0.4136" stop-color="#DD6905" stop-opacity="0.4136"/>
<stop offset="0.5438" stop-color="#C25F09" stop-opacity="0.5438"/>
<stop offset="0.6725" stop-color="#A0510E" stop-opacity="0.6725"/>
<stop offset="0.7999" stop-color="#764014" stop-opacity="0.7999"/>
<stop offset="0.924" stop-color="#452D1B" stop-opacity="0.924"/>
<stop offset="1" stop-color="#231F20"/>
</linearGradient>
<linearGradient id="paint10_linear_255_292" x1="12.4426" y1="15.866" x2="20.5734" y2="15.866" gradientUnits="userSpaceOnUse">
<stop stop-color="#FF7700" stop-opacity="0"/>
<stop offset="0.1451" stop-color="#FB7601" stop-opacity="0.1451"/>
<stop offset="0.2811" stop-color="#F07102" stop-opacity="0.2811"/>
<stop offset="0.4136" stop-color="#DD6905" stop-opacity="0.4136"/>
<stop offset="0.5438" stop-color="#C25F09" stop-opacity="0.5438"/>
<stop offset="0.6725" stop-color="#A0510E" stop-opacity="0.6725"/>
<stop offset="0.7999" stop-color="#764014" stop-opacity="0.7999"/>
<stop offset="0.924" stop-color="#452D1B" stop-opacity="0.924"/>
<stop offset="1" stop-color="#231F20"/>
</linearGradient>
<linearGradient id="paint11_linear_255_292" x1="12.4238" y1="17.8665" x2="20.5736" y2="17.8665" gradientUnits="userSpaceOnUse">
<stop stop-color="#FF7700" stop-opacity="0"/>
<stop offset="0.1451" stop-color="#FB7601" stop-opacity="0.1451"/>
<stop offset="0.2811" stop-color="#F07102" stop-opacity="0.2811"/>
<stop offset="0.4136" stop-color="#DD6905" stop-opacity="0.4136"/>
<stop offset="0.5438" stop-color="#C25F09" stop-opacity="0.5438"/>
<stop offset="0.6725" stop-color="#A0510E" stop-opacity="0.6725"/>
<stop offset="0.7999" stop-color="#764014" stop-opacity="0.7999"/>
<stop offset="0.924" stop-color="#452D1B" stop-opacity="0.924"/>
<stop offset="1" stop-color="#231F20"/>
</linearGradient>
<linearGradient id="paint12_linear_255_292" x1="-1.90662" y1="10.5036" x2="160.637" y2="10.5036" gradientUnits="userSpaceOnUse">
<stop stop-color="#FF7700"/>
<stop offset="1" stop-color="#E73419"/>
</linearGradient>
<linearGradient id="paint13_linear_255_292" x1="-3.38062" y1="10.5036" x2="159.162" y2="10.5036" gradientUnits="userSpaceOnUse">
<stop stop-color="#FF7700"/>
<stop offset="1" stop-color="#E73419"/>
</linearGradient>
<linearGradient id="paint14_linear_255_292" x1="-2.99677" y1="10.5036" x2="159.548" y2="10.5036" gradientUnits="userSpaceOnUse">
<stop stop-color="#FF7700"/>
<stop offset="1" stop-color="#E73419"/>
</linearGradient>
<linearGradient id="paint15_linear_255_292" x1="-2.9952" y1="10.5036" x2="159.548" y2="10.5036" gradientUnits="userSpaceOnUse">
<stop stop-color="#FF7700"/>
<stop offset="1" stop-color="#E73419"/>
</linearGradient>
<linearGradient id="paint16_linear_255_292" x1="-1.42617" y1="10.5195" x2="161.118" y2="10.5195" gradientUnits="userSpaceOnUse">
<stop stop-color="#FF7700"/>
<stop offset="1" stop-color="#E73419"/>
</linearGradient>
<clipPath id="clip0_255_292">
<rect width="157.58" height="27.8082" fill="white" transform="translate(0.492676 0.296875)"/>
</clipPath>
</defs>
</svg>
