<svg width="171" height="46" viewBox="0 0 171 46" fill="none" xmlns="http://www.w3.org/2000/svg">
<path d="M9.89714 18.1958L6.6958 29.9789H13.4186L16.5933 18.1958H9.89714Z" fill="#EF3940"/>
<path d="M13.2319 6.81337L12.3782 9.85936H19.1011L21.8756 0H12.3516V0.106883C14.6725 1.65659 13.2319 6.81337 13.2319 6.81337Z" fill="#EF3940"/>
<path d="M34.894 0L26.4639 29.9789H33.16L41.6169 0H34.894Z" fill="#EF3940"/>
<path d="M66.4541 0H56.5833C50.7142 0 47.1127 2.72535 45.5387 8.30965L39.3228 29.9789H45.6454L52.7684 6.49275H65.8139L63.3862 14.9894H54.209L52.3949 21.4822H61.5721L59.1977 29.9789H65.9206L72.2432 7.56152C73.0169 4.86288 72.9102 2.88567 71.9498 1.68331C71.0427 0.561106 69.1753 0 66.4541 0Z" fill="#1F2C32"/>
<path d="M94.999 18.1961L86.0353 23.3529L81.8735 18.4633L87.0757 0.0270996H83.4742H80.3796H77.5517V0.133974C79.8994 1.68368 78.4321 6.84048 78.4321 6.84048H78.4587L75.3908 17.7686C74.8572 19.6924 75.3374 21.5894 76.8581 23.5934L84.8348 30.8343L96.9732 23.2727C99.7744 21.1619 101.535 19.0511 102.095 17.0472L106.871 0.0805411H100.148L94.999 18.1961Z" fill="#1F2C32"/>
<path d="M127.84 18.1961L118.876 23.3529L114.714 18.4633L119.916 0.0270996H116.315H113.22H110.393V0.133974C112.74 1.68368 111.273 6.84048 111.273 6.84048H111.3L108.232 17.7686C107.698 19.6924 108.178 21.5894 109.699 23.5934L117.676 30.8343L129.814 23.2727C132.615 21.1619 134.376 19.0511 134.936 17.0472L139.711 0.0805411H132.989L127.84 18.1961Z" fill="#1F2C32"/>
<path d="M169.857 1.71003C168.95 0.587827 167.11 0 164.388 0H154.518C148.649 0 145.047 2.72535 143.473 8.30965L139.498 22.3906C138.724 25.0893 138.831 27.0665 139.791 28.2688C140.699 29.391 142.539 29.9789 145.26 29.9789H155.131C161 29.9789 164.602 27.2535 166.176 21.6692L170.151 7.58824C170.898 4.86289 170.791 2.88567 169.857 1.71003ZM158.919 23.4861H145.874L150.676 6.49275H163.722L158.919 23.4861Z" fill="#1F2C32"/>
<path d="M5.36916 12.146L0 15.3811L4.22622 18.7821H23.1512L28.4406 15.6023L24.1612 12.146H5.36916Z" fill="#EF3940"/>
<path d="M18.7808 45.0486C19.1276 45.4493 19.6345 45.6898 20.2748 45.7165H26.2773L26.4907 43.6859H21.0484C20.8083 43.6592 20.5149 43.4989 20.4882 42.911V42.2965H20.5949L26.6241 42.3232L26.8108 40.4529H20.6216L20.8617 39.5711C20.9684 39.2772 21.2618 39.1436 21.7687 39.1436H26.9175L27.1043 37.2466H21.2885C19.4477 37.3267 18.4073 38.7161 18.1405 41.4682C18.0071 43.1782 18.2206 44.3806 18.7808 45.0486Z" fill="#1F2C32"/>
<path d="M48.3129 37.2998H45.4317L43.5909 39.277L42.177 37.2998H39.1357L42.257 41.5214L42.177 41.6016L38.1753 45.7431H41.2432L43.1907 43.7391L44.738 45.7431H47.726L44.5513 41.3878L44.6047 41.3344L48.3129 37.2998Z" fill="#1F2C32"/>
<path d="M66.054 37.2739H60.1315L59.2778 45.7439H61.6522L61.9189 43.0453H65.6005C67.3345 42.9384 68.2949 42.0032 68.4817 40.1596C68.5884 39.2511 68.4283 38.5564 68.0282 38.0755C67.628 37.5678 66.961 37.3006 66.054 37.2739ZM66.4542 40.1596C66.3741 40.6673 66.054 40.9345 65.5471 40.9345H62.2124L62.3725 39.1977H65.6805C66.0007 39.2511 66.2141 39.358 66.3475 39.5183C66.4542 39.7054 66.5075 39.8924 66.4542 40.1596Z" fill="#1F2C32"/>
<path d="M86.5957 37.2466H80.6999L79.8462 45.7165H82.2205L82.4873 43.0179H84.9683L86.1422 45.7433H88.7833L87.6094 42.9645L87.6895 42.911C88.5965 42.2163 89.0767 41.2812 89.1034 40.1055C89.1834 38.4757 88.3564 37.5672 86.5957 37.2466ZM87.0225 40.159C86.9425 40.6666 86.6224 40.9338 86.0888 40.9605H82.7808L82.9408 39.2238H86.2489C86.569 39.2772 86.7824 39.3841 86.9158 39.5444C87.0225 39.7047 87.0492 39.8918 87.0225 40.159Z" fill="#1F2C32"/>
<path d="M101.482 45.0486C101.829 45.4493 102.336 45.6898 102.976 45.7165H108.978L109.192 43.6859H103.75C103.509 43.6592 103.216 43.4989 103.189 42.911V42.2965H103.296L109.325 42.3232L109.512 40.4529H103.323L103.563 39.5711C103.67 39.2772 103.963 39.1436 104.47 39.1436H109.619L109.805 37.2466H103.99C102.149 37.3267 101.108 38.7161 100.842 41.4682C100.708 43.1782 100.922 44.3806 101.482 45.0486Z" fill="#1F2C32"/>
<path d="M121.891 41.7891C122.291 42.2434 122.958 42.4838 123.918 42.4838H126.186C126.666 42.4838 127.013 42.5106 127.226 42.564C127.386 42.6174 127.6 42.7243 127.653 43.0984V43.1251V43.1518C127.546 43.4992 127.36 43.6862 127.093 43.7396C126.853 43.7664 126.533 43.7931 126.106 43.7931H121.224L121.01 45.797H126.132C127.199 45.7703 127.973 45.5566 128.427 45.1825C128.88 44.7817 129.174 44.1404 129.334 43.2854C129.414 42.4571 129.28 41.7892 128.934 41.3082C128.587 40.854 127.946 40.5868 127.039 40.5333H124.692C124.292 40.5333 124.025 40.5066 123.838 40.4799C123.598 40.4265 123.465 40.2394 123.411 39.9188V39.8921L123.438 39.8654C123.598 39.6249 123.758 39.4646 123.971 39.4379C124.158 39.4111 124.398 39.3844 124.745 39.3844H129.44L129.654 37.3538H124.665C123.625 37.4072 122.878 37.621 122.397 38.0217C121.917 38.4225 121.624 39.0638 121.464 39.9188C121.33 40.6669 121.49 41.3082 121.891 41.7891Z" fill="#1F2C32"/>
<path d="M149.102 39.3046L149.315 37.2739H144.327C143.286 37.3274 142.539 37.5411 142.059 37.9419C141.579 38.3427 141.285 38.984 141.125 39.839C141.045 40.6673 141.205 41.3085 141.605 41.7895C142.006 42.2437 142.673 42.4842 143.633 42.4842H145.901C146.381 42.4842 146.728 42.5109 146.941 42.5643C147.101 42.6178 147.315 42.7246 147.368 43.0987V43.1254V43.1521C147.261 43.4995 147.074 43.6865 146.808 43.74C146.568 43.7667 146.247 43.7934 145.821 43.7934H140.939L140.725 45.7973H145.847C146.914 45.7706 147.688 45.5569 148.142 45.1828C148.595 44.782 148.889 44.1407 149.049 43.2857C149.129 42.4574 148.995 41.7895 148.648 41.3085C148.302 40.8543 147.661 40.5871 146.754 40.5337H144.407C144.006 40.5337 143.74 40.5069 143.553 40.4802C143.313 40.4268 143.179 40.2398 143.126 39.9191V39.8924L143.153 39.8657C143.313 39.6252 143.473 39.4649 143.686 39.4382C143.873 39.4115 144.113 39.3847 144.46 39.3847H149.102V39.3046Z" fill="#1F2C32"/>
</svg>
