<svg width="56" height="56" viewBox="0 0 56 56" fill="none" xmlns="http://www.w3.org/2000/svg">
<circle cx="28" cy="28" r="28" fill="white"/>
<path d="M22.2402 39.042L32.8192 28.0695L22.249 17.1167C21.9667 17.2872 21.792 17.682 21.792 18.1989V37.9704C21.7958 38.4872 21.9642 38.8532 22.2402 39.042Z" fill="#1F2C32"/>
<path d="M33.1981 27.7666L36.3492 24.4978L23.5167 17.1994C23.3006 17.0692 23.0552 17.0004 22.8052 17L33.1968 27.7653L33.1981 27.7666Z" fill="#1F2C32"/>
<path d="M33.198 28.3743L22.7734 39.1868C23.0351 39.1913 23.2928 39.1204 23.5179 38.9821L36.3757 31.6641L33.198 28.3743Z" fill="#1F2C32"/>
<path d="M40.9983 27.1461L36.728 24.7129L33.4907 28.0709L36.752 31.4499L40.997 29.0232C41.8997 28.5077 41.8997 27.659 40.9983 27.1461Z" fill="#1F2C32"/>
</svg>
