<svg width="44" height="31" viewBox="0 0 44 31" fill="none" xmlns="http://www.w3.org/2000/svg">
<path d="M25.9074 22.2083H18.0913V8.05688H25.9074V22.2083Z" fill="#FF5F00"/>
<path d="M18.592 15.1313C18.592 12.2606 19.9261 9.70352 22.0038 8.05561C20.4845 6.85057 18.567 6.13133 16.4832 6.13133C11.5498 6.13133 7.55078 10.1607 7.55078 15.1313C7.55078 20.102 11.5498 24.1313 16.4832 24.1313C18.567 24.1313 20.4845 23.4121 22.0038 22.2071C19.9261 20.5592 18.592 18.002 18.592 15.1313" fill="#EB001B"/>
<path d="M36.4491 15.1313C36.4491 20.102 32.4501 24.1313 27.5168 24.1313C25.4329 24.1313 23.5155 23.4121 21.9956 22.2071C24.0738 20.5592 25.4079 18.002 25.4079 15.1313C25.4079 12.2606 24.0738 9.70352 21.9956 8.05561C23.5155 6.85057 25.4329 6.13133 27.5168 6.13133C32.4501 6.13133 36.4491 10.1607 36.4491 15.1313" fill="#F79E1B"/>
</svg>
