<svg width="135" height="25" viewBox="0 0 135 25" fill="none" xmlns="http://www.w3.org/2000/svg">
<path d="M7.81834 14.3733L5.28955 23.681H10.6L13.1077 14.3733H7.81834Z" fill="#EF3940"/>
<path d="M10.4527 5.38199L9.77839 7.78807H15.0889L17.2805 0H9.75732V0.0844286C11.5907 1.30857 10.4527 5.38199 10.4527 5.38199Z" fill="#EF3940"/>
<path d="M27.5639 0L20.9048 23.6808H26.1942L32.8744 0H27.5639Z" fill="#EF3940"/>
<path d="M52.494 0H44.6969C40.0608 0 37.2159 2.1528 35.9726 6.56392L31.0625 23.6808H36.0569L41.6834 5.12873H51.9882L50.0706 11.8404H42.8214L41.3884 16.9691H48.6376L46.7621 23.6808H52.0725L57.0669 5.97296C57.678 3.84127 57.5937 2.27944 56.8351 1.32967C56.1186 0.443227 54.6435 0 52.494 0Z" fill="#1F2C32"/>
<path d="M75.042 14.373L67.9614 18.4464L64.674 14.584L68.7833 0.0209961H65.9384H63.4939H61.2601V0.105418C63.1146 1.32956 61.9556 5.40299 61.9556 5.40299H61.9766L59.5532 14.0353C59.1317 15.5549 59.511 17.0534 60.7122 18.6364L67.0131 24.3561L76.6015 18.3831C78.8142 16.7157 80.205 15.0484 80.6475 13.4654L84.4196 0.0632104H79.1092L75.042 14.373Z" fill="#1F2C32"/>
<path d="M100.983 14.373L93.9028 18.4464L90.6154 14.584L94.7247 0.0209961H91.8798H89.4353H87.2015V0.105418C89.056 1.32956 87.8969 5.40299 87.8969 5.40299H87.918L85.4946 14.0353C85.0731 15.5549 85.4525 17.0534 86.6536 18.6364L92.9545 24.3561L102.543 18.3831C104.755 16.7157 106.146 15.0484 106.589 13.4654L110.361 0.0632104H105.051L100.983 14.373Z" fill="#1F2C32"/>
<path d="M134.174 1.35078C133.457 0.464334 132.003 0 129.854 0H122.056C117.42 0 114.575 2.1528 113.332 6.56392L110.192 17.6867C109.581 19.8184 109.665 21.3802 110.424 22.33C111.14 23.2164 112.595 23.6808 114.744 23.6808H122.541C127.177 23.6808 130.022 21.528 131.265 17.1169L134.405 5.99407C134.995 3.84127 134.911 2.27944 134.174 1.35078ZM125.534 18.5521H115.229L119.022 5.12873H129.327L125.534 18.5521Z" fill="#1F2C32"/>
<path d="M4.24118 9.86768L0 12.3568L3.33836 14.9735H18.2875L22.4657 12.527L19.0853 9.86768H4.24118Z" fill="#EF3940"/>
</svg>
