<svg width="44" height="31" viewBox="0 0 44 31" fill="none" xmlns="http://www.w3.org/2000/svg">
<path fill-rule="evenodd" clip-rule="evenodd" d="M20.1685 15.5248L20.3591 14.2921L19.9344 14.282H17.9062L19.3158 5.18493C19.3201 5.15738 19.3343 5.13181 19.3551 5.11362C19.3759 5.09543 19.4025 5.08545 19.4302 5.08545H22.85C23.9854 5.08545 24.7689 5.32589 25.1779 5.80053C25.3697 6.02319 25.4919 6.25594 25.551 6.51197C25.613 6.78068 25.614 7.10169 25.5535 7.49327L25.5491 7.52175V7.77269L25.7409 7.88329C25.9024 7.97051 26.0308 8.0703 26.1292 8.18454C26.2932 8.37498 26.3993 8.61698 26.4441 8.90378C26.4905 9.1988 26.4752 9.54994 26.3993 9.94745C26.3118 10.4046 26.1704 10.8029 25.9793 11.1286C25.8036 11.4289 25.5798 11.6779 25.314 11.8709C25.0602 12.0542 24.7587 12.1934 24.4178 12.2825C24.0875 12.37 23.7108 12.4142 23.2977 12.4142H23.0316C22.8413 12.4142 22.6565 12.484 22.5114 12.609C22.3659 12.7367 22.2697 12.9111 22.2401 13.1019L22.22 13.2129L21.8831 15.3858L21.8679 15.4655C21.8638 15.4908 21.8569 15.5033 21.8467 15.5119C21.8376 15.5196 21.8245 15.5248 21.8117 15.5248H20.1685Z" fill="#28356A"/>
<path fill-rule="evenodd" clip-rule="evenodd" d="M25.9227 7.55078C25.9125 7.61721 25.9008 7.68509 25.8877 7.75484C25.4368 10.1118 23.8938 10.9261 21.9232 10.9261H20.9199C20.6788 10.9261 20.4757 11.1041 20.4382 11.3461L19.779 15.6024C19.7546 15.7614 19.8749 15.9045 20.0324 15.9045H21.812C22.0227 15.9045 22.2017 15.7487 22.2349 15.5371L22.2524 15.4451L22.5874 13.2808L22.609 13.1621C22.6417 12.9498 22.8212 12.7939 23.0319 12.7939H23.298C25.0221 12.7939 26.3719 12.0814 26.7664 10.0194C26.9311 9.15807 26.8459 8.43884 26.4098 7.93301C26.2778 7.78051 26.1141 7.6539 25.9227 7.55078Z" fill="#298FC2"/>
<path fill-rule="evenodd" clip-rule="evenodd" d="M25.4507 7.3591C25.3818 7.33862 25.3107 7.32012 25.2378 7.30338C25.1645 7.28706 25.0894 7.27261 25.0121 7.25993C24.7416 7.21544 24.4451 7.19434 24.1276 7.19434H21.4472C21.3811 7.19434 21.3184 7.20951 21.2623 7.23696C21.1387 7.29746 21.0468 7.41658 21.0246 7.56243L20.4543 11.2388L20.438 11.3459C20.4755 11.1039 20.6786 10.9259 20.9196 10.9259H21.923C23.8935 10.9259 25.4365 10.1112 25.8875 7.75463C25.901 7.68488 25.9123 7.617 25.9224 7.55058C25.8083 7.48893 25.6848 7.43623 25.5517 7.39132C25.5188 7.3802 25.4849 7.36949 25.4507 7.3591Z" fill="#22284F"/>
<path fill-rule="evenodd" clip-rule="evenodd" d="M21.0247 7.56252C21.0469 7.41668 21.1387 7.29755 21.2624 7.23747C21.3189 7.20992 21.3812 7.19474 21.4473 7.19474H24.1277C24.4452 7.19474 24.7416 7.21595 25.0122 7.26044C25.0895 7.27302 25.1645 7.28757 25.2379 7.30389C25.3108 7.32053 25.3819 7.33913 25.4508 7.35951C25.485 7.3699 25.5189 7.38071 25.5521 7.39142C25.6852 7.43633 25.8088 7.48945 25.9229 7.55067C26.0571 6.67967 25.9218 6.08663 25.4592 5.54961C24.9491 4.95834 24.0285 4.70532 22.8505 4.70532H19.4306C19.19 4.70532 18.9848 4.88339 18.9476 5.1258L17.5232 14.3164C17.4951 14.4982 17.6329 14.6623 17.813 14.6623H19.9243L21.0247 7.56252Z" fill="#28356A"/>
<path fill-rule="evenodd" clip-rule="evenodd" d="M10.092 18.0269H7.59861C7.42796 18.0269 7.28285 18.1531 7.25619 18.3246L6.24773 24.8327C6.22771 24.9612 6.32544 25.0769 6.4534 25.0769H7.64375C7.8144 25.0769 7.95951 24.9508 7.98617 24.779L8.25812 23.0236C8.28437 22.8517 8.42979 22.7256 8.60013 22.7256H9.38944C11.0319 22.7256 11.9798 21.9165 12.2274 20.3134C12.339 19.6119 12.2321 19.0609 11.9094 18.6749C11.5551 18.2511 10.9265 18.0269 10.092 18.0269ZM10.3799 20.4039C10.2435 21.3146 9.55992 21.3146 8.89898 21.3146H8.52266L8.78664 19.6138C8.80237 19.511 8.88979 19.4353 8.99191 19.4353H9.1644C9.61466 19.4353 10.0394 19.4353 10.2589 19.6965C10.3898 19.8524 10.4298 20.084 10.3799 20.4039Z" fill="#28356A"/>
<path fill-rule="evenodd" clip-rule="evenodd" d="M17.6094 20.3255H16.4154C16.3136 20.3255 16.2257 20.4012 16.2101 20.504L16.1572 20.8439L16.0738 20.7208C15.8153 20.3388 15.2388 20.2112 14.6635 20.2112C13.344 20.2112 12.2171 21.2284 11.9976 22.6554C11.8835 23.3671 12.0457 24.0478 12.4425 24.5225C12.8063 24.9588 13.327 25.1408 13.9463 25.1408C15.0095 25.1408 15.599 24.4449 15.599 24.4449L15.5458 24.7826C15.5258 24.9118 15.6235 25.0276 15.7507 25.0276H16.8262C16.9973 25.0276 17.1417 24.9014 17.1686 24.7295L17.8139 20.5697C17.8344 20.4416 17.7369 20.3255 17.6094 20.3255ZM15.9448 22.691C15.8296 23.3853 15.2882 23.8514 14.5977 23.8514C14.251 23.8514 13.9739 23.7382 13.7959 23.5238C13.6194 23.3108 13.5525 23.0075 13.6085 22.6698C13.7162 21.9814 14.2666 21.5001 14.9466 21.5001C15.2857 21.5001 15.5613 21.6148 15.7429 21.831C15.9248 22.0496 15.997 22.3547 15.9448 22.691Z" fill="#28356A"/>
<path fill-rule="evenodd" clip-rule="evenodd" d="M23.8767 20.4294H22.6767C22.5622 20.4294 22.4547 20.4873 22.3899 20.5842L20.7349 23.0654L20.0335 20.681C19.9893 20.5318 19.8541 20.4294 19.7009 20.4294H18.5219C18.3786 20.4294 18.2791 20.572 18.3246 20.7093L19.6463 24.6571L18.4038 26.4426C18.306 26.5832 18.4045 26.7766 18.5733 26.7766H19.7717C19.8855 26.7766 19.9919 26.7201 20.0564 26.6252L24.0472 20.7616C24.1428 20.6213 24.0447 20.4294 23.8767 20.4294Z" fill="#28356A"/>
<path fill-rule="evenodd" clip-rule="evenodd" d="M27.8766 18.0269H25.3829C25.2126 18.0269 25.0675 18.1531 25.0409 18.3246L24.0324 24.8327C24.0124 24.9612 24.1101 25.0769 24.2374 25.0769H25.5171C25.6358 25.0769 25.7375 24.9887 25.7561 24.8684L26.0424 23.0236C26.0686 22.8517 26.2142 22.7256 26.3844 22.7256H27.1734C28.8161 22.7256 29.7637 21.9165 30.0117 20.3134C30.1236 19.6119 30.0161 19.0609 29.6934 18.6749C29.3393 18.2511 28.7112 18.0269 27.8766 18.0269ZM28.1646 20.4039C28.0286 21.3146 27.3449 21.3146 26.6836 21.3146H26.3078L26.5721 19.6138C26.5877 19.511 26.6745 19.4353 26.7769 19.4353H26.9494C27.3993 19.4353 27.8244 19.4353 28.0439 19.6965C28.1748 19.8523 28.2145 20.084 28.1646 20.4039Z" fill="#298FC2"/>
<path fill-rule="evenodd" clip-rule="evenodd" d="M35.3924 20.3255H34.1991C34.0967 20.3255 34.0096 20.4012 33.9943 20.504L33.9414 20.8439L33.8575 20.7208C33.5991 20.3388 33.023 20.2112 32.4476 20.2112C31.1282 20.2112 30.0017 21.2284 29.7822 22.6554C29.6684 23.3671 29.8299 24.0478 30.2266 24.5225C30.5912 24.9588 31.111 25.1408 31.7305 25.1408C32.7936 25.1408 33.3832 24.4449 33.3832 24.4449L33.33 24.7826C33.31 24.9118 33.4076 25.0276 33.5356 25.0276H34.6108C34.781 25.0276 34.9262 24.9014 34.9528 24.7295L35.5984 20.5697C35.6181 20.4416 35.5204 20.3255 35.3924 20.3255ZM33.7283 22.691C33.6138 23.3853 33.0716 23.8514 32.3811 23.8514C32.0351 23.8514 31.7573 23.7382 31.5793 23.5238C31.4029 23.3108 31.3365 23.0076 31.3919 22.6698C31.5002 21.9815 32.05 21.5001 32.73 21.5001C33.0691 21.5001 33.3447 21.6148 33.5263 21.8311C33.7089 22.0497 33.7811 22.3548 33.7283 22.691Z" fill="#298FC2"/>
<path fill-rule="evenodd" clip-rule="evenodd" d="M36.7003 18.2058L35.6769 24.8331C35.6569 24.9615 35.7545 25.0772 35.8818 25.0772H36.9107C37.0817 25.0772 37.2268 24.9511 37.253 24.7793L38.2622 18.2715C38.2823 18.143 38.1846 18.0269 38.0573 18.0269H36.9053C36.8036 18.0272 36.716 18.1029 36.7003 18.2058Z" fill="#298FC2"/>
</svg>
