<svg width="219" height="257" viewBox="0 0 219 257" fill="none" xmlns="http://www.w3.org/2000/svg">
<path d="M0 14C0 6.26801 6.26801 0 14 0H205C212.732 0 219 6.26801 219 14V257H0V14Z" fill="white"/>
<path d="M9 29C9 21.268 15.268 15 23 15H196C203.732 15 210 21.268 210 29V257H9V29Z" fill="#F5F5F5"/>
<path d="M75.1159 139L68 166H82.9434L90 139H75.1159Z" fill="#EF3940"/>
<path d="M82.9412 113.203L81.0588 120H95.8823L102 98H81V98.2385C86.1176 101.696 82.9412 113.203 82.9412 113.203Z" fill="#EF3940"/>
<path d="M131.915 98L113 166H128.025L147 98H131.915Z" fill="#EF3940"/>
<path d="M65.0822 126L53 133.313L62.5103 141H105.097L117 133.812L107.37 126H65.0822Z" fill="#EF3940"/>
</svg>
