<svg width="25" height="24" viewBox="0 0 25 24" fill="none" xmlns="http://www.w3.org/2000/svg">
<rect x="0.5" width="24" height="24" rx="12" fill="#2D3E46"/>
<path d="M17.2561 7.23789C16.0707 6.05664 14.4902 5.40039 12.8219 5.40039C9.35366 5.40039 6.5439 8.20039 6.5439 11.6566C6.5439 12.7504 6.85122 13.8441 7.37805 14.7629L6.5 18.0004L9.83659 17.1254C10.7585 17.6066 11.7683 17.8691 12.8219 17.8691C16.2902 17.8691 19.1 15.0691 19.1 11.6129C19.0561 9.99414 18.4415 8.41914 17.2561 7.23789ZM15.8512 13.8879C15.7195 14.2379 15.1049 14.5879 14.7976 14.6316C14.5341 14.6754 14.1829 14.6754 13.8317 14.5879C13.6122 14.5004 13.3049 14.4129 12.9537 14.2379C11.3732 13.5816 10.3634 12.0066 10.2756 11.8754C10.1878 11.7879 9.61707 11.0441 9.61707 10.2566C9.61707 9.46914 10.0122 9.11914 10.1439 8.94414C10.2756 8.76914 10.4512 8.76914 10.5829 8.76914C10.6707 8.76914 10.8024 8.76914 10.8902 8.76914C10.978 8.76914 11.1098 8.72539 11.2415 9.03164C11.3732 9.33789 11.6805 10.1254 11.7244 10.1691C11.7683 10.2566 11.7683 10.3441 11.7244 10.4316C11.6805 10.5191 11.6366 10.6066 11.5488 10.6941C11.461 10.7816 11.3732 10.9129 11.3293 10.9566C11.2415 11.0441 11.1537 11.1316 11.2415 11.2629C11.3293 11.4379 11.6366 11.9191 12.1195 12.3566C12.7341 12.8816 13.2171 13.0566 13.3927 13.1441C13.5683 13.2316 13.6561 13.1879 13.7439 13.1004C13.8317 13.0129 14.139 12.6629 14.2268 12.4879C14.3146 12.3129 14.4463 12.3566 14.578 12.4004C14.7098 12.4441 15.5 12.8379 15.6317 12.9254C15.8073 13.0129 15.8951 13.0566 15.939 13.1004C15.9829 13.2316 15.9829 13.5379 15.8512 13.8879Z" fill="white"/>
</svg>
