<svg width="44" height="31" viewBox="0 0 44 31" fill="none" xmlns="http://www.w3.org/2000/svg">
<path d="M19.608 21.0254H16.7651L18.5433 10.2949H21.386L19.608 21.0254Z" fill="#15195A"/>
<path d="M29.9142 10.5574C29.3534 10.3403 28.464 10.1006 27.3643 10.1006C24.5568 10.1006 22.5799 11.5617 22.5677 13.6506C22.5444 15.1918 23.9832 16.0478 25.0593 16.5617C26.1592 17.0868 26.533 17.4296 26.533 17.8976C26.5219 18.6165 25.6443 18.9479 24.8258 18.9479C23.6908 18.9479 23.0826 18.777 22.1584 18.3771L21.7841 18.2056L21.3862 20.6144C22.053 20.9109 23.2814 21.174 24.5568 21.1855C27.5398 21.1855 29.4818 19.747 29.5048 17.5209C29.5162 16.2994 28.7564 15.3634 27.1185 14.5986C26.1242 14.1076 25.5153 13.7765 25.5153 13.2742C25.5269 12.8175 26.0303 12.3497 27.1527 12.3497C28.0769 12.3268 28.756 12.5436 29.2704 12.7606L29.5275 12.8745L29.9142 10.5574Z" fill="#15195A"/>
<path fill-rule="evenodd" clip-rule="evenodd" d="M35.0026 10.2949H37.2016L39.4951 21.0252H36.8628C36.8628 21.0252 36.6052 19.7923 36.5236 19.4156H32.8736C32.768 19.7008 32.2769 21.0252 32.2769 21.0252H29.2939L33.5167 11.1852C33.8093 10.4888 34.3245 10.2949 35.0026 10.2949ZM34.8272 14.2217C34.8272 14.2217 33.9263 16.6075 33.6922 17.2239H36.0552C35.9383 16.6875 35.3999 14.1189 35.3999 14.1189L35.2013 13.1943C35.1176 13.4324 34.9966 13.7598 34.915 13.9805C34.8597 14.1302 34.8225 14.2309 34.8272 14.2217Z" fill="#15195A"/>
<path fill-rule="evenodd" clip-rule="evenodd" d="M4.44767 10.2949H9.02162C9.6416 10.3175 10.1447 10.5116 10.3084 11.1969L11.3024 16.1272C11.3025 16.1275 11.3026 16.1278 11.3027 16.1281L11.6069 17.6121L14.3911 10.2949H17.3972L12.9286 21.014H9.92236L7.38847 11.6902C6.51422 11.1913 5.51645 10.7901 4.40088 10.5117L4.44767 10.2949Z" fill="#15195A"/>
</svg>
